<?xml version="1.0" encoding="UTF-8"?>
<svg width="100px" height="100px" viewBox="0 0 100 100" version="1.1" xmlns="http://www.w3.org/2000/svg" xmlns:xlink="http://www.w3.org/1999/xlink">
    <!-- Generator: Sketch 39.1 (31720) - http://www.bohemiancoding.com/sketch -->
    <title>Page 1</title>
    <desc>Created with Sketch.</desc>
    <defs></defs>
    <g id="Page-1" stroke="none" stroke-width="1" fill="none" fill-rule="evenodd">
        <g id="PC---Barcelona" transform="translate(-1210.000000, -1935.000000)">
            <g id="Page-1" transform="translate(1210.000000, 1935.000000)">
                <polygon id="Fill-1" fill="#E1CD5B" points="0 100 50 100 50 50 0 50"></polygon>
                <polygon id="Fill-2" fill="#BC563A" points="17.75 100 22.7505 100 22.7505 50 17.75 50"></polygon>
                <polygon id="Fill-3" fill="#BC563A" points="27.75 100 32.75 100 32.75 50 27.75 50"></polygon>
                <polygon id="Fill-4" fill="#BC563A" points="7.25 100 12.25 100 12.25 50 7.25 50"></polygon>
                <polygon id="Fill-5" fill="#BC563A" points="37.75 100 42.75 100 42.75 50 37.75 50"></polygon>
                <polygon id="Fill-6" fill="#E1CD5B" points="50 50 100 50 100 0 50 0"></polygon>
                <polygon id="Fill-7" fill="#BC563A" points="67.75 50 72.75 50 72.75 0 67.75 0"></polygon>
                <polygon id="Fill-8" fill="#BC563A" points="77.75 50 82.75 50 82.75 0 77.75 0"></polygon>
                <polygon id="Fill-9" fill="#BC563A" points="57.25 50 62.25 50 62.25 0 57.25 0"></polygon>
                <polygon id="Fill-10" fill="#BC563A" points="87.75 50 92.75 50 92.75 0 87.75 0"></polygon>
                <polygon id="Fill-11" fill="#ECEADE" points="0 50 50 50 50 0 0 0"></polygon>
                <polygon id="Fill-12" fill="#BC563A" points="20.75 50 29.25 50 29.25 0 20.75 0"></polygon>
                <polygon id="Fill-13" fill="#BC563A" points="0 28.75 50 28.75 50 21.25 0 21.25"></polygon>
                <polygon id="Fill-14" fill="#ECEADE" points="50 100 100 100 100 50 50 50"></polygon>
                <polygon id="Fill-15" fill="#BC563A" points="70.75 100 79.25 100 79.25 50 70.75 50"></polygon>
                <polygon id="Fill-16" fill="#BC563A" points="50 78.75 100 78.75 100 71.25 50 71.25"></polygon>
            </g>
        </g>
    </g>
</svg>