<?xml version="1.0" encoding="UTF-8"?>
<svg width="349px" height="372px" viewBox="0 0 349 372" version="1.1" xmlns="http://www.w3.org/2000/svg" xmlns:xlink="http://www.w3.org/1999/xlink">
    <!-- Generator: Sketch 39.1 (31720) - http://www.bohemiancoding.com/sketch -->
    <title>Group 2</title>
    <desc>Created with Sketch.</desc>
    <defs>
        <polygon id="path-1" points="0 278.40257 266.086404 278.40257 266.086404 0.221049251 0 0.221049251"></polygon>
    </defs>
    <g id="Page-1" stroke="none" stroke-width="1" fill="none" fill-rule="evenodd">
        <g id="PC---Home---Preconference" transform="translate(-546.000000, -240.000000)">
            <g id="Group-2" transform="translate(546.000000, 240.000000)">
                <g id="Group" fill="#ECEFEF">
                    <polygon id="Fill-1" points="0 372 349 372 349 0 0 0"></polygon>
                </g>
                <g id="Page-1-Copy" transform="translate(41.000000, 46.000000)">
                    <polygon id="Fill-1" fill="#E0DED2" points="70.2677067 125.460385 130.162273 125.460385 130.162273 65.7173448 70.2677067 65.7173448"></polygon>
                    <polygon id="Fill-2" fill="#66AAB7" points="100.21517 95.5889248 91.2309848 86.6274687 91.2309848 74.6788606 100.21517 83.6403167"></polygon>
                    <polygon id="Fill-3" fill="#525353" points="100.21517 95.5889248 109.199355 86.6274687 109.199355 74.6788606 100.21517 83.6403167"></polygon>
                    <polygon id="Fill-4" fill="#66AAB7" points="100.21517 95.5889248 109.199355 104.550381 109.199355 116.498989 100.21517 107.537533"></polygon>
                    <polygon id="Fill-5" fill="#525353" points="100.21517 95.5889248 91.2309848 104.550381 91.2309848 116.498989 100.21517 107.537533"></polygon>
                    <polygon id="Fill-6" fill="#66AAB7" points="100.21517 95.5889248 109.199355 86.6274687 121.178268 86.6274687 112.194083 95.5889248"></polygon>
                    <polygon id="Fill-7" fill="#525353" points="100.21517 95.5889248 109.199355 104.550381 121.178268 104.550381 112.194083 95.5889248"></polygon>
                    <polygon id="Fill-8" fill="#66AAB7" points="100.21517 95.5889248 91.2309848 104.550381 79.2520714 104.550381 88.2362564 95.5889248"></polygon>
                    <polygon id="Fill-9" fill="#525353" points="100.21517 95.5889248 91.2309848 86.6274687 79.2520714 86.6274687 88.2362564 95.5889248"></polygon>
                    <polygon id="Fill-10" fill="#D7E1E0" points="5.58157467 190.281585 65.4761414 190.281585 65.4761414 130.538544 5.58157467 130.538544"></polygon>
                    <polygon id="Fill-11" fill="#E0DED2" points="134.954438 60.3410685 194.849004 60.3410685 194.849004 0.597430407 134.954438 0.597430407"></polygon>
                    <polygon id="Fill-12" fill="#BC563A" points="194.848585 60.3405308 170.890759 36.4433146 182.869672 36.4433146 194.848585 48.3919227"></polygon>
                    <polygon id="Fill-13" fill="#BC563A" points="134.954138 0.597251178 158.911965 24.4950649 158.911965 12.5464567 146.933052 0.597251178"></polygon>
                    <polygon id="Fill-14" fill="#BC563A" points="182.869672 44.2099099 151.125551 44.2099099 151.125551 12.5460983 158.911845 12.5460983 158.911845 36.4433146 182.869672 36.4433146"></polygon>
                    <g id="Group-195" transform="translate(0.000000, 0.376381)">
                        <path d="M166.698139,0.221108994 L158.911845,0.221108994 C158.911845,20.0181604 175.001323,36.0669334 194.848585,36.0669334 L194.848585,28.3003381 C179.301154,28.3003381 166.698139,15.7286101 166.698139,0.221108994 L166.698139,0.221108994 Z" id="Fill-15" fill="#BC563A"></path>
                        <polygon id="Fill-17" fill="#DEB525" points="171.489704 32.482351 162.505519 32.482351 162.505519 23.5208949"></polygon>
                        <polygon id="Fill-19" fill="#DEB525" points="158.911845 59.9641497 134.954018 59.9641497 134.954018 36.0669334"></polygon>
                        <polygon id="Fill-21" fill="#DEB525" points="151.125551 0.221108994 155.318171 0.221108994 155.318171 4.40312184"></polygon>
                        <polygon id="Fill-23" fill="#DEB525" points="190.655966 39.0540854 194.848585 39.0540854 194.848585 43.2360983"></polygon>
                        <path d="M170.890759,0.221108994 C170.890759,13.4189441 181.617276,24.1183253 194.848585,24.1183253 L194.848585,0.221108994 L170.890759,0.221108994 Z" id="Fill-25" fill="#DBBC9A"></path>
                        <mask id="mask-2" fill="white">
                            <use xlink:href="#path-1"></use>
                        </mask>
                        <g id="Clip-28"></g>
                        <polygon id="Fill-27" fill="#D7E1E0" mask="url(#mask-2)" points="200.238917 125.084004 260.133483 125.084004 260.133483 65.3409636 200.238917 65.3409636"></polygon>
                        <polygon id="Fill-29" fill="#DBBC9A" mask="url(#mask-2)" points="230.18638 65.3410233 260.133663 95.2125437 230.18638 125.084064 200.239096 95.2125437"></polygon>
                        <polygon id="Fill-30" fill="#E0DED2" mask="url(#mask-2)" points="215.212558 110.148244 245.159842 110.148244 245.159842 80.2767238 215.212558 80.2767238"></polygon>
                        <polygon id="Fill-31" fill="#BC563A" mask="url(#mask-2)" points="230.18638 104.174 221.202195 95.2125437 230.18638 86.2510876 239.170565 95.2125437"></polygon>
                        <polygon id="Fill-32" fill="#BC563A" mask="url(#mask-2)" points="223.833782 101.549428 236.539217 101.549428 236.539217 88.876137 223.833782 88.876137"></polygon>
                        <path d="M21.167219,175.579778 C21.4804676,183.001059 27.4771116,188.982532 34.9172147,189.294988 C34.6039661,181.873707 28.6073221,175.892234 21.167219,175.579778" id="Fill-33" fill="#D9AE2B" mask="url(#mask-2)"></path>
                        <path d="M36.1408607,189.294988 C43.5809638,188.982532 49.5776078,183.001059 49.8908564,175.579778 C42.4507533,175.892234 36.4541093,181.873707 36.1408607,189.294988" id="Fill-34" fill="#D9AE2B" mask="url(#mask-2)"></path>
                        <path d="M21.167219,144.487707 C28.6073221,144.175251 34.6039661,138.193778 34.9172147,130.772498 C27.4771116,131.084954 21.4804676,137.066427 21.167219,144.487707" id="Fill-35" fill="#D9AE2B" mask="url(#mask-2)"></path>
                        <path d="M36.1408607,130.772498 C36.4541093,138.193778 42.4507533,144.175251 49.8908564,144.487707 C49.5776078,137.066427 43.5809638,131.084954 36.1408607,130.772498" id="Fill-36" fill="#D9AE2B" mask="url(#mask-2)"></path>
                        <path d="M51.1145024,175.579778 C51.427751,183.001059 57.424395,188.982532 64.8644981,189.294988 C64.5512495,181.873707 58.5546055,175.892234 51.1145024,175.579778" id="Fill-37" fill="#D9AE2B" mask="url(#mask-2)"></path>
                        <path d="M64.864558,130.772498 C57.4244549,131.084954 51.4278109,137.066427 51.1145623,144.487707 C58.5546654,144.175251 64.5513094,138.193778 64.864558,130.772498" id="Fill-38" fill="#D9AE2B" mask="url(#mask-2)"></path>
                        <path d="M6.19357736,189.294988 C13.6336804,188.982532 19.6303245,183.001059 19.943573,175.579778 C12.50347,175.892234 6.50682594,181.873707 6.19357736,189.294988" id="Fill-39" fill="#D9AE2B" mask="url(#mask-2)"></path>
                        <path d="M6.19357736,130.772498 C6.50682594,138.193778 12.50347,144.175251 19.943573,144.487707 C19.6303245,137.066427 13.6336804,131.084954 6.19357736,130.772498" id="Fill-40" fill="#D9AE2B" mask="url(#mask-2)"></path>
                        <path d="M21.167219,174.359228 C28.6073221,174.046772 34.6039661,168.065299 34.9172147,160.644018 C27.4771116,160.956474 21.4804676,166.937947 21.167219,174.359228" id="Fill-41" fill="#D9AE2B" mask="url(#mask-2)"></path>
                        <path d="M21.167219,145.708258 C21.4804676,153.129538 27.4771116,159.111012 34.9172147,159.423468 C34.6039661,152.002187 28.6073221,146.020714 21.167219,145.708258" id="Fill-42" fill="#D9AE2B" mask="url(#mask-2)"></path>
                        <path d="M6.19357736,160.644018 C6.50682594,168.065299 12.50347,174.046772 19.943573,174.359228 C19.6303245,166.937947 13.6336804,160.956474 6.19357736,160.644018" id="Fill-43" fill="#D9AE2B" mask="url(#mask-2)"></path>
                        <path d="M6.19357736,159.423468 C13.6336804,159.111012 19.6303245,153.129538 19.943573,145.708258 C12.50347,146.020714 6.50682594,152.002187 6.19357736,159.423468" id="Fill-44" fill="#D9AE2B" mask="url(#mask-2)"></path>
                        <path d="M36.1408607,160.644018 C36.4541093,168.065299 42.4507533,174.046772 49.8908564,174.359228 C49.5776078,166.937947 43.5809638,160.956474 36.1408607,160.644018" id="Fill-45" fill="#D9AE2B" mask="url(#mask-2)"></path>
                        <path d="M36.1408607,159.423468 C43.5809638,159.111012 49.5776078,153.129538 49.8908564,145.708258 C42.4507533,146.020714 36.4541093,152.002187 36.1408607,159.423468" id="Fill-46" fill="#D9AE2B" mask="url(#mask-2)"></path>
                        <path d="M51.1145024,174.359228 C58.5546055,174.046772 64.5512495,168.065299 64.8644981,160.644018 C57.424395,160.956474 51.427751,166.937947 51.1145024,174.359228" id="Fill-47" fill="#D9AE2B" mask="url(#mask-2)"></path>
                        <path d="M51.1145024,145.708258 C51.427751,153.129538 57.424395,159.111012 64.8644981,159.423468 C64.5512495,152.002187 58.5546055,146.020714 51.1145024,145.708258" id="Fill-48" fill="#D9AE2B" mask="url(#mask-2)"></path>
                        <polygon id="Fill-49" fill="#E0DED2" mask="url(#mask-2)" points="134.953839 189.905203 194.848406 189.905203 194.848406 130.162163 134.953839 130.162163"></polygon>
                        <polygon id="Fill-50" fill="#DBBC9A" mask="url(#mask-2)" points="194.848585 189.905263 152.922388 189.905263 194.848585 148.085135"></polygon>
                        <path d="M171.061997,166.179031 C159.162145,167.573434 149.9276,177.661046 149.9276,189.905383 L158.911785,189.905383 C158.911785,182.399864 164.462215,176.189575 171.691489,175.130331 C171.171604,173.172552 170.890699,171.116794 170.890699,168.995318 C170.890699,168.041819 170.952989,167.103256 171.061997,166.179031" id="Fill-51" fill="#BC563A" mask="url(#mask-2)"></path>
                        <path d="M180.036539,166.806752 C181.09847,159.595767 187.32451,154.059379 194.848465,154.059379 L194.848465,145.097923 C182.573074,145.097923 172.459876,154.309105 171.061937,166.178852 C171.988506,166.07012 172.92945,166.007987 173.885367,166.007987 C176.012223,166.007987 178.073195,166.287585 180.036539,166.806752" id="Fill-52" fill="#BC563A" mask="url(#mask-2)"></path>
                        <path d="M182.868893,177.955819 C180.989402,175.459754 179.874764,172.357298 179.874764,168.99496 C179.874764,168.251757 179.931065,167.521099 180.036479,166.806572 C178.073135,166.288003 176.012163,166.007808 173.885307,166.007808 C172.92939,166.007808 171.988446,166.069941 171.061877,166.17927 C170.952869,167.102898 170.890579,168.041461 170.890579,168.99496 C170.890579,171.117033 171.171484,173.172193 171.691369,175.13057 C172.407708,175.02602 173.140219,174.969264 173.885307,174.969264 C177.256173,174.969264 180.366498,176.081082 182.868893,177.955819" id="Fill-53" fill="#BC563A" mask="url(#mask-2)"></path>
                        <polygon id="Fill-54" fill="#525353" mask="url(#mask-2)" points="143.339258 189.905263 143.339258 155.652786 160.509233 138.526248 194.848585 138.526248 194.848585 141.951317 161.653818 141.951317 146.773013 156.794475 146.773013 189.905263"></polygon>
                        <path d="M142.727375,146.290991 C140.758641,146.81434 138.894722,147.835349 137.350041,149.376122 C138.894722,150.916895 140.758042,151.937306 142.727375,152.460655 C142.187725,150.440743 142.187725,148.311501 142.727375,146.290991" id="Fill-55" fill="#525353" mask="url(#mask-2)"></path>
                        <path d="M157.383276,137.842131 C156.8586,135.877779 155.835001,134.019173 154.290321,132.4784 C152.74564,134.018576 151.72264,135.877779 151.197964,137.842131 C153.222999,137.303846 155.357642,137.303846 157.383276,137.842131" id="Fill-56" fill="#525353" mask="url(#mask-2)"></path>
                        <path d="M148.913046,152.461014 C150.881781,151.937665 152.7457,150.916656 154.29038,149.375883 C152.7457,147.83511 150.88238,146.814699 148.913046,146.29135 C149.452696,148.311262 149.452696,150.440504 148.913046,152.461014" id="Fill-57" fill="#525353" mask="url(#mask-2)"></path>
                        <path d="M148.913046,152.461014 C149.452696,150.440504 149.452696,148.311262 148.913046,146.29135 C146.887412,145.753065 144.75277,145.753065 142.727135,146.290752 C142.188084,148.311262 142.188084,150.440504 142.727734,152.461014 C144.75277,152.999299 146.887412,152.999299 148.913046,152.461014" id="Fill-58" fill="#525353" mask="url(#mask-2)"></path>
                        <path d="M151.197844,144.011974 C151.722521,145.976325 152.74552,147.834931 154.2908,149.376301 C155.835481,147.835528 156.85848,145.976325 157.383156,144.011974 C155.358121,144.550258 153.223478,144.550258 151.197844,144.011974" id="Fill-59" fill="#525353" mask="url(#mask-2)"></path>
                        <path d="M151.197844,144.011974 C153.223478,144.550258 155.358121,144.550258 157.383156,144.011974 C157.922806,141.991464 157.922806,139.862222 157.383156,137.84231 C155.358121,137.304025 153.223478,137.304025 151.197844,137.84231 C150.658194,139.862222 150.658194,141.991464 151.197844,144.011974" id="Fill-60" fill="#525353" mask="url(#mask-2)"></path>
                        <path d="M148.233063,139.106831 C146.469767,138.088212 144.427961,137.494964 142.243607,137.494964 C142.243607,139.67439 142.837761,141.710433 143.858963,143.469268 C144.910113,141.660249 146.419456,140.154724 148.233063,139.106831" id="Fill-61" fill="#525353" mask="url(#mask-2)"></path>
                        <path d="M148.233063,147.832302 C149.996359,148.850921 152.038165,149.444169 154.22252,149.444169 C154.22252,147.264743 153.628366,145.2287 152.607163,143.469865 C151.556014,145.278885 150.046671,146.784409 148.233063,147.832302" id="Fill-62" fill="#525353" mask="url(#mask-2)"></path>
                        <path d="M148.233063,147.832302 C150.046671,146.784409 151.556014,145.278885 152.607163,143.469865 C151.556014,141.660249 150.046671,140.154724 148.233063,139.106831 C146.419456,140.154724 144.910113,141.660249 143.858963,143.469865 C144.910113,145.278885 146.419456,146.784409 148.233063,147.832302" id="Fill-63" fill="#525353" mask="url(#mask-2)"></path>
                        <path d="M186.234788,183.930959 C185.622067,184.986021 185.265694,186.208364 185.265694,187.515542 C186.576187,187.515542 187.801031,187.16007 188.859368,186.548899 C187.771084,185.919805 186.865478,185.01649 186.234788,183.930959" id="Fill-64" fill="#525353" mask="url(#mask-2)"></path>
                        <path d="M191.483529,183.930959 C192.09625,182.875897 192.452623,181.653554 192.452623,180.346377 C191.14213,180.346377 189.917286,180.701848 188.858949,181.313019 C189.947233,181.942113 190.852839,182.845428 191.483529,183.930959" id="Fill-65" fill="#525353" mask="url(#mask-2)"></path>
                        <path d="M186.234788,183.930959 C186.865478,185.01649 187.771084,185.919805 188.859368,186.548899 C189.947652,185.919805 190.853258,185.01649 191.483349,183.930959 C190.853258,182.845428 189.947652,181.942113 188.859368,181.313019 C187.771084,181.942113 186.865478,182.845428 186.234788,183.930959" id="Fill-66" fill="#404F62" mask="url(#mask-2)"></path>
                        <path d="M188.859129,181.313258 C187.80139,180.702087 186.575948,180.346616 185.265455,180.346616 C185.265455,181.653793 185.621827,182.875539 186.234549,183.931198 C186.865238,182.845667 187.770844,181.942352 188.859129,181.313258" id="Fill-67" fill="#525353" mask="url(#mask-2)"></path>
                        <path d="M188.859129,186.54872 C189.916867,187.159891 191.142309,187.515362 192.452803,187.515362 C192.452803,186.208185 192.09643,184.986439 191.483708,183.93078 C190.853019,185.016311 189.947413,185.919626 188.859129,186.54872" id="Fill-68" fill="#525353" mask="url(#mask-2)"></path>
                        <path d="M188.859129,181.313258 C187.770844,181.942352 186.865238,182.845667 186.234549,183.931198 C186.865238,185.016729 187.770844,185.920044 188.859129,186.548541 C189.947413,185.920044 190.853019,185.016729 191.483708,183.931198 C190.853019,182.845667 189.947413,181.942352 188.859129,181.313258" id="Fill-69" fill="#525353" mask="url(#mask-2)"></path>
                        <path d="M35.5290377,95.2125437 C52.0683234,95.2125437 65.4763211,108.586621 65.4763211,125.084064 L65.4763211,65.3410233 L5.58175436,65.3410233 C22.12104,65.3410233 35.5290377,78.7151004 35.5290377,95.2125437" id="Fill-70" fill="#BC563A" mask="url(#mask-2)"></path>
                        <path d="M11.5864841,124.482571 C9.64649913,124.876875 7.63823431,125.084184 5.58205383,125.084184 L11.5715105,125.084184 C11.5715105,124.882252 11.5816926,124.683308 11.5864841,124.482571" id="Fill-71" fill="#66AAB7" mask="url(#mask-2)"></path>
                        <path d="M35.5290377,95.2125437 C35.5290377,97.2641197 35.3212036,99.2667064 34.9258994,101.201784 C35.1271452,101.197004 35.3265941,101.186848 35.5290377,101.186848 C48.7603465,101.186848 59.4868644,111.886229 59.4868644,125.084064 L65.4763211,125.084064 C65.4763211,108.586621 52.0683234,95.2125437 35.5290377,95.2125437" id="Fill-72" fill="#E0DED2" mask="url(#mask-2)"></path>
                        <path d="M5.58175436,119.10976 L5.58175436,125.084064 C5.58175436,123.032488 5.7895885,121.029901 6.18489264,119.094824 C5.9836469,119.099604 5.78419799,119.10976 5.58175436,119.10976" id="Fill-73" fill="#66AAB7" mask="url(#mask-2)"></path>
                        <path d="M29.539581,95.2125437 C29.539581,95.4138777 29.529399,95.6134195 29.5246074,95.8141561 C31.4645924,95.419852 33.4722583,95.2125437 35.5290377,95.2125437 C35.5290377,78.7151004 22.12104,65.3410233 5.58175436,65.3410233 L5.58175436,71.3153274 C18.8130631,71.3153274 29.539581,82.0147086 29.539581,95.2125437" id="Fill-74" fill="#E0DED2" mask="url(#mask-2)"></path>
                        <path d="M34.926139,101.202022 C35.3208442,99.2669454 35.5292773,97.2637612 35.5292773,95.2127827 C33.4724979,95.2127827 31.4642331,95.420091 29.524248,95.8137976 C29.469145,98.0440054 29.1133713,100.200132 28.4856762,102.238564 C30.5292789,101.612457 32.6902748,101.257584 34.926139,101.202022" id="Fill-75" fill="#E0DED2" mask="url(#mask-2)"></path>
                        <path d="M12.6254153,118.058163 C10.5818127,118.68427 8.42081671,119.039144 6.18495254,119.094705 C5.7896484,121.029782 5.58181425,123.032966 5.58181425,125.083945 C7.63859367,125.083945 9.64625955,124.876636 11.5862446,124.482332 C11.6419465,122.252722 11.9977202,120.096596 12.6254153,118.058163" id="Fill-76" fill="#66AAB7" mask="url(#mask-2)"></path>
                        <path d="M11.5864841,124.482571 C11.5816926,124.683308 11.5715105,124.882252 11.5715105,125.084184 L59.4871639,125.084184 C59.4871639,111.886348 48.7606459,101.186967 35.5293372,101.186967 C35.3268936,101.186967 35.1274446,101.197124 34.9261989,101.201903 C32.5399994,112.894213 23.3078509,122.103006 11.5864841,124.482571" id="Fill-77" fill="#66AAB7" mask="url(#mask-2)"></path>
                        <path d="M12.6254153,118.058163 C11.9977202,120.096596 11.6419465,122.252722 11.5862446,124.482332 C23.3082102,122.102767 32.5403587,112.893975 34.9259593,101.202261 C32.6900952,101.257225 30.5290992,101.612099 28.4854966,102.238803 C26.1609884,109.785544 20.1918959,115.740133 12.6254153,118.058163" id="Fill-78" fill="#66AAB7" mask="url(#mask-2)"></path>
                        <path d="M29.5243678,95.8140964 C29.5291594,95.6133597 29.5393415,95.4144154 29.5393415,95.2124839 C29.5393415,82.0146488 18.8134225,71.3152677 5.58151478,71.3152677 L5.58151478,119.1097 C5.78395841,119.1097 5.98340732,119.099544 6.18465307,119.094764 C8.5708526,107.402454 17.8030011,98.1936617 29.5243678,95.8140964" id="Fill-79" fill="#66AAB7" mask="url(#mask-2)"></path>
                        <path d="M6.18471296,119.094585 C8.42057714,119.039024 10.5815731,118.684151 12.6251757,118.058043 C14.9496839,110.510705 20.9187764,104.556714 28.485257,102.238684 C29.112952,100.200251 29.4687258,98.0441248 29.5244277,95.8139171 C17.803061,98.1940799 8.57031355,107.402872 6.18471296,119.094585" id="Fill-80" fill="#66AAB7" mask="url(#mask-2)"></path>
                        <path d="M28.4854367,102.238504 C20.9189561,104.556534 14.9498635,110.511123 12.6253554,118.057864 C20.191836,115.739834 26.1609285,109.785843 28.4854367,102.238504" id="Fill-81" fill="#66AAB7" mask="url(#mask-2)"></path>
                        <path d="M33.7322007,108.356013 C33.7322007,110.534841 33.1380466,112.571482 32.1162453,114.330317 C33.1380466,116.089152 33.7322007,118.125792 33.7322007,120.304621 C38.1632008,120.304621 42.0234056,117.898171 44.0951587,114.330317 C42.0234056,110.762462 38.1632008,108.356013 33.7322007,108.356013" id="Fill-82" fill="#E0DED2" mask="url(#mask-2)"></path>
                        <path d="M27.742744,118.693231 C29.5060401,119.71185 31.5478459,120.304501 33.7322007,120.304501 C33.7322007,118.125673 33.1380466,116.08963 32.1162453,114.330197 C31.0656946,116.139814 29.5563515,117.645339 27.742744,118.693231" id="Fill-83" fill="#398EB6" mask="url(#mask-2)"></path>
                        <path d="M11.39003,114.330317 C10.3688276,116.089152 9.77407455,118.125792 9.77407455,120.304621 C11.9590283,120.304621 14.0002352,119.71197 15.7635312,118.693351 C13.9499237,117.644861 12.4405807,116.139336 11.39003,114.330317" id="Fill-84" fill="#398EB6" mask="url(#mask-2)"></path>
                        <path d="M32.1165448,114.330317 C33.1377471,112.571482 33.7325002,110.534841 33.7325002,108.356013 C31.5475464,108.356013 29.5063396,108.948664 27.7430435,109.967282 C29.556651,111.015773 31.0659941,112.521297 32.1165448,114.330317" id="Fill-85" fill="#E0DED2" mask="url(#mask-2)"></path>
                        <path d="M27.742744,109.967462 C25.979448,108.948843 23.9376422,108.356192 21.7532874,108.356192 C21.7532874,110.535021 22.3474415,112.571063 23.3692428,114.330496 C24.4197935,112.520879 25.9291366,111.015355 27.742744,109.967462" id="Fill-86" fill="#398EB6" mask="url(#mask-2)"></path>
                        <path d="M27.742744,109.967462 C25.9291366,111.015355 24.4197935,112.520879 23.3692428,114.330496 C24.4197935,116.139515 25.9291366,117.64504 27.742744,118.692933 C29.5563515,117.64504 31.0656946,116.139515 32.1162453,114.330496 C31.0656946,112.520879 29.5563515,111.015355 27.742744,109.967462" id="Fill-87" fill="#398EB6" mask="url(#mask-2)"></path>
                        <path d="M20.1376314,114.330317 C21.1588338,112.571482 21.7535868,110.534841 21.7535868,108.356013 C19.5686331,108.356013 17.5274262,108.948664 15.7641302,109.967282 C17.5777377,111.015773 19.0870807,112.521297 20.1376314,114.330317" id="Fill-88" fill="#398EB6" mask="url(#mask-2)"></path>
                        <path d="M20.1376314,114.330317 C19.0870807,112.521297 17.5777377,111.015773 15.7641302,109.967282 C13.9499237,111.015773 12.4405807,112.521297 11.39003,114.330317 C12.4405807,116.139336 13.9499237,117.644861 15.7641302,118.693351 C17.5777377,117.644861 19.0870807,116.139336 20.1376314,114.330317" id="Fill-89" fill="#398EB6" mask="url(#mask-2)"></path>
                        <path d="M15.7638307,106.744623 C17.5271267,107.763242 19.5689325,108.355893 21.7532874,108.355893 C21.7532874,106.177064 21.1591333,104.141022 20.137332,102.381589 C19.0867813,104.191206 17.5774382,105.69673 15.7638307,106.744623" id="Fill-90" fill="#398EB6" mask="url(#mask-2)"></path>
                        <path d="M9.77437403,96.4074045 C11.9587289,96.4074045 14.0005347,97.0000555 15.7638307,98.0186743 C17.5271267,97.0000555 19.5689325,96.4074045 21.7532874,96.4074045 C21.7532874,91.9876143 19.3407342,88.1371754 15.7638307,86.0700662 C12.1869272,88.1371754 9.77437403,91.9876143 9.77437403,96.4074045" id="Fill-91" fill="#E0DED2" mask="url(#mask-2)"></path>
                        <path d="M15.7638307,98.0188535 C14.0005347,97.0002347 11.9587289,96.4075837 9.77437403,96.4075837 C9.77437403,98.5864124 10.3685281,100.622455 11.3903294,102.381888 C12.4408801,100.572271 13.9502232,99.0667465 15.7638307,98.0188535" id="Fill-92" fill="#398EB6" mask="url(#mask-2)"></path>
                        <path d="M20.1376314,102.381709 C21.1588338,100.622873 21.7535868,98.5862332 21.7535868,96.4074045 C19.5686331,96.4074045 17.5274262,97.0000555 15.7641302,98.0186743 C17.5777377,99.0671647 19.0870807,100.572689 20.1376314,102.381709" id="Fill-93" fill="#E0DED2" mask="url(#mask-2)"></path>
                        <path d="M15.7638307,106.744623 C17.5774382,105.69673 19.0867813,104.191206 20.137332,102.381589 C19.0867813,100.57257 17.5774382,99.0670452 15.7638307,98.0191522 C13.9502232,99.0670452 12.4408801,100.57257 11.3903294,102.381589 C12.4408801,104.191206 13.9502232,105.69673 15.7638307,106.744623" id="Fill-94" fill="#398EB6" mask="url(#mask-2)"></path>
                        <path d="M54.0946165,85.1429139 C54.6192929,87.1072651 55.6422921,88.9658711 57.1875719,90.5072415 C58.7322528,88.9664685 59.755252,87.1072651 60.2799284,85.1429139 C58.2548931,85.6811987 56.1202507,85.6811987 54.0946165,85.1429139" id="Fill-95" fill="#E0DED2" mask="url(#mask-2)"></path>
                        <path d="M57.1873323,73.6091017 C55.6426514,75.1498747 53.7787325,76.1708833 51.8099981,76.6942323 C51.2853217,78.6579861 50.2617236,80.5171895 48.7170427,82.0579625 C50.2617236,80.5171895 52.1256425,79.4961809 54.0943769,78.9728319 C54.6190533,77.0090782 55.6426514,75.1498747 57.1873323,73.6091017" id="Fill-96" fill="#66AAB7" mask="url(#mask-2)"></path>
                        <path d="M54.0944967,78.9730111 C52.1257623,79.4963602 50.2618433,80.5173687 48.7171625,82.0581418 C50.2618433,83.5989148 52.1251633,84.6193259 54.0944967,85.1426749 C53.5548466,83.1227627 53.5548466,80.9935208 54.0944967,78.9730111" id="Fill-97" fill="#66AAB7" mask="url(#mask-2)"></path>
                        <path d="M60.2800482,78.9731306 C59.7553718,77.0087794 58.7323726,75.1501734 57.1870927,73.6094004 C55.6424119,75.149576 54.6194127,77.0087794 54.0947362,78.9731306 C56.1197715,78.4348458 58.2544139,78.4348458 60.2800482,78.9731306" id="Fill-98" fill="#E0DED2" mask="url(#mask-2)"></path>
                        <path d="M60.2800482,78.9731306 C58.2544139,78.4348458 56.1197715,78.4348458 54.0947362,78.9731306 C53.5550862,80.9936403 53.5550862,83.1228822 54.0947362,85.1427944 C56.1197715,85.6810792 58.2544139,85.6810792 60.2800482,85.1427944 C60.8196982,83.1228822 60.8196982,80.9936403 60.2800482,78.9731306" id="Fill-99" fill="#E0DED2" mask="url(#mask-2)"></path>
                        <path d="M45.624207,76.6939934 C46.1488834,78.6583445 47.1718826,80.5169505 48.7171625,82.0577236 C50.2618433,80.517548 51.2848425,78.6583445 51.809519,76.6939934 C49.7844836,77.2322782 47.6498413,77.2322782 45.624207,76.6939934" id="Fill-100" fill="#66AAB7" mask="url(#mask-2)"></path>
                        <path d="M51.8098184,76.6941128 C53.7785528,76.1707638 55.6424717,75.1497552 57.1871526,73.6089822 C55.6424717,72.0682092 53.7791518,71.0477981 51.8098184,70.524449 C52.3494685,72.5443612 52.3494685,74.6736032 51.8098184,76.6941128" id="Fill-101" fill="#E0DED2" mask="url(#mask-2)"></path>
                        <path d="M45.6240873,70.5240906 C43.6553528,71.0474396 41.7914339,72.0684482 40.2467531,73.6092212 C41.7914339,75.1499942 43.6547539,76.1704054 45.6240873,76.6937544 C45.0844372,74.6738422 45.0844372,72.5446002 45.6240873,70.5240906" id="Fill-102" fill="#E0DED2" mask="url(#mask-2)"></path>
                        <path d="M51.8098184,76.6941128 C52.3494685,74.6736032 52.3494685,72.5443612 51.8098184,70.524449 C49.7841842,69.9861642 47.6495418,69.9861642 45.6239076,70.5238516 C45.0848565,72.5443612 45.0848565,74.6736032 45.6245065,76.6941128 C47.6495418,77.2323976 49.7841842,77.2323976 51.8098184,76.6941128" id="Fill-103" fill="#E0DED2" mask="url(#mask-2)"></path>
                        <polygon id="Fill-104" fill="#398EB6" mask="url(#mask-2)" points="200.239515 150.07631 220.204171 150.07631 220.204171 130.162163 200.239515 130.162163"></polygon>
                        <polygon id="Fill-105" fill="#D9AE2B" mask="url(#mask-2)" points="220.203992 130.162222 220.203992 150.07637 200.239336 150.07637"></polygon>
                        <polygon id="Fill-106" fill="#398EB6" mask="url(#mask-2)" points="200.238917 189.905203 220.203572 189.905203 220.203572 169.991056 200.238917 169.991056"></polygon>
                        <polygon id="Fill-107" fill="#D9AE2B" mask="url(#mask-2)" points="200.239096 169.990936 220.203752 169.990936 220.203752 189.905084"></polygon>
                        <polygon id="Fill-108" fill="#398EB6" mask="url(#mask-2)" points="240.168827 189.905203 260.133483 189.905203 260.133483 169.991056 240.168827 169.991056"></polygon>
                        <polygon id="Fill-109" fill="#D9AE2B" mask="url(#mask-2)" points="240.168827 189.905263 240.168827 169.991115 260.133483 169.991115"></polygon>
                        <polygon id="Fill-110" fill="#398EB6" mask="url(#mask-2)" points="240.168827 150.07631 260.133483 150.07631 260.133483 130.162163 240.168827 130.162163"></polygon>
                        <polygon id="Fill-111" fill="#D9AE2B" mask="url(#mask-2)" points="260.133663 150.076549 240.169007 150.076549 240.169007 130.162402"></polygon>
                        <polygon id="Fill-112" fill="#BC563A" mask="url(#mask-2)" points="220.204171 169.991056 240.168827 169.991056 240.168827 150.076908 220.204171 150.076908"></polygon>
                        <polygon id="Fill-113" fill="#D7E1E0" mask="url(#mask-2)" points="220.203992 150.076549 240.168648 150.076549 230.186619 140.119177"></polygon>
                        <polygon id="Fill-114" fill="#D7E1E0" mask="url(#mask-2)" points="240.168827 130.162222 220.204171 130.162222 230.1862 140.119595"></polygon>
                        <polygon id="Fill-115" fill="#525353" mask="url(#mask-2)" points="220.203992 130.162222 220.203992 150.07637 230.186619 140.119595"></polygon>
                        <polygon id="Fill-116" fill="#525353" mask="url(#mask-2)" points="230.18638 140.119416 240.169007 150.076788 240.169007 130.162043"></polygon>
                        <polygon id="Fill-117" fill="#D7E1E0" mask="url(#mask-2)" points="220.203992 189.905263 240.168648 189.905263 230.186619 179.947891"></polygon>
                        <polygon id="Fill-118" fill="#D7E1E0" mask="url(#mask-2)" points="240.168827 169.990936 220.204171 169.990936 230.1862 179.948309"></polygon>
                        <polygon id="Fill-119" fill="#525353" mask="url(#mask-2)" points="220.203992 169.990936 220.203992 189.905084 230.186619 179.948309"></polygon>
                        <polygon id="Fill-120" fill="#525353" mask="url(#mask-2)" points="230.18638 179.94807 240.169007 189.905442 240.169007 169.990697"></polygon>
                        <polygon id="Fill-121" fill="#D7E1E0" mask="url(#mask-2)" points="240.168827 150.076549 240.168827 169.990697 250.151455 160.033922"></polygon>
                        <polygon id="Fill-122" fill="#D7E1E0" mask="url(#mask-2)" points="260.133663 169.990936 260.133663 150.076788 250.151035 160.033564"></polygon>
                        <polygon id="Fill-123" fill="#525353" mask="url(#mask-2)" points="260.133663 150.076549 240.169007 150.076549 250.151035 160.033922"></polygon>
                        <polygon id="Fill-124" fill="#525353" mask="url(#mask-2)" points="250.151275 160.033743 240.168648 169.991115 260.133903 169.991115"></polygon>
                        <polygon id="Fill-125" fill="#D7E1E0" mask="url(#mask-2)" points="200.239096 150.076549 200.239096 169.990697 210.221724 160.033922"></polygon>
                        <polygon id="Fill-126" fill="#D7E1E0" mask="url(#mask-2)" points="220.203992 169.990936 220.203992 150.076788 210.221364 160.033564"></polygon>
                        <polygon id="Fill-127" fill="#525353" mask="url(#mask-2)" points="220.203992 150.076549 200.239336 150.076549 210.221364 160.033922"></polygon>
                        <polygon id="Fill-128" fill="#525353" mask="url(#mask-2)" points="210.221544 160.033743 200.238917 169.991115 220.204171 169.991115"></polygon>
                        <polygon id="Fill-129" fill="#D7E1E0" mask="url(#mask-2)" points="5.58157467 59.9640899 65.4761414 59.9640899 65.4761414 0.221049251 5.58157467 0.221049251"></polygon>
                        <path d="M46.0105869,30.0926293 C46.0105869,35.8667942 41.3178476,40.5476615 35.5290377,40.5476615 C29.7402278,40.5476615 25.0474885,35.8667942 25.0474885,30.0926293 C25.0474885,24.3184645 29.7402278,19.6375972 35.5290377,19.6375972 C41.3178476,19.6375972 46.0105869,24.3184645 46.0105869,30.0926293" id="Fill-130" fill="#A2A19C" mask="url(#mask-2)"></path>
                        <path d="M41.5184944,30.0926293 C41.5184944,33.3922375 38.8370146,36.0669334 35.5290377,36.0669334 C32.2210608,36.0669334 29.539581,33.3922375 29.539581,30.0926293 C29.539581,26.7930212 32.2210608,24.1183253 35.5290377,24.1183253 C38.8370146,24.1183253 41.5184944,26.7930212 41.5184944,30.0926293" id="Fill-131" fill="#525353" mask="url(#mask-2)"></path>
                        <path d="M41.5184944,18.1440212 C41.5184944,21.4436293 38.8370146,24.1183253 35.5290377,24.1183253 C32.2210608,24.1183253 29.539581,21.4436293 29.539581,18.1440212 C29.539581,14.8444131 32.2210608,12.1697171 35.5290377,12.1697171 C38.8370146,12.1697171 41.5184944,14.8444131 41.5184944,18.1440212" id="Fill-132" fill="#A2A19C" mask="url(#mask-2)"></path>
                        <path d="M41.5184944,42.0412375 C41.5184944,45.3408456 38.8370146,48.0155415 35.5290377,48.0155415 C32.2210608,48.0155415 29.539581,45.3408456 29.539581,42.0412375 C29.539581,38.7416293 32.2210608,36.0669334 35.5290377,36.0669334 C38.8370146,36.0669334 41.5184944,38.7416293 41.5184944,42.0412375" id="Fill-133" fill="#A2A19C" mask="url(#mask-2)"></path>
                        <path d="M22.160271,30.8930666 C25.0250281,29.2435612 28.6881798,30.2221522 30.3418688,33.0796619 C31.9961567,35.9371715 31.0144848,39.5910559 28.1497276,41.2405612 C25.2849705,42.890664 21.6218188,41.9114756 19.9681298,39.053966 C18.3138419,36.1964563 19.2955138,32.5425719 22.160271,30.8930666" id="Fill-134" fill="#A2A19C" mask="url(#mask-2)"></path>
                        <path d="M42.9083478,18.9444585 C45.7731049,17.2949531 49.4362566,18.2735441 51.0899456,21.1310537 C52.7442336,23.9885634 51.7625616,27.6424478 48.8978045,29.2919531 C46.0330474,30.9420559 42.3698957,29.9628675 40.7162067,27.1053578 C39.0619187,24.2478482 40.0435907,20.5939638 42.9083478,18.9444585" id="Fill-135" fill="#A2A19C" mask="url(#mask-2)"></path>
                        <path d="M42.9083478,41.24086 C40.0435907,39.5913546 39.0619187,35.9374702 40.7162067,33.0799606 C42.3698957,30.222451 46.0330474,29.2432625 48.8978045,30.8933653 C51.7625616,32.5428707 52.7442336,36.196755 51.0899456,39.0542647 C49.4362566,41.9117743 45.7731049,42.8903653 42.9083478,41.24086" id="Fill-136" fill="#A2A19C" mask="url(#mask-2)"></path>
                        <path d="M22.160271,29.2922518 C19.2955138,27.6427465 18.3138419,23.9888621 19.9681298,21.1313525 C21.6218188,18.2738428 25.2849705,17.2946544 28.1497276,18.9447572 C31.0144848,20.5942625 31.9961567,24.2481469 30.3418688,27.1056565 C28.6881798,29.9631662 25.0250281,30.9417572 22.160271,29.2922518" id="Fill-137" fill="#A2A19C" mask="url(#mask-2)"></path>
                        <polygon id="Fill-138" fill="#525353" mask="url(#mask-2)" points="17.5606677 59.9641497 5.58175436 59.9641497 5.58175436 48.0155415"></polygon>
                        <polygon id="Fill-139" fill="#525353" mask="url(#mask-2)" points="53.4974077 0.221108994 65.4763211 0.221108994 65.4763211 12.1697171"></polygon>
                        <polygon id="Fill-140" fill="#525353" mask="url(#mask-2)" points="5.58175436 12.1697171 5.58175436 0.221108994 17.5606677 0.221108994"></polygon>
                        <polygon id="Fill-141" fill="#525353" mask="url(#mask-2)" points="65.4763211 48.0155415 65.4763211 59.9641497 53.4974077 59.9641497"></polygon>
                        <polygon id="Fill-142" fill="#D9AE2B" mask="url(#mask-2)" points="229.587254 30.3912848 259.534538 30.3912848 259.534538 0.519764454 229.587254 0.519764454"></polygon>
                        <polygon id="Fill-143" fill="#E0DED2" mask="url(#mask-2)" points="229.587434 30.3913445 229.587434 0.519824197 259.534717 0.519824197"></polygon>
                        <polygon id="Fill-144" fill="#D9AE2B" mask="url(#mask-2)" points="229.587254 60.2628051 259.534538 60.2628051 259.534538 30.3912848 229.587254 30.3912848"></polygon>
                        <polygon id="Fill-145" fill="#E0DED2" mask="url(#mask-2)" points="229.587434 30.3913445 259.534717 30.3913445 259.534717 60.2628649"></polygon>
                        <polygon id="Fill-146" fill="#D9AE2B" mask="url(#mask-2)" points="199.639971 60.2628051 229.587254 60.2628051 229.587254 30.3912848 199.639971 30.3912848"></polygon>
                        <polygon id="Fill-147" fill="#E0DED2" mask="url(#mask-2)" points="229.587434 30.3913445 229.587434 60.2628649 199.640151 60.2628649"></polygon>
                        <polygon id="Fill-148" fill="#D9AE2B" mask="url(#mask-2)" points="199.639971 30.3912848 229.587254 30.3912848 229.587254 0.519764454 199.639971 0.519764454"></polygon>
                        <polygon id="Fill-149" fill="#E0DED2" mask="url(#mask-2)" points="229.587434 30.3913445 199.640151 30.3913445 199.640151 0.519824197"></polygon>
                        <polygon id="Fill-150" fill="#398EB6" mask="url(#mask-2)" points="70.2677067 59.9640899 130.162273 59.9640899 130.162273 0.221049251 70.2677067 0.221049251"></polygon>
                        <path d="M112.194083,51.0026936 C108.145809,51.0026936 104.717444,48.3172439 103.598015,44.6394623 C109.141856,43.3567792 113.512961,38.9967321 114.798898,33.4669163 C118.486007,34.5835137 121.178268,38.0032054 121.178268,42.0412375 C121.178268,46.9825844 117.147963,51.0026936 112.194083,51.0026936 M88.2362564,51.0026936 C83.2823768,51.0026936 79.2520714,46.9825844 79.2520714,42.0412375 C79.2520714,38.0032054 81.9443322,34.5835137 85.6314417,33.4669163 C86.9173781,38.9967321 91.2884836,43.3567792 96.8323247,44.6394623 C95.7128952,48.3172439 92.2845302,51.0026936 88.2362564,51.0026936 M79.2520714,18.1440212 C79.2520714,13.2026743 83.2823768,9.1825651 88.2362564,9.1825651 C92.2845302,9.1825651 95.7128952,11.8680148 96.8323247,15.5457964 C91.2884836,16.8284794 86.9173781,21.1885266 85.6314417,26.7183424 C81.9443322,25.601745 79.2520714,22.1820533 79.2520714,18.1440212 M112.194083,9.1825651 C117.147963,9.1825651 121.178268,13.2026743 121.178268,18.1440212 C121.178268,22.1820533 118.486007,25.601745 114.798898,26.7183424 C113.512961,21.1885266 109.141856,16.8284794 103.598015,15.5457964 C104.717444,11.8680148 108.145809,9.1825651 112.194083,9.1825651 M102.819984,38.6669505 C101.994637,38.9172739 101.120776,39.0540854 100.21517,39.0540854 C99.3095639,39.0540854 98.4357022,38.9172739 97.6103551,38.6669505 C97.1629427,38.5313338 96.7346965,38.3556893 96.3196272,38.1555501 C94.4940408,37.2743403 93.0152439,35.7992846 92.1317991,33.9783167 C91.9311523,33.5648949 91.7550622,33.1371347 91.6191016,32.6908542 C91.3687423,31.8675951 91.2309848,30.9959441 91.2309848,30.0926293 C91.2309848,29.1893146 91.3687423,28.3176636 91.6191016,27.4944045 C91.7550622,27.048124 91.9311523,26.6203638 92.1317991,26.206942 C93.0152439,24.3859741 94.4940408,22.9109184 96.3196272,22.0297086 C96.7346965,21.8295694 97.1629427,21.6539248 97.6103551,21.5183081 C98.4357022,21.2679848 99.3095639,21.1311732 100.21517,21.1311732 C101.120776,21.1311732 101.994637,21.2679848 102.819984,21.5183081 C103.267397,21.6539248 103.695643,21.8295694 104.110712,22.0297086 C105.936299,22.9109184 107.415096,24.3859741 108.298541,26.206942 C108.499187,26.6203638 108.675277,27.048124 108.811238,27.4944045 C109.061597,28.3176636 109.199355,29.1893146 109.199355,30.0926293 C109.199355,30.9959441 109.061597,31.8675951 108.811238,32.6908542 C108.675277,33.1371347 108.499187,33.5648949 108.298541,33.9783167 C107.415096,35.7992846 105.936299,37.2743403 104.110712,38.1555501 C103.695643,38.3556893 103.267397,38.5313338 102.819984,38.6669505 M121.168086,30.0926293 C124.808478,27.3653595 127.167725,23.0244302 127.167725,18.1440212 C127.167725,9.90844304 120.450549,3.20826103 112.194083,3.20826103 C107.301296,3.20826103 102.949357,5.5615394 100.21517,9.19272141 C97.4809828,5.5615394 93.1290436,3.20826103 88.2362564,3.20826103 C79.9797904,3.20826103 73.2626148,9.90844304 73.2626148,18.1440212 C73.2626148,23.0244302 75.6218617,27.3653595 79.2622535,30.0926293 C75.6218617,32.8198991 73.2626148,37.1608285 73.2626148,42.0412375 C73.2626148,50.2768156 79.9797904,56.9769976 88.2362564,56.9769976 C93.1290436,56.9769976 97.4809828,54.6237193 100.21517,50.9925373 C102.949357,54.6237193 107.301296,56.9769976 112.194083,56.9769976 C120.450549,56.9769976 127.167725,50.2768156 127.167725,42.0412375 C127.167725,37.1608285 124.808478,32.8198991 121.168086,30.0926293" id="Fill-151" fill="#D7E1E0" mask="url(#mask-2)"></path>
                        <polygon id="Fill-152" fill="#398EB6" mask="url(#mask-2)" points="134.953839 125.084004 194.848406 125.084004 194.848406 65.3409636 134.953839 65.3409636"></polygon>
                        <path d="M176.880215,116.122608 C172.831941,116.122608 169.403576,113.437158 168.284147,109.759377 C173.827988,108.476694 178.199094,104.116646 179.48503,98.5868306 C183.172139,99.7034281 185.8644,103.12312 185.8644,107.161152 C185.8644,112.102499 181.834095,116.122608 176.880215,116.122608 M152.922388,116.122608 C147.968509,116.122608 143.938203,112.102499 143.938203,107.161152 C143.938203,103.12312 146.630464,99.7034281 150.317574,98.5868306 C151.60351,104.116646 155.974616,108.476694 161.518457,109.759377 C160.399027,113.437158 156.970662,116.122608 152.922388,116.122608 M143.938203,83.2639355 C143.938203,78.3225887 147.968509,74.3024794 152.922388,74.3024794 C156.970662,74.3024794 160.399027,76.9879291 161.518457,80.6657107 C155.974616,81.9483938 151.60351,86.3084409 150.317574,91.8382567 C146.630464,90.7216593 143.938203,87.3019677 143.938203,83.2639355 M176.880215,74.3024794 C181.834095,74.3024794 185.8644,78.3225887 185.8644,83.2639355 C185.8644,87.3019677 183.172139,90.7216593 179.48503,91.8382567 C178.199094,86.3084409 173.827988,81.9483938 168.284147,80.6657107 C169.403576,76.9879291 172.831941,74.3024794 176.880215,74.3024794 M167.506117,103.786865 C166.680769,104.037188 165.806908,104.174 164.901302,104.174 C163.995696,104.174 163.121834,104.037188 162.296487,103.786865 C161.849075,103.651248 161.420829,103.475604 161.005759,103.275464 C159.180173,102.394255 157.701376,100.919199 156.817931,99.098231 C156.617284,98.6848092 156.441194,98.257049 156.305234,97.8107685 C156.054874,96.9875094 155.917117,96.1158585 155.917117,95.2125437 C155.917117,94.3092289 156.054874,93.4375779 156.305234,92.6143188 C156.441194,92.1680383 156.617284,91.7402782 156.817931,91.3268563 C157.701376,89.5058884 159.180173,88.0308328 161.005759,87.1496229 C161.420829,86.9494837 161.849075,86.7738392 162.296487,86.6382225 C163.121834,86.3878991 163.995696,86.2510876 164.901302,86.2510876 C165.806908,86.2510876 166.680769,86.3878991 167.506117,86.6382225 C167.953529,86.7738392 168.381775,86.9494837 168.796844,87.1496229 C170.622431,88.0308328 172.101228,89.5058884 172.984673,91.3268563 C173.185319,91.7402782 173.361409,92.1680383 173.49737,92.6143188 C173.747729,93.4375779 173.885487,94.3092289 173.885487,95.2125437 C173.885487,96.1158585 173.747729,96.9875094 173.49737,97.8107685 C173.361409,98.257049 173.185319,98.6848092 172.984673,99.098231 C172.101228,100.919199 170.622431,102.394255 168.796844,103.275464 C168.381775,103.475604 167.953529,103.651248 167.506117,103.786865 M185.854218,95.2125437 C189.49461,92.4852739 191.853857,88.1443445 191.853857,83.2639355 C191.853857,75.0283574 185.136681,68.3281754 176.880215,68.3281754 C171.987428,68.3281754 167.635489,70.6814537 164.901302,74.3126358 C162.167115,70.6814537 157.815176,68.3281754 152.922388,68.3281754 C144.665922,68.3281754 137.948747,75.0283574 137.948747,83.2639355 C137.948747,88.1443445 140.307994,92.4852739 143.948386,95.2125437 C140.307994,97.9398135 137.948747,102.280743 137.948747,107.161152 C137.948747,115.39673 144.665922,122.096912 152.922388,122.096912 C157.815176,122.096912 162.167115,119.743634 164.901302,116.112452 C167.635489,119.743634 171.987428,122.096912 176.880215,122.096912 C185.136681,122.096912 191.853857,115.39673 191.853857,107.161152 C191.853857,102.280743 189.49461,97.9398135 185.854218,95.2125437" id="Fill-153" fill="#D7E1E0" mask="url(#mask-2)"></path>
                        <polygon id="Fill-154" fill="#398EB6" mask="url(#mask-2)" points="70.2677067 189.905203 130.162273 189.905203 130.162273 130.162163 70.2677067 130.162163"></polygon>
                        <path d="M112.194083,180.943807 C108.145809,180.943807 104.717444,178.258357 103.598015,174.580576 C109.141856,173.297893 113.512961,168.937846 114.798898,163.40803 C118.486007,164.524627 121.178268,167.944319 121.178268,171.982351 C121.178268,176.923698 117.147963,180.943807 112.194083,180.943807 M88.2362564,180.943807 C83.2823768,180.943807 79.2520714,176.923698 79.2520714,171.982351 C79.2520714,167.944319 81.9443322,164.524627 85.6314417,163.40803 C86.9173781,168.937846 91.2884836,173.297893 96.8323247,174.580576 C95.7128952,178.258357 92.2845302,180.943807 88.2362564,180.943807 M79.2520714,148.085135 C79.2520714,143.143788 83.2823768,139.123679 88.2362564,139.123679 C92.2845302,139.123679 95.7128952,141.809128 96.8323247,145.48691 C91.2884836,146.769593 86.9173781,151.12964 85.6314417,156.659456 C81.9443322,155.542858 79.2520714,152.123167 79.2520714,148.085135 M112.194083,139.123679 C117.147963,139.123679 121.178268,143.143788 121.178268,148.085135 C121.178268,152.123167 118.486007,155.542858 114.798898,156.659456 C113.512961,151.12964 109.141856,146.769593 103.598015,145.48691 C104.717444,141.809128 108.145809,139.123679 112.194083,139.123679 M102.819984,168.608064 C101.994637,168.858387 101.120776,168.995199 100.21517,168.995199 C99.3095639,168.995199 98.4357022,168.858387 97.6103551,168.608064 C97.1629427,168.472447 96.7346965,168.296803 96.3196272,168.096664 C94.4940408,167.215454 93.0152439,165.740398 92.1317991,163.91943 C91.9311523,163.506008 91.7550622,163.078248 91.6191016,162.631968 C91.3687423,161.808709 91.2309848,160.937058 91.2309848,160.033743 C91.2309848,159.130428 91.3687423,158.258777 91.6191016,157.435518 C91.7550622,156.989237 91.9311523,156.561477 92.1317991,156.148055 C93.0152439,154.327088 94.4940408,152.852032 96.3196272,151.970822 C96.7346965,151.770683 97.1629427,151.595038 97.6103551,151.459422 C98.4357022,151.209098 99.3095639,151.072287 100.21517,151.072287 C101.120776,151.072287 101.994637,151.209098 102.819984,151.459422 C103.267397,151.595038 103.695643,151.770683 104.110712,151.970822 C105.936299,152.852032 107.415096,154.327088 108.298541,156.148055 C108.499187,156.561477 108.675277,156.989237 108.811238,157.435518 C109.061597,158.258777 109.199355,159.130428 109.199355,160.033743 C109.199355,160.937058 109.061597,161.808709 108.811238,162.631968 C108.675277,163.078248 108.499187,163.506008 108.298541,163.91943 C107.415096,165.740398 105.936299,167.215454 104.110712,168.096664 C103.695643,168.296803 103.267397,168.472447 102.819984,168.608064 M121.168086,160.033743 C124.808478,157.306473 127.167725,152.965544 127.167725,148.085135 C127.167725,139.849557 120.450549,133.149375 112.194083,133.149375 C107.301296,133.149375 102.949357,135.502653 100.21517,139.133835 C97.4809828,135.502653 93.1290436,133.149375 88.2362564,133.149375 C79.9797904,133.149375 73.2626148,139.849557 73.2626148,148.085135 C73.2626148,152.965544 75.6218617,157.306473 79.2622535,160.033743 C75.6218617,162.761013 73.2626148,167.101942 73.2626148,171.982351 C73.2626148,180.217929 79.9797904,186.918111 88.2362564,186.918111 C93.1290436,186.918111 97.4809828,184.564833 100.21517,180.933651 C102.949357,184.564833 107.301296,186.918111 112.194083,186.918111 C120.450549,186.918111 127.167725,180.217929 127.167725,171.982351 C127.167725,167.101942 124.808478,162.761013 121.168086,160.033743" id="Fill-155" fill="#D7E1E0" mask="url(#mask-2)"></path>
                        <path d="M19.9813066,218.825794 C19.9813066,220.751312 19.2062709,222.576462 17.7933581,223.992969 C17.5226347,224.079597 17.2854522,224.24628 17.1135548,224.473901 C15.9372255,225.373034 14.4859801,225.866511 13.0107769,225.866511 C12.1686593,225.866511 11.4056026,225.747622 10.6167911,225.491922 C9.57702143,224.95304 8.95831056,224.047336 8.95831056,223.058588 C8.95831056,222.366764 9.18171729,221.752008 9.58121405,221.294376 C10.0933126,222.054308 10.9629817,222.544201 11.9500442,222.544201 C13.494725,222.544201 14.7051942,221.297961 14.7051942,219.707601 C14.7051942,218.577263 13.9858605,217.563423 12.9011699,217.142832 C12.5945097,216.959421 12.2573033,216.959421 12.0386881,216.959421 L11.5960673,216.959421 C10.6856699,216.959421 9.78605347,217.173899 8.95831056,217.580151 L8.95831056,206.934539 L13.0107769,206.934539 C16.8542113,206.934539 19.9813066,210.093154 19.9813066,213.975256 L19.9813066,218.825794 Z M14.4254866,245.708967 C12.889191,245.708967 11.6901017,245.483139 10.6239785,244.987271 C9.61235922,244.554732 8.95831056,243.598246 8.95831056,242.54856 C8.95831056,241.097402 10.1418272,239.916879 11.5960673,239.916879 C12.5627656,239.916879 13.3791285,239.143207 13.3791285,238.227346 C13.3791285,237.246366 12.5795361,236.448796 11.5960673,236.448796 C10.6856699,236.448796 9.78605347,236.663273 8.95831056,237.069526 L8.95831056,228.397226 C9.08289125,228.458762 9.21166457,228.518505 9.34403157,228.574066 C10.3796086,228.950447 11.6254156,229.334595 13.0107769,229.334595 C15.0028702,229.334595 16.9925677,228.701318 18.6720114,227.542303 C22.0021493,229.285605 24.0487466,232.557134 24.0487466,236.198473 C24.0487466,241.531734 19.8213881,245.708967 14.4254866,245.708967 L14.4254866,245.708967 Z M21.2846124,225.117931 C22.6759632,223.301145 23.4581862,221.061976 23.4581862,218.825794 L23.4581862,213.975256 C23.4581862,208.278757 18.6738082,203.466455 13.0107769,203.466455 L2.66698527,203.466455 C1.72843741,203.466455 0.972567974,204.39068 0.972567974,205.155989 C0.972567974,206.1531 1.71705744,206.934539 2.66698527,206.934539 L5.4820299,206.934539 L5.4820299,242.371721 C5.4820299,243.69025 4.55725779,245.091822 2.84367424,245.091822 L1.6942975,245.091822 C0.86116408,245.091822 -0.000119789133,245.723306 -0.000119789133,246.781355 C-0.000119789133,247.519181 0.821633666,248.471485 1.6942975,248.471485 L3.02036321,248.471485 C4.62493865,248.471485 6.13667752,247.783246 7.23753965,246.587787 C7.65859846,246.979702 8.17249384,247.374603 8.79958995,247.79161 L9.64530124,248.21937 C10.9665754,248.796488 12.5753434,249.088631 14.4254866,249.088631 C21.7212438,249.088631 27.4363833,243.426783 27.4363833,236.198473 C27.4363833,231.71416 25.1052868,227.561421 21.2846124,225.117931 L21.2846124,225.117931 Z" id="Fill-156" fill="#525353" mask="url(#mask-2)"></path>
                        <path d="M50.8963664,223.954734 C51.4138554,223.954734 51.9193656,223.794622 52.3607885,223.507258 C52.4344589,223.779089 52.4733903,224.07422 52.4733903,224.381299 C52.4733903,225.50865 51.9013972,226.425706 50.9035537,226.904248 L49.9697974,227.243588 L49.1612208,223.436164 C49.643971,223.763556 50.2417188,223.954734 50.8963664,223.954734 L50.8963664,223.954734 Z M46.8427021,228.38468 L39.932067,230.804871 L43.5760524,213.488948 L46.8427021,228.38468 Z M57.4386499,245.797387 L53.9222399,245.797387 L50.7041048,230.711074 L52.0649094,230.258222 L52.1817038,230.20983 C54.5062119,229.050815 55.9502699,226.81762 55.9502699,224.381299 C55.9502699,221.77471 54.3301219,219.41725 51.9187666,218.515727 L51.8307216,218.490038 L51.7109325,218.369954 L51.3383883,218.369954 L50.8268887,218.372942 C49.7380055,218.457179 48.861149,218.972762 48.3772009,219.742252 L45.6394203,206.846119 L49.2163238,206.846119 C50.2495051,206.846119 50.9987861,206.098136 50.9987861,205.068166 C50.9987861,204.252076 50.283046,203.378633 49.2163238,203.378633 L37.7225564,203.378633 C36.6624226,203.378633 36.0287381,204.237141 36.0287381,205.068166 C36.0287381,206.115462 36.7253119,206.846119 37.7225564,206.846119 L41.5617982,206.846119 L35.5178374,234.866203 L33.1933293,245.797387 L29.8542072,245.797387 C28.9156593,245.797387 28.1597899,246.721014 28.1597899,247.48692 C28.1597899,248.484031 28.9042794,249.264873 29.8542072,249.264873 L41.4360196,249.264873 C42.3859474,249.264873 43.1304369,248.484031 43.1304369,247.48692 C43.1304369,246.721014 42.3745674,245.797387 41.4360196,245.797387 L36.7121351,245.797387 L38.598215,237.01755 L38.8503711,235.928434 C39.1282819,235.21092 39.7206392,234.656505 40.4962738,234.398415 L47.5800042,231.913702 L50.5795241,245.797387 L45.8568375,245.797387 C44.9182897,245.797387 44.1624202,246.721014 44.1624202,247.48692 C44.1624202,248.484031 44.9069097,249.264873 45.8568375,249.264873 L57.4386499,249.264873 C58.3885777,249.264873 59.1330672,248.484031 59.1330672,247.48692 C59.1330672,246.721014 58.3771978,245.797387 57.4386499,245.797387 L57.4386499,245.797387 Z" id="Fill-157" fill="#525353" mask="url(#mask-2)"></path>
                        <path d="M71.3602435,206.846299 L73.8213113,206.846299 C79.2735137,206.846299 83.7093053,211.270868 83.7093053,216.709277 C83.7093053,220.669046 81.2111029,224.2602 77.5407639,225.716735 L76.9412193,224.106063 C75.8625181,221.684678 73.8117281,219.999326 71.3602435,219.474185 L71.3602435,206.846299 Z M71.3602435,223.100588 C72.3544933,223.543284 73.2115846,224.392232 73.7955566,225.541091 L74.1824755,226.526851 C73.1588774,226.760446 72.2023611,227.188206 71.3602435,227.783247 L71.3602435,223.100588 Z M89.3819197,245.620727 L86.9064773,245.620727 C85.7978288,245.620727 84.7742307,244.971917 84.2878868,243.965845 L78.7787846,228.978705 C83.7721946,227.000016 87.1861849,222.083164 87.1861849,216.709277 C87.1861849,209.483356 81.0655591,203.378215 73.8213113,203.378215 L64.5382524,203.378215 C63.5050711,203.378215 62.7557901,204.1256 62.7557901,205.156168 C62.7557901,206.103693 63.5386121,206.846299 64.5382524,206.846299 L67.9720079,206.846299 L67.9720079,219.392337 C64.2387795,220.203648 61.6058144,223.410654 61.6058144,227.292159 C61.6058144,228.755864 62.8935476,230.039742 64.3609645,230.039742 C65.9290042,230.039742 67.2047585,228.807243 67.2047585,227.292159 C67.2047585,226.198862 66.6687021,225.294352 65.8122098,224.81581 C66.3308968,224.018241 67.0873651,223.405277 67.9720079,223.062949 L67.9720079,245.796969 L64.7149413,245.796969 C63.6649896,245.796969 62.932479,246.49178 62.932479,247.486502 C62.932479,248.328281 63.6643906,249.265052 64.7149413,249.265052 L75.147377,249.265052 C76.1937351,249.265052 76.8417943,248.342022 76.8417943,247.486502 C76.8417943,246.460714 76.1769646,245.796969 75.147377,245.796969 L71.3602435,245.796969 L71.3602435,234.258795 C71.3602435,232.080564 73.0756239,230.146682 75.2474009,229.858123 L75.3462269,229.847369 L81.0931106,245.248528 L81.1925356,245.347701 C82.1652234,247.626898 84.318433,249.08881 86.7297883,249.08881 L89.3819197,249.08881 C90.415101,249.08881 91.164382,248.340827 91.164382,247.31026 C91.164382,246.363333 90.38156,245.620727 89.3819197,245.620727 L89.3819197,245.620727 Z" id="Fill-158" fill="#525353" mask="url(#mask-2)"></path>
                        <path d="M108.174319,213.181749 C108.174319,211.471903 106.898565,210.081085 105.330525,210.081085 C103.988288,210.081085 102.48733,211.406784 102.48733,213.181749 C102.48733,216.642066 105.349092,219.457158 108.867299,219.457158 C112.395089,219.457158 115.158625,216.700614 115.158625,213.181749 C115.158625,207.091544 110.375444,202.319867 104.269792,202.319867 C98.2054675,202.319867 93.4863746,206.977434 93.2923162,213.181749 L93.2923162,239.638357 C93.2923162,245.675989 98.2168475,250.587464 104.269792,250.587464 C110.273624,250.587464 115.158625,245.675989 115.158625,239.638357 L115.158625,233.994432 C115.158625,232.963865 114.409344,232.215882 113.376162,232.215882 C112.558003,232.215882 111.682344,232.931006 111.682344,233.994432 L111.682344,239.638357 C111.682344,243.714625 108.356998,247.031559 104.269792,247.031559 C100.182587,247.031559 96.8572408,243.714625 96.8572408,239.638357 L96.8566418,213.2164 C97.0219508,208.931032 100.208941,205.700128 104.269792,205.700128 C108.356998,205.700128 111.682344,209.056492 111.682344,213.181749 C111.682344,214.703404 110.393413,215.989075 108.867299,215.989075 C108.215646,215.989075 107.568186,215.757869 107.030333,215.355201 C107.714928,214.836034 108.174319,214.028906 108.174319,213.181749" id="Fill-159" fill="#525353" mask="url(#mask-2)"></path>
                        <path d="M141.305538,203.378394 L119.467979,203.378394 C118.683959,203.378394 117.773561,204.155054 117.773561,205.156347 C117.773561,206.092521 118.70013,206.846478 119.467979,206.846478 L121.575669,206.846478 L121.575669,231.268238 C119.840523,232.366315 118.746249,234.379655 118.746249,236.551315 C118.746249,237.546037 119.479359,238.240848 120.528712,238.240848 C120.933599,238.240848 121.292966,238.120167 121.575669,237.909274 L121.575669,245.797148 L119.467979,245.797148 C118.70013,245.797148 117.773561,246.551105 117.773561,247.486681 C117.773561,248.488572 118.683959,249.265231 119.467979,249.265231 L141.305538,249.265231 C142.338719,249.265231 143.088599,248.517249 143.088599,247.486681 L143.088599,240.343803 C143.088599,239.396279 142.305178,238.653673 141.305538,238.653673 C140.538288,238.653673 139.611719,239.40763 139.611719,240.343803 L139.611719,245.797148 L125.051949,245.797148 L125.051949,233.678272 L133.268885,231.055553 L133.395861,231.003576 C133.557577,230.922923 133.794759,230.805229 133.999599,230.591349 C136.062367,229.720893 137.42976,227.614354 137.42976,225.263465 L137.42976,225.087223 C137.42976,223.622921 136.142626,222.338446 134.67461,222.338446 C133.058056,222.338446 131.742771,223.571542 131.742771,225.087223 C131.742771,226.05267 132.161434,226.870553 132.849024,227.378369 C132.653169,227.502634 132.435152,227.599418 132.191382,227.672902 L125.051949,229.945527 L125.051949,206.846478 L139.611719,206.846478 L139.611719,212.564484 C139.611719,213.39551 140.513732,214.342437 141.305538,214.342437 C142.356089,214.342437 143.088599,213.405069 143.088599,212.564484 L143.088599,205.156347 C143.088599,204.315165 142.356089,203.378394 141.305538,203.378394" id="Fill-160" fill="#525353" mask="url(#mask-2)"></path>
                        <path d="M166.75989,227.718426 C165.139143,227.718426 163.637586,228.271049 162.530735,229.274135 L162.236652,229.540589 L162.236652,229.683375 C161.920409,230.070509 161.529298,230.699006 161.529298,231.436833 C161.529298,233.00449 163.074577,234.096593 164.461137,234.096593 C165.954308,234.096593 167.216287,232.878432 167.216287,231.436833 C167.216287,231.337062 167.216287,231.234901 167.213292,231.130948 C168.568706,231.327503 169.574935,232.398696 169.574935,233.729771 L169.574935,245.797267 L155.015165,245.797267 L155.015165,206.846 L158.449519,206.846 C159.482101,206.846 160.231981,206.098614 160.231981,205.068047 C160.231981,204.073325 159.498872,203.378514 158.449519,203.378514 L148.016484,203.378514 C146.967132,203.378514 146.234022,204.073325 146.234022,205.068047 C146.234022,206.098614 146.983303,206.846 148.016484,206.846 L151.538285,206.846 L151.538285,245.797267 L149.431194,245.797267 C148.449522,245.797267 147.736777,246.507612 147.736777,247.486801 C147.736777,248.32619 148.461501,249.264754 149.431194,249.264754 L171.268753,249.264754 C172.315111,249.264754 172.96317,248.342321 172.96317,247.486801 L172.96317,233.553529 L172.962571,233.346818 C172.858954,230.243167 170.076252,227.718426 166.75989,227.718426" id="Fill-161" fill="#525353" mask="url(#mask-2)"></path>
                        <path d="M187.138058,246.943557 C183.002338,246.943557 179.637462,243.666651 179.637462,239.638178 L179.637462,213.09315 C179.637462,209.065275 183.002338,205.787771 187.138058,205.787771 C191.155786,205.787771 194.550011,209.133382 194.550011,213.09315 C194.550011,214.738474 193.247903,216.077315 191.646921,216.077315 C191.043783,216.077315 190.443639,215.841928 189.930343,215.422531 C190.61913,214.881857 191.042585,214.043065 191.042585,213.09315 C191.042585,211.552377 189.793783,210.34497 188.198791,210.34497 C186.65411,210.34497 185.443641,211.552377 185.443641,213.09315 C185.443641,216.661602 188.168844,219.456979 191.646921,219.456979 C192.759163,219.456979 193.721669,219.255645 194.550011,218.847003 L194.550011,239.638178 C194.550011,243.597947 191.155786,246.943557 187.138058,246.943557 M187.138058,202.320285 C181.085113,202.320285 176.160582,207.152302 176.160582,213.09315 L176.160582,239.638178 C176.160582,245.470891 181.290552,250.587883 187.138058,250.587883 C193.14189,250.587883 198.02689,245.67581 198.02689,239.638178 L198.026291,212.976651 C197.833431,207.001152 193.05085,202.320285 187.138058,202.320285" id="Fill-162" fill="#525353" mask="url(#mask-2)"></path>
                        <path d="M230.221478,206.846299 C231.171406,206.846299 231.915895,206.06486 231.915895,205.067748 C231.915895,204.30244 231.160026,203.378215 230.221478,203.378215 L219.700398,203.378215 C218.76185,203.378215 218.005981,204.30244 218.005981,205.067748 C218.005981,206.06486 218.75047,206.846299 219.700398,206.846299 L223.134154,206.846299 L223.134154,226.025009 C221.78413,224.334281 220.181951,222.865797 218.616307,221.43077 C218.29647,221.138029 217.976633,220.845288 217.633437,220.526857 C213.767242,217.210521 209.407517,213.470009 208.886434,206.846299 L212.273472,206.846299 C213.2234,206.846299 213.967889,206.06486 213.967889,205.067748 C213.967889,204.30244 213.21202,203.378215 212.273472,203.378215 L201.752392,203.378215 C200.813844,203.378215 200.058574,204.30244 200.058574,205.067748 C200.058574,206.06486 200.802465,206.846299 201.752392,206.846299 L205.359243,206.846299 L205.19034,245.796969 L201.752392,245.796969 C200.818636,245.796969 200.058574,246.555108 200.058574,247.486502 C200.058574,248.483613 200.802465,249.265052 201.752392,249.265052 L212.273472,249.265052 C213.2234,249.265052 213.967889,248.483613 213.967889,247.486502 C213.967889,246.555108 213.207827,245.796969 212.273472,245.796969 L208.667819,245.796969 L208.822347,216.402795 C210.616189,218.98489 212.913146,221.105767 215.307731,223.20454 C219.332646,226.706678 223.134154,230.01465 223.134154,235.581506 C223.134154,236.958583 222.10217,238.10087 220.768318,238.277112 C220.77311,238.203628 220.775506,238.128352 220.775506,238.050686 C220.775506,236.433442 219.590791,235.214087 218.020356,235.214087 C216.372656,235.214087 215.177161,236.407155 215.177161,238.050686 C215.177161,239.041823 215.676082,239.94454 216.457107,240.386639 C217.606484,241.316241 218.900207,241.769093 220.407753,241.769093 C221.349895,241.769093 222.271672,241.537887 223.134154,241.091009 L223.134154,245.796969 L219.700398,245.796969 C218.766642,245.796969 218.005981,246.555108 218.005981,247.486502 C218.005981,248.483613 218.75047,249.265052 219.700398,249.265052 L230.221478,249.265052 C231.171406,249.265052 231.915895,248.483613 231.915895,247.486502 C231.915895,246.555108 231.155833,245.796969 230.221478,245.796969 L226.611033,245.796969 L226.611033,206.846299 L230.221478,206.846299 Z" id="Fill-163" fill="#525353" mask="url(#mask-2)"></path>
                        <path d="M257.849883,223.954734 C258.367372,223.954734 258.872882,223.794622 259.314305,223.507258 C259.387976,223.779089 259.426907,224.074817 259.426907,224.381299 C259.426907,225.50865 258.854914,226.425706 257.85707,226.904248 L256.923314,227.243588 L256.114738,223.436164 C256.597488,223.763556 257.195235,223.954734 257.849883,223.954734 L257.849883,223.954734 Z M253.796219,228.38468 L246.885584,230.804871 L250.529569,213.488948 L253.796219,228.38468 Z M264.392167,245.797387 L260.875757,245.797387 L257.657622,230.711074 L259.018426,230.258222 L259.135221,230.20983 C261.459729,229.050815 262.903787,226.81762 262.903787,224.381299 C262.903787,221.77471 261.283639,219.41725 258.872283,218.515727 L258.784238,218.490038 L258.664449,218.369954 L258.291905,218.369954 L257.780405,218.372942 C256.691522,218.457179 255.814666,218.972762 255.330718,219.742849 L252.592937,206.846119 L256.169841,206.846119 C257.203022,206.846119 257.952303,206.098136 257.952303,205.068166 C257.952303,204.252076 257.236563,203.378633 256.169841,203.378633 L244.676073,203.378633 C243.615939,203.378633 242.982255,204.237141 242.982255,205.068166 C242.982255,206.115462 243.678829,206.846119 244.676073,206.846119 L248.515315,206.846119 L242.471354,234.866203 L240.146846,245.797387 L236.807724,245.797387 C235.869176,245.797387 235.113906,246.721014 235.113906,247.48692 C235.113906,248.484031 235.857796,249.264873 236.807724,249.264873 L248.389536,249.264873 C249.339464,249.264873 250.083954,248.484031 250.083954,247.48692 C250.083954,246.721014 249.328084,245.797387 248.389536,245.797387 L243.665652,245.797387 L245.551732,237.01755 L245.803888,235.928434 C246.081799,235.21092 246.674156,234.656505 247.449791,234.398415 L254.533521,231.913702 L257.533041,245.797387 L252.810354,245.797387 C251.871806,245.797387 251.115937,246.721014 251.115937,247.48692 C251.115937,248.484031 251.860426,249.264873 252.810354,249.264873 L264.392167,249.264873 C265.342094,249.264873 266.086584,248.484031 266.086584,247.48692 C266.086584,246.721014 265.330714,245.797387 264.392167,245.797387 L264.392167,245.797387 Z" id="Fill-164" fill="#525353" mask="url(#mask-2)"></path>
                        <path d="M187.82427,230.387267 C187.82427,231.807957 186.669503,232.959205 185.245809,232.959205 C183.821516,232.959205 182.666749,231.807957 182.666749,230.387267 C182.666749,228.966578 183.821516,227.815329 185.245809,227.815329 C186.669503,227.815329 187.82427,228.966578 187.82427,230.387267" id="Fill-165" fill="#525353" mask="url(#mask-2)"></path>
                        <path d="M187.82427,240.676094 C187.82427,242.096784 186.669503,243.248032 185.245809,243.248032 C183.821516,243.248032 182.666749,242.096784 182.666749,240.676094 C182.666749,239.255404 183.821516,238.104156 185.245809,238.104156 C186.669503,238.104156 187.82427,239.255404 187.82427,240.676094" id="Fill-166" fill="#525353" mask="url(#mask-2)"></path>
                        <path d="M192.61332,235.531621 C192.61332,236.95231 191.458553,238.103559 190.034859,238.103559 C188.610566,238.103559 187.455799,236.95231 187.455799,235.531621 C187.455799,234.110931 188.610566,232.959683 190.034859,232.959683 C191.458553,232.959683 192.61332,234.110931 192.61332,235.531621" id="Fill-167" fill="#525353" mask="url(#mask-2)"></path>
                        <path d="M12.4565126,270.163407 C12.8685872,270.037946 13.1938147,269.859912 13.4309972,269.629901 C13.6687787,269.399891 13.8328898,269.125073 13.9239295,268.804253 C14.0149692,268.482835 14.0604891,268.120792 14.0604891,267.716332 C14.0604891,267.298131 14.0113756,266.932503 13.9137474,266.618255 C13.8155203,266.305201 13.6442219,266.043527 13.399852,265.834426 C13.1554822,265.625325 12.826661,265.465214 12.4145864,265.353495 C12.0025118,265.242373 11.482028,265.186214 10.8525361,265.186214 L8.21118573,265.186214 L8.21118573,270.351 L10.8734992,270.351 C11.5167669,270.351 12.044438,270.288867 12.4565126,270.163407 L12.4565126,270.163407 Z M10.8944623,263.095208 C12.0264696,263.095208 12.959627,263.220668 13.6933354,263.471589 C14.4276428,263.72251 15.0038285,264.056473 15.4230905,264.475272 C15.8423525,264.893473 16.1358359,265.377989 16.3035406,265.928223 C16.4712454,266.479054 16.5550978,267.054379 16.5550978,267.653602 C16.5550978,268.295242 16.4712454,268.908206 16.3035406,269.494285 C16.1358359,270.079169 15.8387588,270.592362 15.4123095,271.030876 C14.9864591,271.470585 14.4096744,271.818887 13.6825544,272.076379 C12.9560333,272.335066 12.0408443,272.464111 10.9363885,272.464111 L8.21118573,272.464111 L8.21118573,278.026188 L5.71597808,278.026188 L5.71597808,263.095208 L10.8944623,263.095208 Z" id="Fill-168" fill="#398EB6" mask="url(#mask-2)"></path>
                        <polygon id="Fill-169" fill="#398EB6" mask="url(#mask-2)" points="21.2142962 275.830213 28.6358319 275.830213 28.3213855 278.026368 18.6777613 278.026368 18.6777613 263.095387 21.2142962 263.095387"></polygon>
                        <path d="M39.9223042,274.711824 C40.6632,273.700972 41.0333484,272.317323 41.0333484,270.560877 C41.0333484,269.682057 40.9393139,268.894644 40.750646,268.197443 C40.5619782,267.500839 40.2858642,266.90759 39.9223042,266.420087 C39.5593431,265.931987 39.1047434,265.555605 38.5597028,265.290346 C38.0146622,265.025685 37.3785819,264.893055 36.6520608,264.893055 C35.9249408,264.893055 35.2894595,265.025685 34.7438199,265.290346 C34.1987794,265.555605 33.7411849,265.931987 33.3710365,266.420087 C33.0002891,266.90759 32.7241752,267.500839 32.5426946,268.197443 C32.3612141,268.894644 32.2701743,269.682057 32.2701743,270.560877 C32.2701743,272.317323 32.6367291,273.700972 33.3710365,274.711824 C34.1047449,275.722079 35.1984197,276.227505 36.6520608,276.227505 C38.0913273,276.227505 39.1820073,275.722079 39.9223042,274.711824 M33.7693353,277.869243 C32.9098483,277.513772 32.1725462,277.001775 31.557429,276.332652 C30.9423118,275.66353 30.4709416,274.844453 30.1421204,273.875421 C29.8138982,272.906389 29.649787,271.808312 29.649787,270.581787 C29.649787,269.354665 29.8168929,268.253004 30.1523025,267.2774 C30.488311,266.301796 30.9632749,265.47555 31.5783921,264.799258 C32.1935093,264.122967 32.9344051,263.607385 33.8004805,263.251316 C34.6671549,262.896443 35.6242701,262.718408 36.6730239,262.718408 C37.7349546,262.718408 38.6992571,262.896443 39.5659315,263.251316 C40.4326059,263.607385 41.1663143,264.11998 41.7676558,264.789102 C42.3683983,265.458224 42.8331801,266.277301 43.1614024,267.246333 C43.4902235,268.214768 43.6543346,269.312845 43.6543346,270.539967 C43.6543346,271.78083 43.4938172,272.884882 43.1721834,273.853914 C42.8505496,274.823543 42.3893614,275.645607 41.7886189,276.321899 C41.1872774,276.99819 40.4571627,277.513772 39.5976756,277.869243 C38.7375897,278.225312 37.7631051,278.402749 36.6730239,278.402749 C35.5967186,278.402749 34.6288224,278.225312 33.7693353,277.869243" id="Fill-170" fill="#398EB6" mask="url(#mask-2)"></path>
                        <polygon id="Fill-171" fill="#398EB6" mask="url(#mask-2)" points="48.5832981 263.095148 55.4597933 273.885936 55.4597933 263.095148 57.9340379 263.095148 57.9340379 278.026129 55.5855719 278.026129 48.6881136 267.277161 48.6881136 278.026129 46.2354311 278.026129 46.2354311 263.095148"></polygon>
                        <polygon id="Fill-172" fill="#398EB6" mask="url(#mask-2)" points="71.0586744 263.095148 71.0586744 265.269795 63.6365397 265.269795 63.6365397 269.243304 70.6394124 269.243304 70.6394124 271.438861 63.6365397 271.438861 63.6365397 275.851482 71.4569733 275.851482 71.1634899 278.026129 61.1000048 278.026129 61.1000048 263.095148"></polygon>
                        <path d="M90.3027388,275.1406 C90.0092554,275.795981 89.6037692,276.367124 89.0868791,276.855225 C88.56939,277.343325 87.9404971,277.722694 87.1996013,277.994525 C86.4593044,278.266355 85.5992185,278.40257 84.6211402,278.40257 C83.5448348,278.40257 82.584126,278.221548 81.7384147,277.858908 C80.8927034,277.496268 80.1799581,276.977101 79.6001786,276.300809 C79.0198003,275.625116 78.5795752,274.802454 78.2789045,273.833422 C77.9788327,272.86439 77.8284974,271.780651 77.8284974,270.581608 C77.8284974,269.354486 77.9926085,268.253422 78.3208307,267.277221 C78.6496519,266.301617 79.1138348,265.47537 79.7151762,264.799079 C80.3159187,264.123385 81.0358514,263.607206 81.8749743,263.251734 C82.7134982,262.896263 83.6358746,262.718229 84.6421033,262.718229 C85.5782554,262.718229 86.3892278,262.83652 87.0738227,263.074298 C87.7590165,263.31088 88.3423896,263.649026 88.8245409,264.088137 C89.3066921,264.527248 89.6912152,265.053585 89.9775113,265.667146 C90.2644063,266.280707 90.4776309,266.96357 90.6171853,267.716332 L88.1219776,268.071803 C88.0105737,267.569961 87.8704204,267.123681 87.7027156,266.733559 C87.5350108,266.342839 87.3151978,266.01246 87.0426775,265.74063 C86.7701572,265.468799 86.4383413,265.259101 86.0466309,265.11273 C85.6555193,264.966957 85.1871438,264.893473 84.6421033,264.893473 C83.9712841,264.893473 83.37713,265.025505 82.8602399,265.290764 C82.3427509,265.555426 81.9061195,265.935392 81.5497468,266.430662 C81.1933741,266.925334 80.9244475,267.520972 80.742368,268.218173 C80.5608875,268.915375 80.4698478,269.696216 80.4698478,270.560698 C80.4698478,271.438921 80.5644812,272.226334 80.7531491,272.923535 C80.9418169,273.620737 81.2179309,274.216375 81.580892,274.711645 C81.944452,275.206317 82.3810834,275.582698 82.8913851,275.840788 C83.4016868,276.098878 83.9850599,276.227325 84.6421033,276.227325 C85.22907,276.227325 85.7285907,276.150854 86.1412643,275.997912 C86.5533389,275.844373 86.8989305,275.628103 87.1786382,275.3497 C87.4583458,275.0707 87.6787578,274.732555 87.8392752,274.335263 C87.9997927,273.937972 88.1153892,273.488107 88.1854658,272.986863 L90.8687424,272.986863 C90.78489,273.767107 90.5962222,274.484621 90.3027388,275.1406" id="Fill-173" fill="#398EB6" mask="url(#mask-2)"></path>
                        <path d="M102.91366,274.711824 C103.654555,273.700972 104.024704,272.317323 104.024704,270.560877 C104.024704,269.682057 103.930669,268.894644 103.742001,268.197443 C103.553334,267.500839 103.27722,266.90759 102.91366,266.420087 C102.5501,265.931987 102.096099,265.555605 101.551058,265.290346 C101.006018,265.025685 100.369937,264.893055 99.6434162,264.893055 C98.9162962,264.893055 98.2802159,265.025685 97.7351753,265.290346 C97.1901348,265.555605 96.7325403,265.931987 96.3623919,266.420087 C95.9916445,266.90759 95.7155306,267.500839 95.53405,268.197443 C95.3519705,268.894644 95.2615297,269.682057 95.2615297,270.560877 C95.2615297,272.317323 95.6280845,273.700972 96.3623919,274.711824 C97.0961003,275.722079 98.1897751,276.227505 99.6434162,276.227505 C101.082683,276.227505 102.172764,275.722079 102.91366,274.711824 M96.7606907,277.869243 C95.9012037,277.513772 95.1633027,277.001775 94.5487844,276.332652 C93.9336672,275.66353 93.461698,274.844453 93.1334758,273.875421 C92.8052536,272.906389 92.6405435,271.808312 92.6405435,270.581787 C92.6405435,269.354665 92.8082483,268.253004 93.1436579,267.2774 C93.4796664,266.301796 93.9546303,265.47555 94.5697475,264.799258 C95.1842658,264.122967 95.9257605,263.607385 96.7918359,263.251316 C97.6585103,262.896443 98.6156255,262.718408 99.6643793,262.718408 C100.72631,262.718408 101.690613,262.896443 102.557287,263.251316 C103.423961,263.607385 104.15767,264.11998 104.759011,264.789102 C105.359155,265.458224 105.824536,266.277301 106.152758,267.246333 C106.481579,268.214768 106.64569,269.312845 106.64569,270.539967 C106.64569,271.78083 106.484574,272.884882 106.16294,273.853914 C105.841905,274.823543 105.380717,275.645607 104.779974,276.321899 C104.178633,276.99819 103.448518,277.513772 102.589031,277.869243 C101.728945,278.225312 100.75446,278.402749 99.6643793,278.402749 C98.588074,278.402749 97.6201778,278.225312 96.7606907,277.869243" id="Fill-174" fill="#398EB6" mask="url(#mask-2)"></path>
                        <polygon id="Fill-175" fill="#398EB6" mask="url(#mask-2)" points="111.574713 263.095148 118.451209 273.885936 118.451209 263.095148 120.924854 263.095148 120.924854 278.026129 118.576987 278.026129 111.679529 267.277161 111.679529 278.026129 109.226846 278.026129 109.226846 263.095148"></polygon>
                        <polygon id="Fill-176" fill="#398EB6" mask="url(#mask-2)" points="133.651431 265.269615 126.627596 265.269615 126.627596 269.494046 133.232169 269.494046 133.232169 271.689603 126.627596 271.689603 126.627596 278.026547 124.091061 278.026547 124.091061 263.094969 133.651431 263.094969"></polygon>
                        <polygon id="Fill-177" fill="#398EB6" mask="url(#mask-2)" points="145.742647 263.095148 145.742647 265.269795 138.321111 265.269795 138.321111 269.243304 145.323385 269.243304 145.323385 271.438861 138.321111 271.438861 138.321111 275.851482 146.140946 275.851482 145.847463 278.026129 135.784576 278.026129 135.784576 263.095148"></polygon>
                        <path d="M154.98917,269.818032 C155.366506,269.699741 155.663583,269.531863 155.880401,269.316191 C156.096621,269.100518 156.25055,268.838844 156.34159,268.532362 C156.432629,268.225283 156.47755,267.88415 156.47755,267.507769 C156.47755,267.15887 156.425442,266.842231 156.320627,266.556062 C156.215212,266.270491 156.040919,266.026142 155.796549,265.823613 C155.55158,265.622279 155.226952,265.465154 154.821466,265.353435 C154.415979,265.242313 153.912865,265.186154 153.312122,265.186154 L150.754025,265.186154 L150.754025,269.996067 L153.56368,269.996067 C154.136871,269.996067 154.611835,269.936324 154.98917,269.818032 M156.173885,263.492439 C156.907593,263.757101 157.487373,264.102416 157.913822,264.527786 C158.340271,264.952559 158.636749,265.423334 158.805053,265.938917 C158.972758,266.454499 159.05661,266.964107 159.05661,267.465351 C159.05661,268.441553 158.864349,269.257643 158.479826,269.912426 C158.095303,270.567807 157.477191,271.097728 156.624292,271.501591 L159.727429,278.026129 L156.960301,278.026129 L154.276425,272.087073 C154.150646,272.100814 154.01768,272.111568 153.878126,272.118737 C153.738572,272.125309 153.59183,272.128893 153.437901,272.128893 L150.754025,272.128893 L150.754025,278.026129 L148.259417,278.026129 L148.259417,263.095148 L153.375012,263.095148 C154.507019,263.095148 155.439577,263.227778 156.173885,263.492439" id="Fill-178" fill="#398EB6" mask="url(#mask-2)"></path>
                        <polygon id="Fill-179" fill="#398EB6" mask="url(#mask-2)" points="171.659326 263.095148 171.659326 265.269795 164.237191 265.269795 164.237191 269.243304 171.240064 269.243304 171.240064 271.438861 164.237191 271.438861 164.237191 275.851482 172.057624 275.851482 171.764141 278.026129 161.700656 278.026129 161.700656 263.095148"></polygon>
                        <polygon id="Fill-180" fill="#398EB6" mask="url(#mask-2)" points="176.524022 263.095148 183.400517 273.885936 183.400517 263.095148 185.874163 263.095148 185.874163 278.026129 183.526296 278.026129 176.628838 267.277161 176.628838 278.026129 174.176155 278.026129 174.176155 263.095148"></polygon>
                        <path d="M200.957412,275.1406 C200.663928,275.795981 200.258442,276.367124 199.741552,276.855225 C199.224063,277.343325 198.59517,277.722694 197.854274,277.994525 C197.113378,278.266355 196.253891,278.40257 195.275813,278.40257 C194.199508,278.40257 193.2382,278.221548 192.393088,277.858908 C191.547376,277.496268 190.834631,276.977101 190.254253,276.300809 C189.674473,275.625116 189.234248,274.802454 188.933577,273.833422 C188.632907,272.86439 188.482571,271.780651 188.482571,270.581608 C188.482571,269.354486 188.647281,268.253422 188.975504,267.277221 C189.303726,266.301617 189.768508,265.47537 190.369849,264.799079 C190.970592,264.123385 191.690524,263.607206 192.529048,263.251734 C193.367572,262.896263 194.289949,262.718229 195.296776,262.718229 C196.232928,262.718229 197.043901,262.83652 197.728496,263.074298 C198.413091,263.31088 198.997063,263.649026 199.479214,264.088137 C199.961365,264.527248 200.345888,265.053585 200.632184,265.667146 C200.919079,266.280707 201.131705,266.96357 201.271259,267.716332 L198.776651,268.071803 C198.665247,267.569961 198.525093,267.123681 198.357389,266.733559 C198.189684,266.342839 197.969871,266.01246 197.69735,265.74063 C197.42483,265.468799 197.092415,265.259101 196.701304,265.11273 C196.309593,264.966957 195.841817,264.893473 195.296776,264.893473 C194.625957,264.893473 194.031803,265.025505 193.514314,265.290764 C192.997424,265.555426 192.560193,265.935392 192.20442,266.430662 C191.848047,266.925334 191.578522,267.520972 191.397041,268.218173 C191.214962,268.915375 191.124521,269.696216 191.124521,270.560698 C191.124521,271.438921 191.218555,272.226334 191.407822,272.923535 C191.59649,273.620737 191.872005,274.216375 192.235565,274.711645 C192.599125,275.206317 193.035756,275.582698 193.546058,275.840788 C194.05636,276.098878 194.639733,276.227325 195.296776,276.227325 C195.883743,276.227325 196.383264,276.150854 196.795937,275.997912 C197.208012,275.844373 197.553604,275.628103 197.833311,275.3497 C198.113019,275.0707 198.332832,274.732555 198.493948,274.335263 C198.654466,273.937972 198.770062,273.488107 198.83954,272.986863 L201.523415,272.986863 C201.439563,273.767107 201.250895,274.484621 200.957412,275.1406" id="Fill-181" fill="#398EB6" mask="url(#mask-2)"></path>
                        <polygon id="Fill-182" fill="#398EB6" mask="url(#mask-2)" points="213.786169 263.095148 213.786169 265.269795 206.364633 265.269795 206.364633 269.243304 213.366907 269.243304 213.366907 271.438861 206.364633 271.438861 206.364633 275.851482 214.184468 275.851482 213.890985 278.026129 203.828098 278.026129 203.828098 263.095148"></polygon>
                        <path d="M221.01712,276.897344 C221.50586,276.464804 222.06827,275.966547 222.70435,275.401975 C223.340431,274.837404 223.979506,274.276416 224.622773,273.719014 C225.335519,273.105453 225.960818,272.540881 226.498671,272.025299 C227.036524,271.509119 227.483937,271.007875 227.840309,270.519177 C228.196682,270.031673 228.465609,269.540586 228.647688,269.045316 C228.829169,268.550643 228.920208,268.017736 228.920208,267.445995 C228.920208,266.400491 228.647688,265.61965 228.102648,265.104067 C227.557607,264.587888 226.781972,264.330395 225.775744,264.330395 C225.174402,264.330395 224.667694,264.396112 224.256219,264.528742 C223.843545,264.661969 223.497354,264.845978 223.218246,265.083157 C222.938538,265.320337 222.711538,265.612481 222.537244,265.960783 C222.362352,266.309682 222.20483,266.693232 222.065275,267.111434 L220.954231,266.880825 C221.066234,266.449481 221.23334,266.009772 221.457345,265.563491 C221.680752,265.117808 221.981423,264.722309 222.358759,264.376397 C222.736094,264.031082 223.208064,263.748498 223.773468,263.529838 C224.339472,263.311179 225.027661,263.200654 225.838633,263.200654 C226.537004,263.200654 227.159308,263.30162 227.704349,263.504149 C228.249389,263.70608 228.706984,263.991055 229.077731,264.360267 C229.44788,264.728881 229.730582,265.163213 229.926437,265.664457 C230.122292,266.165701 230.219921,266.708766 230.219921,267.293052 C230.219921,267.947836 230.122292,268.560202 229.926437,269.130151 C229.730582,269.701294 229.433505,270.268256 229.035206,270.83223 C228.636907,271.395607 228.130199,271.976907 227.515681,272.575532 C226.900564,273.174157 226.174043,273.828344 225.335519,274.538091 C224.901882,274.899536 224.447881,275.286074 223.972917,275.696509 C223.497354,276.107541 223.050541,276.493481 222.631279,276.855524 L230.345699,276.855524 L230.094142,278.026487 L221.01712,278.026487 L221.01712,276.897344 Z" id="Fill-183" fill="#398EB6" mask="url(#mask-2)"></path>
                        <path d="M237.653315,277.273665 C238.366061,277.273665 238.966803,277.127295 239.456142,276.833956 C239.944882,276.540618 240.34318,276.118235 240.651038,275.566806 C240.958298,275.015378 241.178111,274.337892 241.311077,273.534946 C241.444043,272.731999 241.510526,271.820918 241.510526,270.801701 C241.510526,269.796824 241.444043,268.892911 241.311077,268.089965 C241.178111,267.287018 240.958298,266.606545 240.651038,266.047948 C240.34318,265.488753 239.944882,265.059798 239.456142,264.759888 C238.966803,264.459978 238.366061,264.309425 237.653315,264.309425 C236.94057,264.309425 236.335635,264.459978 235.840307,264.759888 C235.343781,265.059798 234.941888,265.488753 234.634629,266.047948 C234.326771,266.606545 234.106958,267.287018 233.973992,268.089965 C233.841026,268.892911 233.775142,269.796824 233.775142,270.801701 C233.775142,271.820918 233.841026,272.731999 233.973992,273.534946 C234.106958,274.337892 234.326771,275.015378 234.634629,275.566806 C234.941888,276.118235 235.343781,276.540618 235.840307,276.833956 C236.335635,277.127295 236.94057,277.273665 237.653315,277.273665 M237.611389,278.402809 C235.976268,278.402809 234.704107,277.792832 233.796105,276.572879 C232.887505,275.353524 232.433504,273.433382 232.433504,270.812455 C232.433504,269.50229 232.555689,268.365978 232.800059,267.403517 C233.045027,266.442252 233.397806,265.647669 233.858995,265.020367 C234.320183,264.392468 234.875405,263.92946 235.525261,263.629549 C236.175118,263.330237 236.898644,263.180282 237.695242,263.180282 C238.505615,263.180282 239.228543,263.330237 239.864623,263.629549 C240.500703,263.92946 241.038556,264.392468 241.47938,265.020367 C241.919006,265.647669 242.257411,266.442252 242.495791,267.403517 C242.732974,268.365978 242.852164,269.50229 242.852164,270.812455 C242.852164,272.12262 242.732974,273.255348 242.495791,274.210042 C242.257411,275.165333 241.915413,275.952746 241.468599,276.572879 C241.021187,277.193609 240.472553,277.653631 239.822697,277.953541 C239.172841,278.252854 238.436137,278.402809 237.611389,278.402809" id="Fill-184" fill="#398EB6" mask="url(#mask-2)"></path>
                        <polygon id="Fill-185" fill="#398EB6" mask="url(#mask-2)" points="249.308798 264.853027 245.682182 267.048584 245.158105 266.107631 249.308798 263.577513 250.566584 263.577513 250.566584 278.026368 249.308798 278.026368"></polygon>
                        <path d="M257.190743,278.026248 C257.875338,275.7124 258.661754,273.454113 259.549391,271.251387 C260.43643,269.049259 261.467215,266.874612 262.641149,264.727447 L254.318799,264.727447 L254.318799,263.598304 L263.982787,263.598304 L263.982787,264.727447 C262.836405,266.860274 261.809213,269.027751 260.901212,271.230477 C259.992611,273.433801 259.224164,275.698659 258.595271,278.026248 L257.190743,278.026248 Z" id="Fill-186" fill="#398EB6" mask="url(#mask-2)"></path>
                        <polygon id="Fill-187" fill="#DBBC9A" mask="url(#mask-2)" points="70.2677067 74.3024197 91.2308051 74.3024197 91.2308051 65.3409636 70.2677067 65.3409636"></polygon>
                        <polygon id="Fill-188" fill="#DBBC9A" mask="url(#mask-2)" points="109.199175 74.3024197 130.162273 74.3024197 130.162273 65.3409636 109.199175 65.3409636"></polygon>
                        <polygon id="Fill-189" fill="#DBBC9A" mask="url(#mask-2)" points="70.2677067 125.084004 91.2308051 125.084004 91.2308051 116.122548 70.2677067 116.122548"></polygon>
                        <polygon id="Fill-190" fill="#DBBC9A" mask="url(#mask-2)" points="109.199175 125.084004 130.162273 125.084004 130.162273 116.122548 109.199175 116.122548"></polygon>
                        <polygon id="Fill-191" fill="#DBBC9A" mask="url(#mask-2)" points="121.178088 86.2510278 130.162273 86.2510278 130.162273 65.3409636 121.178088 65.3409636"></polygon>
                        <polygon id="Fill-192" fill="#DBBC9A" mask="url(#mask-2)" points="121.178088 125.084004 130.162273 125.084004 130.162273 104.17394 121.178088 104.17394"></polygon>
                        <polygon id="Fill-193" fill="#DBBC9A" mask="url(#mask-2)" points="70.2677067 86.2510278 79.2518917 86.2510278 79.2518917 65.3409636 70.2677067 65.3409636"></polygon>
                        <polygon id="Fill-194" fill="#DBBC9A" mask="url(#mask-2)" points="70.2677067 125.084004 79.2518917 125.084004 79.2518917 104.17394 70.2677067 104.17394"></polygon>
                    </g>
                </g>
            </g>
        </g>
    </g>
</svg>