<?xml version="1.0" encoding="UTF-8"?>
<svg width="1440px" height="799px" viewBox="0 0 1440 799" version="1.1" xmlns="http://www.w3.org/2000/svg" xmlns:xlink="http://www.w3.org/1999/xlink">
    <!-- Generator: Sketch 39.1 (31720) - http://www.bohemiancoding.com/sketch -->
    <title>Page 1</title>
    <desc>Created with Sketch.</desc>
    <defs>
        <polygon id="path-1" points="0 1087.86139 1442.26299 1087.86139 1442.26299 0.730252464 0 0.730252464"></polygon>
    </defs>
    <g id="Page-1" stroke="none" stroke-width="1" fill="none" fill-rule="evenodd" opacity="0.0500000007">
        <g id="PC---Home---Preconference">
            <g id="Page-1" style="mix-blend-mode: luminosity;" transform="translate(0.000000, -289.000000)">
                <polygon id="Fill-1" fill="#E0DED2" points="721.131495 365.639752 1078.12728 365.639752 1078.12728 8.03082455 721.131495 8.03082455"></polygon>
                <polygon id="Fill-2" fill="#BC563A" points="1078.12728 365.639752 935.328968 222.596181 1006.72813 222.596181 1078.12728 294.117966"></polygon>
                <g id="Group-183" transform="translate(0.000000, 0.148394)">
                    <polygon id="Fill-9" fill="#DEB525" points="863.92981 365.491358 721.131495 365.491358 721.131495 222.447787"></polygon>
                    <mask id="mask-2" fill="white">
                        <use xlink:href="#path-1"></use>
                    </mask>
                    <g id="Clip-18"></g>
                    <polygon id="Fill-17" fill="#D7E1E0" mask="url(#mask-2)" points="1078.12728 723.100285 1435.12307 723.100285 1435.12307 365.491358 1078.12728 365.491358"></polygon>
                    <polygon id="Fill-19" fill="#DBBC9A" mask="url(#mask-2)" points="1256.62518 365.491358 1435.12307 544.295821 1256.62518 723.100285 1078.12728 544.295821"></polygon>
                    <polygon id="Fill-20" fill="#ECEADE" mask="url(#mask-2)" points="1167.37623 633.698053 1345.87413 633.698053 1345.87413 454.89359 1167.37623 454.89359"></polygon>
                    <polygon id="Fill-21" fill="#BC563A" mask="url(#mask-2)" points="1256.62518 597.937161 1203.07581 544.295821 1256.62518 490.654482 1310.17455 544.295821"></polygon>
                    <polygon id="Fill-22" fill="#BC563A" mask="url(#mask-2)" points="1218.76199 582.224041 1294.48837 582.224041 1294.48837 506.367602 1218.76199 506.367602"></polygon>
                    <path d="M96.3888631,991.30698 C96.3888631,1040.67869 56.4269708,1080.70921 7.13991579,1080.70921 L185.63781,1080.70921 C136.350755,1080.70921 96.3888631,1040.67869 96.3888631,991.30698" id="Fill-23" fill="#D7E1E0" mask="url(#mask-2)"></path>
                    <path d="M96.3888631,812.502517 C96.3888631,763.130812 136.350755,723.100285 185.63781,723.100285 L7.13991579,723.100285 C56.4269708,723.100285 96.3888631,763.130812 96.3888631,812.502517" id="Fill-24" fill="#D7E1E0" mask="url(#mask-2)"></path>
                    <path d="M274.886758,991.30698 C274.886758,1040.67869 234.924866,1080.70921 185.63781,1080.70921 L364.135705,1080.70921 C314.84865,1080.70921 274.886758,1040.67869 274.886758,991.30698" id="Fill-25" fill="#D7E1E0" mask="url(#mask-2)"></path>
                    <path d="M274.886758,812.502517 C274.886758,763.130812 314.84865,723.100285 364.135705,723.100285 L185.63781,723.100285 C234.924866,723.100285 274.886758,763.130812 274.886758,812.502517" id="Fill-26" fill="#D7E1E0" mask="url(#mask-2)"></path>
                    <path d="M274.886758,991.30698 C225.599703,991.30698 185.63781,951.276454 185.63781,901.904748 C185.63781,951.276454 145.675918,991.30698 96.3888631,991.30698 C145.675918,991.30698 185.63781,1031.33751 185.63781,1080.70921 C185.63781,1031.33751 225.599703,991.30698 274.886758,991.30698" id="Fill-27" fill="#D7E1E0" mask="url(#mask-2)"></path>
                    <path d="M96.3888631,812.502517 C145.675918,812.502517 185.63781,852.533043 185.63781,901.904748 C185.63781,852.533043 225.599703,812.502517 274.886758,812.502517 C225.599703,812.502517 185.63781,772.47199 185.63781,723.100285 C185.63781,772.47199 145.675918,812.502517 96.3888631,812.502517" id="Fill-28" fill="#D7E1E0" mask="url(#mask-2)"></path>
                    <path d="M274.886758,991.30698 C324.173813,991.30698 364.135705,1031.33751 364.135705,1080.70921 L364.135705,901.904748 C364.135705,951.276454 324.173813,991.30698 274.886758,991.30698" id="Fill-29" fill="#D7E1E0" mask="url(#mask-2)"></path>
                    <path d="M274.886758,812.502517 C324.173813,812.502517 364.135705,852.533043 364.135705,901.904748 L364.135705,723.100285 C364.135705,772.47199 324.173813,812.502517 274.886758,812.502517" id="Fill-30" fill="#D7E1E0" mask="url(#mask-2)"></path>
                    <path d="M96.3888631,991.30698 C47.1018081,991.30698 7.13991579,951.276454 7.13991579,901.904748 L7.13991579,1080.70921 C7.13991579,1031.33751 47.1018081,991.30698 96.3888631,991.30698" id="Fill-31" fill="#D7E1E0" mask="url(#mask-2)"></path>
                    <path d="M96.3888631,812.502517 C47.1018081,812.502517 7.13991579,772.47199 7.13991579,723.100285 L7.13991579,901.904748 C7.13991579,852.533043 47.1018081,812.502517 96.3888631,812.502517" id="Fill-32" fill="#D7E1E0" mask="url(#mask-2)"></path>
                    <path d="M96.3888631,991.30698 C96.3888631,941.935275 136.350755,901.904748 185.63781,901.904748 C136.350755,901.904748 96.3888631,861.874222 96.3888631,812.502517 C96.3888631,861.874222 56.4269708,901.904748 7.13991579,901.904748 C56.4269708,901.904748 96.3888631,941.935275 96.3888631,991.30698" id="Fill-33" fill="#D7E1E0" mask="url(#mask-2)"></path>
                    <path d="M274.886758,812.502517 C274.886758,861.874222 234.924866,901.904748 185.63781,901.904748 C234.924866,901.904748 274.886758,941.935275 274.886758,991.30698 C274.886758,941.935275 314.84865,901.904748 364.135705,901.904748 C314.84865,901.904748 274.886758,861.874222 274.886758,812.502517" id="Fill-34" fill="#D7E1E0" mask="url(#mask-2)"></path>
                    <path d="M183.834441,1078.90383 C137.035538,1077.9502 99.1398943,1039.98948 98.1879056,993.110196 C144.986808,994.074657 182.882452,1032.02455 183.834441,1078.90383" id="Fill-35" fill="#D9AE2B" mask="url(#mask-2)"></path>
                    <path d="M96.3888631,991.30698 C96.3888631,1040.67869 136.350755,1080.70921 185.63781,1080.70921 C185.63781,1031.33751 145.675918,991.30698 96.3888631,991.30698 M100.034547,994.958926 C144.377752,996.833664 180.120603,1032.6379 181.992126,1077.05727 C137.648922,1075.18253 101.906071,1039.37829 100.034547,994.958926" id="Fill-36" fill="#D7E1E0" mask="url(#mask-2)"></path>
                    <path d="M187.44118,1078.90383 C188.393169,1032.02455 226.288813,994.074657 273.087715,993.110196 C272.135727,1039.98948 234.240083,1077.9502 187.44118,1078.90383" id="Fill-37" fill="#D9AE2B" mask="url(#mask-2)"></path>
                    <path d="M274.886758,991.30698 C225.599703,991.30698 185.63781,1031.33751 185.63781,1080.70921 C234.924866,1080.70921 274.886758,1040.67869 274.886758,991.30698 M271.241074,994.958926 C269.36955,1039.37829 233.626699,1075.18253 189.283495,1077.05727 C191.155018,1032.6379 226.897869,996.833664 271.241074,994.958926" id="Fill-38" fill="#D7E1E0" mask="url(#mask-2)"></path>
                    <path d="M98.1922328,810.697133 C99.1442215,763.817854 137.039865,725.867961 183.838768,724.903501 C182.886779,771.78278 144.991135,809.74351 98.1922328,810.697133" id="Fill-39" fill="#D9AE2B" mask="url(#mask-2)"></path>
                    <path d="M185.63781,723.100285 C136.350755,723.100285 96.3888631,763.130812 96.3888631,812.502517 C145.675918,812.502517 185.63781,772.47199 185.63781,723.100285 M181.992126,726.752231 C180.120603,771.171594 144.377752,806.975833 100.034547,808.850571 C101.906071,764.431208 137.648922,728.626968 181.992126,726.752231" id="Fill-40" fill="#D7E1E0" mask="url(#mask-2)"></path>
                    <path d="M273.082306,810.697133 C226.283404,809.74351 188.398578,771.78278 187.435771,724.903501 C234.234674,725.867961 272.130318,763.817854 273.082306,810.697133" id="Fill-41" fill="#D9AE2B" mask="url(#mask-2)"></path>
                    <path d="M185.63781,723.100285 C185.63781,772.47199 225.599703,812.502517 274.886758,812.502517 C274.886758,763.130812 234.924866,723.100285 185.63781,723.100285 M189.283495,726.752231 C233.626699,728.626968 269.36955,764.431208 271.241074,808.850571 C226.897869,806.975833 191.155018,771.171594 189.283495,726.752231" id="Fill-42" fill="#D7E1E0" mask="url(#mask-2)"></path>
                    <path d="M362.331254,1078.90383 C315.532351,1077.9502 277.647525,1039.98948 276.695537,993.110196 C323.483621,994.074657 361.379265,1032.02455 362.331254,1078.90383" id="Fill-43" fill="#D9AE2B" mask="url(#mask-2)"></path>
                    <path d="M274.886758,991.30698 C274.886758,1040.67869 314.84865,1080.70921 364.135705,1080.70921 C364.135705,1031.33751 324.173813,991.30698 274.886758,991.30698 M278.532442,994.958926 C322.875646,996.833664 358.618498,1032.6379 360.490021,1077.05727 C316.146817,1075.18253 280.403965,1039.37829 278.532442,994.958926" id="Fill-44" fill="#D7E1E0" mask="url(#mask-2)"></path>
                    <path d="M276.691209,810.697133 C277.643198,763.817854 315.538842,725.867961 362.326927,724.903501 C361.374938,771.78278 323.490112,809.74351 276.691209,810.697133" id="Fill-45" fill="#D9AE2B" mask="url(#mask-2)"></path>
                    <path d="M364.135705,723.100285 C314.84865,723.100285 274.886758,763.130812 274.886758,812.502517 C324.173813,812.502517 364.135705,772.47199 364.135705,723.100285 M360.490021,726.752231 C358.618498,771.171594 322.875646,806.975833 278.532442,808.850571 C280.403965,764.431208 316.146817,728.626968 360.490021,726.752231" id="Fill-46" fill="#D7E1E0" mask="url(#mask-2)"></path>
                    <path d="M8.94328543,1078.90383 C9.8952742,1032.02455 47.7909181,994.074657 94.5898207,993.110196 C93.6378319,1039.98948 55.742188,1077.9502 8.94328543,1078.90383" id="Fill-47" fill="#D9AE2B" mask="url(#mask-2)"></path>
                    <path d="M96.3888631,991.30698 C47.1018081,991.30698 7.13991579,1031.33751 7.13991579,1080.70921 C56.4269708,1080.70921 96.3888631,1040.67869 96.3888631,991.30698 M92.7431789,994.958926 C90.8716555,1039.37829 55.1288043,1075.18253 10.7856001,1077.05727 C12.6571234,1032.6379 48.3999746,996.833664 92.7431789,994.958926" id="Fill-48" fill="#D7E1E0" mask="url(#mask-2)"></path>
                    <path d="M94.5854935,810.697133 C47.7865909,809.74351 9.89094698,771.78278 8.93895821,724.903501 C55.7378608,725.867961 93.6335047,763.817854 94.5854935,810.697133" id="Fill-49" fill="#D9AE2B" mask="url(#mask-2)"></path>
                    <path d="M7.13991579,723.100285 C7.13991579,772.47199 47.1018081,812.502517 96.3888631,812.502517 C96.3888631,763.130812 56.4269708,723.100285 7.13991579,723.100285 M10.7856001,726.752231 C55.1288043,728.626968 90.8716555,764.431208 92.7431789,808.850571 C48.3999746,806.975833 12.6571234,771.171594 10.7856001,726.752231" id="Fill-50" fill="#D7E1E0" mask="url(#mask-2)"></path>
                    <path d="M98.1922328,989.501597 C99.1442215,942.622318 137.039865,904.672425 183.838768,903.707964 C182.886779,950.587244 144.991135,988.547973 98.1922328,989.501597" id="Fill-51" fill="#D9AE2B" mask="url(#mask-2)"></path>
                    <path d="M185.63781,901.904748 C136.350755,901.904748 96.3888631,941.935275 96.3888631,991.30698 C145.675918,991.30698 185.63781,951.276454 185.63781,901.904748 M181.992126,905.556694 C180.120603,949.976058 144.377752,985.780297 100.034547,987.655035 C101.906071,943.235671 137.648922,907.431432 181.992126,905.556694" id="Fill-52" fill="#D7E1E0" mask="url(#mask-2)"></path>
                    <path d="M183.834441,900.099365 C137.035538,899.145741 99.1398943,861.185012 98.1879056,814.305733 C144.986808,815.270193 182.882452,853.220086 183.834441,900.099365" id="Fill-53" fill="#D9AE2B" mask="url(#mask-2)"></path>
                    <path d="M96.3888631,812.502517 C96.3888631,861.874222 136.350755,901.904748 185.63781,901.904748 C185.63781,852.533043 145.675918,812.502517 96.3888631,812.502517 M100.034547,816.154462 C144.377752,818.0292 180.120603,853.833439 181.992126,898.252803 C137.648922,896.378065 101.906071,860.573826 100.034547,816.154462" id="Fill-54" fill="#D7E1E0" mask="url(#mask-2)"></path>
                    <path d="M94.5854935,989.501597 C47.7865909,988.547973 9.89094698,950.587244 8.93895821,903.707964 C55.7378608,904.672425 93.6335047,942.622318 94.5854935,989.501597" id="Fill-55" fill="#D9AE2B" mask="url(#mask-2)"></path>
                    <path d="M7.13991579,901.904748 C7.13991579,951.276454 47.1018081,991.30698 96.3888631,991.30698 C96.3888631,941.935275 56.4269708,901.904748 7.13991579,901.904748 M10.7856001,905.556694 C55.1288043,907.431432 90.8716555,943.235671 92.7431789,987.655035 C48.3999746,985.780297 12.6571234,949.976058 10.7856001,905.556694" id="Fill-56" fill="#D7E1E0" mask="url(#mask-2)"></path>
                    <path d="M8.94328543,900.099365 C9.8952742,853.220086 47.7909181,815.270193 94.5898207,814.305733 C93.6378319,861.185012 55.742188,899.145741 8.94328543,900.099365" id="Fill-57" fill="#D9AE2B" mask="url(#mask-2)"></path>
                    <path d="M96.3888631,812.502517 C47.1018081,812.502517 7.13991579,852.533043 7.13991579,901.904748 C56.4269708,901.904748 96.3888631,861.874222 96.3888631,812.502517 M92.7431789,816.154462 C90.8716555,860.573826 55.1288043,896.378065 10.7856001,898.252803 C12.6571234,853.833439 48.3999746,818.0292 92.7431789,816.154462" id="Fill-58" fill="#D7E1E0" mask="url(#mask-2)"></path>
                    <path d="M273.082306,989.501597 C226.283404,988.547973 188.398578,950.587244 187.435771,903.707964 C234.234674,904.672425 272.130318,942.622318 273.082306,989.501597" id="Fill-59" fill="#D9AE2B" mask="url(#mask-2)"></path>
                    <path d="M185.63781,901.904748 C185.63781,951.276454 225.599703,991.30698 274.886758,991.30698 C274.886758,941.935275 234.924866,901.904748 185.63781,901.904748 M189.283495,905.556694 C233.626699,907.431432 269.36955,943.235671 271.241074,987.655035 C226.897869,985.780297 191.155018,949.976058 189.283495,905.556694" id="Fill-60" fill="#D7E1E0" mask="url(#mask-2)"></path>
                    <path d="M187.44118,900.099365 C188.393169,853.220086 226.288813,815.270193 273.087715,814.305733 C272.135727,861.185012 234.240083,899.145741 187.44118,900.099365" id="Fill-61" fill="#D9AE2B" mask="url(#mask-2)"></path>
                    <path d="M274.886758,812.502517 C225.599703,812.502517 185.63781,852.533043 185.63781,901.904748 C234.924866,901.904748 274.886758,861.874222 274.886758,812.502517 M271.241074,816.154462 C269.36955,860.573826 233.626699,896.378065 189.283495,898.252803 C191.155018,853.833439 226.897869,818.0292 271.241074,816.154462" id="Fill-62" fill="#D7E1E0" mask="url(#mask-2)"></path>
                    <path d="M276.691209,989.501597 C277.643198,942.622318 315.538842,904.672425 362.326927,903.707964 C361.374938,950.587244 323.490112,988.547973 276.691209,989.501597" id="Fill-63" fill="#D9AE2B" mask="url(#mask-2)"></path>
                    <path d="M364.135705,901.904748 C314.84865,901.904748 274.886758,941.935275 274.886758,991.30698 C324.173813,991.30698 364.135705,951.276454 364.135705,901.904748 M360.490021,905.556694 C358.618498,949.976058 322.875646,985.780297 278.532442,987.655035 C280.403965,943.235671 316.146817,907.431432 360.490021,905.556694" id="Fill-64" fill="#D7E1E0" mask="url(#mask-2)"></path>
                    <path d="M362.331254,900.099365 C315.532351,899.145741 277.647525,861.185012 276.695537,814.305733 C323.483621,815.270193 361.379265,853.220086 362.331254,900.099365" id="Fill-65" fill="#D9AE2B" mask="url(#mask-2)"></path>
                    <path d="M274.886758,812.502517 C274.886758,861.874222 314.84865,901.904748 364.135705,901.904748 C364.135705,852.533043 324.173813,812.502517 274.886758,812.502517 M278.532442,816.154462 C322.875646,818.0292 358.618498,853.833439 360.490021,898.252803 C316.146817,896.378065 280.403965,860.573826 278.532442,816.154462" id="Fill-66" fill="#D7E1E0" mask="url(#mask-2)"></path>
                    <polygon id="Fill-67" fill="#E0DED2" mask="url(#mask-2)" points="721.131495 1080.70921 1078.12728 1080.70921 1078.12728 723.100285 721.131495 723.100285"></polygon>
                    <polygon id="Fill-68" fill="#DBBC9A" mask="url(#mask-2)" points="1078.12728 1080.70921 828.230231 1080.70921 1078.12728 830.382963"></polygon>
                    <path d="M936.350193,938.688619 C865.427029,947.032828 810.384769,1007.41455 810.384769,1080.71355 L863.934138,1080.71355 C863.934138,1035.78486 897.015747,998.615206 940.104057,992.275775 C936.999276,980.550537 935.333295,968.240121 935.333295,955.550422 C935.333295,949.839516 935.701109,944.215303 936.350193,938.688619" id="Fill-69" fill="#BC563A" mask="url(#mask-2)"></path>
                    <path d="M989.841143,942.446764 C996.169705,899.28445 1033.27563,866.146023 1078.12728,866.146023 L1078.12728,812.504684 C1004.96478,812.504684 944.686585,867.641479 936.345865,938.686452 C941.873891,938.036254 947.477643,937.667809 953.178758,937.667809 C965.857517,937.667809 978.136009,939.33665 989.841143,942.446764" id="Fill-70" fill="#BC563A" mask="url(#mask-2)"></path>
                    <path d="M1006.7238,1009.18201 C995.516295,994.23829 988.874009,975.675135 988.874009,955.540669 C988.874009,951.097649 989.220187,946.719649 989.836816,942.450015 C978.1425,939.339901 965.85319,937.660223 953.17443,937.660223 C947.484134,937.660223 941.869564,938.039505 936.352356,938.689703 C935.703273,944.216387 935.324641,949.8406 935.324641,955.540669 C935.324641,968.241204 937.001439,980.551621 940.106221,992.266022 C944.368534,991.648334 948.739028,991.301562 953.17443,991.301562 C973.274375,991.301562 991.805702,997.955255 1006.7238,1009.18201" id="Fill-71" fill="#BC563A" mask="url(#mask-2)"></path>
                    <polygon id="Fill-72" fill="#404F62" mask="url(#mask-2)" points="771.110905 1080.70921 771.110905 875.680094 873.449698 773.165535 1078.12728 773.165535 1078.12728 793.668447 880.27589 793.668447 791.578664 882.51801 791.578664 1080.70921"></polygon>
                    <path d="M767.464139,819.643859 C755.72655,822.775646 744.616409,828.887508 735.410244,838.109483 C744.616409,847.331459 755.72655,853.443321 767.464139,856.575108 C764.251177,844.481424 764.251177,831.737542 767.464139,819.643859" id="Fill-73" fill="#404F62" mask="url(#mask-2)"></path>
                    <path d="M854.818845,769.070371 C851.692427,757.312623 845.591045,746.183399 836.384881,736.961424 C827.178717,746.183399 821.077334,757.312623 817.950916,769.070371 C830.023865,765.85189 842.745897,765.85189 854.818845,769.070371" id="Fill-74" fill="#404F62" mask="url(#mask-2)"></path>
                    <path d="M804.33315,856.576192 C816.070738,853.444404 827.18088,847.332543 836.387044,838.110567 C827.18088,828.888591 816.070738,822.77673 804.33315,819.644942 C807.546112,831.738626 807.546112,844.482508 804.33315,856.576192" id="Fill-75" fill="#404F62" mask="url(#mask-2)"></path>
                    <path d="M804.33315,856.576192 C807.546112,844.482508 807.546112,831.738626 804.33315,819.644942 C792.260201,816.426462 779.538169,816.426462 767.465221,819.644942 C764.252259,831.738626 764.252259,844.482508 767.465221,856.576192 C779.538169,859.794672 792.260201,859.794672 804.33315,856.576192" id="Fill-76" fill="#404F62" mask="url(#mask-2)"></path>
                    <path d="M817.950916,806.00162 C821.077334,817.759368 827.178717,828.888591 836.384881,838.110567 C845.591045,828.888591 851.692427,817.759368 854.818845,806.00162 C842.745897,809.2201 830.023865,809.2201 817.950916,806.00162" id="Fill-77" fill="#404F62" mask="url(#mask-2)"></path>
                    <path d="M817.950916,806.00162 C830.023865,809.2201 842.745897,809.2201 854.818845,806.00162 C858.031807,793.907936 858.031807,781.164054 854.818845,769.070371 C842.745897,765.85189 830.023865,765.85189 817.950916,769.070371 C814.737954,781.164054 814.737954,793.907936 817.950916,806.00162" id="Fill-78" fill="#404F62" mask="url(#mask-2)"></path>
                    <path d="M800.279625,776.640843 C789.764476,770.539818 777.604983,766.996239 764.580046,766.996239 C764.580046,780.03271 768.11755,792.223923 774.208114,802.757132 C780.471767,791.931334 789.472389,782.915255 800.279625,776.640843" id="Fill-79" fill="#404F62" mask="url(#mask-2)"></path>
                    <path d="M800.279625,828.869085 C810.794773,834.97011 822.954266,838.51369 835.979204,838.51369 C835.979204,825.477219 832.4417,813.286005 826.351135,802.752797 C820.087482,813.578595 811.086861,822.594674 800.279625,828.869085" id="Fill-80" fill="#404F62" mask="url(#mask-2)"></path>
                    <path d="M800.279625,828.869085 C811.086861,822.594674 820.087482,813.578595 826.351135,802.752797 C820.087482,791.926999 811.086861,782.91092 800.279625,776.636509 C789.472389,782.91092 780.471767,791.926999 774.208114,802.752797 C780.471767,813.578595 789.472389,822.594674 800.279625,828.869085" id="Fill-81" fill="#404F62" mask="url(#mask-2)"></path>
                    <path d="M1026.78588,1044.94832 C1023.12938,1051.26608 1021.00904,1058.58081 1021.00904,1066.40485 C1028.81967,1066.40485 1036.12186,1064.28087 1042.42879,1060.61809 C1035.93795,1056.85778 1030.53975,1051.4503 1026.78588,1044.94832" id="Fill-82" fill="#404F62" mask="url(#mask-2)"></path>
                    <path d="M1058.07061,1044.94832 C1061.72711,1038.63056 1063.84745,1031.31583 1063.84745,1023.49178 C1056.03682,1023.49178 1048.73463,1025.61576 1042.42771,1029.27855 C1048.91854,1033.03886 1054.31675,1038.44634 1058.07061,1044.94832" id="Fill-83" fill="#404F62" mask="url(#mask-2)"></path>
                    <path d="M1026.78588,1044.94832 C1030.53975,1051.4503 1035.93795,1056.85778 1042.42879,1060.61809 C1048.91962,1056.85778 1054.31783,1051.4503 1058.07169,1044.94832 C1054.31783,1038.44634 1048.91962,1033.03886 1042.42879,1029.27855 C1035.93795,1033.03886 1030.53975,1038.44634 1026.78588,1044.94832" id="Fill-84" fill="#404F62" mask="url(#mask-2)"></path>
                    <path d="M1042.42771,1029.27963 C1036.12078,1025.61685 1028.81859,1023.49287 1021.00796,1023.49287 C1021.00796,1031.31692 1023.1283,1038.63165 1026.7848,1044.9494 C1030.53866,1038.44742 1035.93687,1033.03994 1042.42771,1029.27963" id="Fill-85" fill="#404F62" mask="url(#mask-2)"></path>
                    <path d="M1042.42771,1060.61701 C1048.73463,1064.27979 1056.03682,1066.40377 1063.84745,1066.40377 C1063.84745,1058.57972 1061.72711,1051.26499 1058.07061,1044.94724 C1054.31675,1051.44922 1048.91854,1056.8567 1042.42771,1060.61701" id="Fill-86" fill="#404F62" mask="url(#mask-2)"></path>
                    <path d="M1042.42771,1029.27963 C1035.93687,1033.03994 1030.53866,1038.44742 1026.7848,1044.9494 C1030.53866,1051.45138 1035.93687,1056.85886 1042.42771,1060.61918 C1048.91854,1056.85886 1054.31675,1051.45138 1058.07061,1044.9494 C1054.31675,1038.44742 1048.91854,1033.03994 1042.42771,1029.27963" id="Fill-87" fill="#404F62" mask="url(#mask-2)"></path>
                    <path d="M185.63781,544.295821 C284.222739,544.295821 364.135705,624.346038 364.135705,723.100285 L364.135705,365.491358 L7.13991579,365.491358 C105.724844,365.491358 185.63781,445.541574 185.63781,544.295821" id="Fill-88" fill="#BC563A" mask="url(#mask-2)"></path>
                    <path d="M42.9303664,719.499271 C31.3658664,722.7005 19.4010984,724.374536 7.14424301,724.374536 L42.8438219,724.374536 C42.8438219,722.744553 42.8979122,721.129255 42.9303664,719.499271" id="Fill-89" fill="#66AAB7" mask="url(#mask-2)"></path>
                    <path d="M185.63781,544.295821 C185.63781,556.573728 184.393734,568.559045 182.046216,580.143407 C183.247021,580.121734 184.437006,580.056714 185.63781,580.056714 C264.501426,580.056714 328.436126,644.101222 328.436126,723.100285 L364.135705,723.100285 C364.135705,624.346038 284.222739,544.295821 185.63781,544.295821" id="Fill-90" fill="#E0DED2" mask="url(#mask-2)"></path>
                    <path d="M7.13991579,687.339392 L7.13991579,723.100285 C7.13991579,710.822379 8.82854531,698.837061 12.0149158,687.252699 C10.3850212,687.274372 8.76981037,687.339392 7.13991579,687.339392" id="Fill-91" fill="#66AAB7" mask="url(#mask-2)"></path>
                    <path d="M149.938232,544.295821 C149.938232,545.498688 149.873323,546.690718 149.851687,547.893584 C161.416187,545.542034 173.380955,544.295821 185.63781,544.295821 C185.63781,445.541574 105.724844,365.491358 7.13991579,365.491358 L7.13991579,401.252251 C86.0035311,401.252251 149.938232,465.296759 149.938232,544.295821" id="Fill-92" fill="#E0DED2" mask="url(#mask-2)"></path>
                    <path d="M182.044053,580.147742 C184.402389,568.56338 185.635647,556.578063 185.635647,544.300156 C173.378791,544.300156 161.414023,545.535532 149.849524,547.897919 C149.514164,561.248652 147.393825,574.155083 143.650778,586.357133 C155.831907,582.607658 168.71621,580.483678 182.044053,580.147742" id="Fill-93" fill="#E0DED2" mask="url(#mask-2)"></path>
                    <path d="M49.1226206,681.044392 C36.9414916,684.793867 24.057189,686.917847 10.7293462,687.242946 C8.38182841,698.827308 7.13775218,710.823462 7.13775218,723.101369 C19.3946076,723.101369 31.3701936,721.855156 42.9346936,719.503606 C43.2592352,706.152873 45.3795739,693.246442 49.1226206,681.044392" id="Fill-94" fill="#66AAB7" mask="url(#mask-2)"></path>
                    <path d="M42.9303664,719.499271 C42.8979122,720.702138 42.8438219,721.894168 42.8438219,723.097034 L328.440453,723.097034 C328.440453,644.097971 264.505753,580.053463 185.642138,580.053463 C184.430516,580.053463 183.24053,580.118483 182.039726,580.150993 C167.824802,650.133976 112.793361,705.249098 42.9303664,719.499271" id="Fill-95" fill="#66AAB7" mask="url(#mask-2)"></path>
                    <path d="M49.1226206,681.044392 C45.3795739,693.246442 43.2592352,706.152873 42.9346936,719.503606 C112.797688,705.253432 167.818312,650.127474 182.044053,580.144491 C168.71621,580.480427 155.831907,582.604407 143.650778,586.353882 C129.803669,631.53181 94.2230887,667.162663 49.1226206,681.044392" id="Fill-96" fill="#66AAB7" mask="url(#mask-2)"></path>
                    <path d="M149.84736,547.896835 C149.879814,546.693969 149.933904,545.501939 149.933904,544.299072 C149.933904,465.30001 86.0100219,401.255502 7.13558857,401.255502 L7.13558857,687.342643 C8.34721064,687.342643 9.5371966,687.277623 10.7380006,687.245114 C24.9529239,617.26213 79.9843657,562.147009 149.84736,547.896835" id="Fill-97" fill="#66AAB7" mask="url(#mask-2)"></path>
                    <path d="M10.7336734,687.248365 C24.0615162,686.912429 36.9458188,684.788449 49.1269478,681.04981 C62.9740573,635.871882 98.5546376,600.230192 143.655106,586.348464 C147.398152,574.146414 149.518491,561.239983 149.843033,547.900086 C79.9800385,562.139423 24.9594147,617.265381 10.7336734,687.248365" id="Fill-98" fill="#66AAB7" mask="url(#mask-2)"></path>
                    <path d="M143.655106,586.351715 C98.5546376,600.233443 62.9740573,635.864296 49.1269478,681.042224 C94.2274159,667.171332 129.797178,631.529643 143.655106,586.351715" id="Fill-99" fill="#66AAB7" mask="url(#mask-2)"></path>
                    <path d="M174.927937,622.969785 C174.927937,636.017093 171.390433,648.19747 165.299869,658.730678 C171.390433,669.263887 174.927937,681.444263 174.927937,694.491571 C201.334807,694.491571 224.344809,680.089684 236.699026,658.730678 C224.344809,637.371672 201.334807,622.969785 174.927937,622.969785" id="Fill-100" fill="#E0DED2" mask="url(#mask-2)"></path>
                    <path d="M139.228358,684.845883 C149.743507,690.946908 161.903,694.490487 174.927937,694.490487 C174.927937,681.44318 171.390433,669.262803 165.299869,658.729594 C159.036215,669.555392 150.035594,678.571472 139.228358,684.845883" id="Fill-101" fill="#398EB6" mask="url(#mask-2)"></path>
                    <path d="M41.7598529,658.730678 C35.6692884,669.263887 32.1317847,681.444263 32.1317847,694.491571 C45.1459039,694.491571 57.3162149,690.947991 67.8313636,684.846966 C57.0241274,678.572555 48.0235063,669.556476 41.7598529,658.730678" id="Fill-102" fill="#398EB6" mask="url(#mask-2)"></path>
                    <path d="M165.297705,658.730678 C171.388269,648.19747 174.925773,636.017093 174.925773,622.969785 C161.911654,622.969785 149.741343,626.513365 139.226194,632.61439 C150.03343,638.888801 159.034052,647.904881 165.297705,658.730678" id="Fill-103" fill="#E0DED2" mask="url(#mask-2)"></path>
                    <path d="M139.228358,632.615473 C128.713209,626.514448 116.553716,622.970869 103.528779,622.970869 C103.528779,636.018177 107.066283,648.198553 113.156847,658.731762 C119.420501,647.905964 128.421122,638.889885 139.228358,632.615473" id="Fill-104" fill="#398EB6" mask="url(#mask-2)"></path>
                    <path d="M139.228358,632.615473 C128.421122,638.889885 119.420501,647.905964 113.156847,658.731762 C119.420501,669.557559 128.421122,678.573639 139.228358,684.84805 C150.035594,678.573639 159.036215,669.557559 165.299869,658.731762 C159.036215,647.905964 150.035594,638.889885 139.228358,632.615473" id="Fill-105" fill="#398EB6" mask="url(#mask-2)"></path>
                    <path d="M93.8985471,658.730678 C99.9891116,648.19747 103.526615,636.017093 103.526615,622.969785 C90.5124961,622.969785 78.3421851,626.513365 67.8270364,632.61439 C78.6342725,638.888801 87.6348937,647.904881 93.8985471,658.730678" id="Fill-106" fill="#398EB6" mask="url(#mask-2)"></path>
                    <path d="M93.8985471,658.730678 C87.6348937,647.904881 78.6342725,638.888801 67.8270364,632.61439 C57.0198002,638.888801 48.0191791,647.904881 41.7555257,658.730678 C48.0191791,669.556476 57.0198002,678.572555 67.8270364,684.846966 C78.6342725,678.572555 87.6348937,669.556476 93.8985471,658.730678" id="Fill-107" fill="#398EB6" mask="url(#mask-2)"></path>
                    <path d="M67.8292,613.324097 C78.3443487,619.425122 90.5038416,622.968702 103.528779,622.968702 C103.528779,609.921394 99.9912752,597.741017 93.9007107,587.207809 C87.6370573,598.033607 78.6364362,607.049686 67.8292,613.324097" id="Fill-108" fill="#398EB6" mask="url(#mask-2)"></path>
                    <path d="M32.129621,551.448 C45.1545583,551.448 57.3140513,554.991579 67.8292,561.092604 C78.3443487,554.991579 90.5038416,551.448 103.528779,551.448 C103.528779,524.995776 89.1515849,501.946255 67.8292,489.570819 C46.5068151,501.946255 32.129621,524.995776 32.129621,551.448" id="Fill-109" fill="#E0DED2" mask="url(#mask-2)"></path>
                    <path d="M67.8292,561.093688 C57.3140513,554.992663 45.1545583,551.449084 32.129621,551.449084 C32.129621,564.496391 35.6671248,576.676768 41.7576893,587.209976 C48.0213427,576.384179 57.0219638,567.368099 67.8292,561.093688" id="Fill-110" fill="#398EB6" mask="url(#mask-2)"></path>
                    <path d="M93.8985471,587.208893 C99.9891116,576.675684 103.526615,564.495308 103.526615,551.448 C90.5124961,551.448 78.3421851,554.991579 67.8270364,561.092604 C78.6342725,567.367016 87.6348937,576.383095 93.8985471,587.208893" id="Fill-111" fill="#E0DED2" mask="url(#mask-2)"></path>
                    <path d="M67.8292,613.324097 C78.6364362,607.049686 87.6370573,598.033607 93.9007107,587.207809 C87.6370573,576.382012 78.6364362,567.365932 67.8292,561.091521 C57.0219638,567.365932 48.0213427,576.382012 41.7576893,587.207809 C48.0213427,598.033607 57.0219638,607.049686 67.8292,613.324097" id="Fill-112" fill="#398EB6" mask="url(#mask-2)"></path>
                    <path d="M296.295687,484.021379 C299.422105,495.779127 305.523487,506.90835 314.729652,516.130326 C323.935816,506.90835 330.037198,495.779127 333.163616,484.021379 C321.090667,487.239859 308.368636,487.239859 296.295687,484.021379" id="Fill-113" fill="#E0DED2" mask="url(#mask-2)"></path>
                    <path d="M314.729652,414.982266 C305.523487,424.204242 294.413346,430.316103 282.675757,433.447891 C279.549339,445.205639 273.447957,456.334862 264.241792,465.556838 C273.447957,456.334862 284.558098,450.223 296.295687,447.091213 C299.422105,435.333465 305.523487,424.204242 314.729652,414.982266" id="Fill-114" fill="#66AAB7" mask="url(#mask-2)"></path>
                    <path d="M296.295687,447.089046 C284.558098,450.220833 273.447957,456.332695 264.241792,465.55467 C273.447957,474.776646 284.558098,480.888508 296.295687,484.020295 C293.082725,471.926611 293.082725,459.18273 296.295687,447.089046" id="Fill-115" fill="#66AAB7" mask="url(#mask-2)"></path>
                    <path d="M333.163616,447.090129 C330.037198,435.332381 323.935816,424.203158 314.729652,414.981183 C305.523487,424.203158 299.422105,435.332381 296.295687,447.090129 C308.368636,443.871649 321.090667,443.871649 333.163616,447.090129" id="Fill-116" fill="#E0DED2" mask="url(#mask-2)"></path>
                    <path d="M333.163616,447.090129 C321.090667,443.871649 308.368636,443.871649 296.295687,447.090129 C293.082725,459.183813 293.082725,471.927695 296.295687,484.021379 C308.368636,487.239859 321.090667,487.239859 333.163616,484.021379 C336.376578,471.927695 336.376578,459.183813 333.163616,447.090129" id="Fill-117" fill="#E0DED2" mask="url(#mask-2)"></path>
                    <path d="M245.80891,433.447891 C248.935328,445.205639 255.03671,456.334862 264.242874,465.556838 C273.449038,456.334862 279.550421,445.205639 282.676839,433.447891 C270.60389,436.666371 257.881858,436.666371 245.80891,433.447891" id="Fill-118" fill="#66AAB7" mask="url(#mask-2)"></path>
                    <path d="M282.67792,433.447891 C294.415509,430.316103 305.525651,424.204242 314.731815,414.982266 C305.525651,405.760291 294.415509,399.648429 282.67792,396.516642 C285.890883,408.610325 285.890883,421.354207 282.67792,433.447891" id="Fill-119" fill="#E0DED2" mask="url(#mask-2)"></path>
                    <path d="M245.80891,396.515558 C234.071321,399.647345 222.961179,405.759207 213.755015,414.981183 C222.961179,424.203158 234.071321,430.31502 245.80891,433.446807 C242.595948,421.353123 242.595948,408.609242 245.80891,396.515558" id="Fill-120" fill="#E0DED2" mask="url(#mask-2)"></path>
                    <path d="M282.67792,433.447891 C285.890883,421.354207 285.890883,408.610325 282.67792,396.516642 C270.604972,393.298161 257.88294,393.298161 245.809992,396.516642 C242.59703,408.610325 242.59703,421.354207 245.809992,433.447891 C257.88294,436.666371 270.604972,436.666371 282.67792,433.447891" id="Fill-121" fill="#E0DED2" mask="url(#mask-2)"></path>
                    <polygon id="Fill-122" fill="#398EB6" mask="url(#mask-2)" points="1078.12728 842.303261 1197.12588 842.303261 1197.12588 723.100285 1078.12728 723.100285"></polygon>
                    <polygon id="Fill-123" fill="#E1CD5B" mask="url(#mask-2)" points="1197.12588 723.100285 1197.12588 842.303261 1078.12728 842.303261"></polygon>
                    <polygon id="Fill-124" fill="#398EB6" mask="url(#mask-2)" points="1078.12728 1080.70921 1197.12588 1080.70921 1197.12588 961.506236 1078.12728 961.506236"></polygon>
                    <polygon id="Fill-125" fill="#E1CD5B" mask="url(#mask-2)" points="1078.12728 961.506236 1197.12588 961.506236 1197.12588 1080.70921"></polygon>
                    <polygon id="Fill-126" fill="#398EB6" mask="url(#mask-2)" points="1316.12448 1080.70921 1435.12307 1080.70921 1435.12307 961.506236 1316.12448 961.506236"></polygon>
                    <polygon id="Fill-127" fill="#E1CD5B" mask="url(#mask-2)" points="1316.12448 1080.70921 1316.12448 961.506236 1435.12307 961.506236"></polygon>
                    <polygon id="Fill-128" fill="#398EB6" mask="url(#mask-2)" points="1316.12448 842.303261 1435.12307 842.303261 1435.12307 723.100285 1316.12448 723.100285"></polygon>
                    <polygon id="Fill-129" fill="#E1CD5B" mask="url(#mask-2)" points="1435.12307 842.303261 1316.12448 842.303261 1316.12448 723.100285"></polygon>
                    <polygon id="Fill-130" fill="#BC563A" mask="url(#mask-2)" points="1197.12588 961.506236 1316.12448 961.506236 1316.12448 842.303261 1197.12588 842.303261"></polygon>
                    <polygon id="Fill-131" fill="#D7E1E0" mask="url(#mask-2)" points="1197.12588 842.303261 1316.12448 842.303261 1256.62518 782.701773"></polygon>
                    <polygon id="Fill-132" fill="#D7E1E0" mask="url(#mask-2)" points="1316.12448 723.100285 1197.12588 723.100285 1256.62518 782.701773"></polygon>
                    <polygon id="Fill-133" fill="#404F62" mask="url(#mask-2)" points="1197.12588 723.100285 1197.12588 842.303261 1256.62518 782.701773"></polygon>
                    <polygon id="Fill-134" fill="#404F62" mask="url(#mask-2)" points="1256.62518 782.701773 1316.12448 842.303261 1316.12448 723.100285"></polygon>
                    <polygon id="Fill-135" fill="#D7E1E0" mask="url(#mask-2)" points="1197.12588 1080.70921 1316.12448 1080.70921 1256.62518 1021.10772"></polygon>
                    <polygon id="Fill-136" fill="#D7E1E0" mask="url(#mask-2)" points="1316.12448 961.506236 1197.12588 961.506236 1256.62518 1021.10772"></polygon>
                    <polygon id="Fill-137" fill="#404F62" mask="url(#mask-2)" points="1197.12588 961.506236 1197.12588 1080.70921 1256.62518 1021.10772"></polygon>
                    <polygon id="Fill-138" fill="#404F62" mask="url(#mask-2)" points="1256.62518 1021.10772 1316.12448 1080.70921 1316.12448 961.506236"></polygon>
                    <polygon id="Fill-139" fill="#D7E1E0" mask="url(#mask-2)" points="1316.12448 842.303261 1316.12448 961.506236 1375.62378 901.904748"></polygon>
                    <polygon id="Fill-140" fill="#D7E1E0" mask="url(#mask-2)" points="1435.12307 961.506236 1435.12307 842.303261 1375.62378 901.904748"></polygon>
                    <polygon id="Fill-141" fill="#404F62" mask="url(#mask-2)" points="1435.12307 842.303261 1316.12448 842.303261 1375.62378 901.904748"></polygon>
                    <polygon id="Fill-142" fill="#404F62" mask="url(#mask-2)" points="1375.62378 901.904748 1316.12448 961.506236 1435.12307 961.506236"></polygon>
                    <polygon id="Fill-143" fill="#D7E1E0" mask="url(#mask-2)" points="1078.12728 842.303261 1078.12728 961.506236 1137.62658 901.904748"></polygon>
                    <polygon id="Fill-144" fill="#D7E1E0" mask="url(#mask-2)" points="1197.12588 961.506236 1197.12588 842.303261 1137.62658 901.904748"></polygon>
                    <polygon id="Fill-145" fill="#404F62" mask="url(#mask-2)" points="1197.12588 842.303261 1078.12728 842.303261 1137.62658 901.904748"></polygon>
                    <polygon id="Fill-146" fill="#404F62" mask="url(#mask-2)" points="1137.62658 901.904748 1078.12728 961.506236 1197.12588 961.506236"></polygon>
                    <polygon id="Fill-147" fill="#D7E1E0" mask="url(#mask-2)" points="7.13991579 365.491358 364.135705 365.491358 364.135705 7.882431 7.13991579 7.882431"></polygon>
                    <path d="M221.337389,258.20868 C221.337389,277.963864 205.359123,293.969573 185.63781,293.969573 C165.916498,293.969573 149.938232,277.963864 149.938232,258.20868 C149.938232,238.453496 165.916498,222.447787 185.63781,222.447787 C205.359123,222.447787 221.337389,238.453496 221.337389,258.20868" id="Fill-151" fill="#A2A19C" mask="url(#mask-2)"></path>
                    <polygon id="Fill-156" fill="#525353" mask="url(#mask-2)" points="78.5390737 365.491358 7.13991579 365.491358 7.13991579 293.969573"></polygon>
                    <polygon id="Fill-159" fill="#525353" mask="url(#mask-2)" points="364.135705 293.969573 364.135705 365.491358 292.736547 365.491358"></polygon>
                    <polygon id="Fill-162" fill="#E1CD5B" mask="url(#mask-2)" points="1256.62518 365.491358 1435.12307 365.491358 1435.12307 186.686895 1256.62518 186.686895"></polygon>
                    <polygon id="Fill-163" fill="#E0DED2" mask="url(#mask-2)" points="1256.62518 186.686895 1435.12307 186.686895 1435.12307 365.491358"></polygon>
                    <polygon id="Fill-164" fill="#E1CD5B" mask="url(#mask-2)" points="1078.12728 365.491358 1256.62518 365.491358 1256.62518 186.686895 1078.12728 186.686895"></polygon>
                    <polygon id="Fill-165" fill="#E0DED2" mask="url(#mask-2)" points="1256.62518 186.686895 1256.62518 365.491358 1078.12728 365.491358"></polygon>
                    <polygon id="Fill-168" fill="#ECEADE" mask="url(#mask-2)" points="364.135705 723.100285 721.131495 723.100285 721.131495 365.491358 364.135705 365.491358"></polygon>
                    <polygon id="Fill-169" fill="#D7E1E0" mask="url(#mask-2)" points="364.135705 365.491358 364.135705 723.100285 542.6336 365.491358"></polygon>
                    <polygon id="Fill-170" fill="#D7E1E0" mask="url(#mask-2)" points="721.131495 365.491358 721.131495 723.100285 542.6336 365.491358"></polygon>
                    <polygon id="Fill-171" fill="#398EB6" mask="url(#mask-2)" points="364.135705 365.491358 721.131495 365.491358 721.131495 7.882431 364.135705 7.882431"></polygon>
                    <path d="M614.032758,311.850019 C589.897679,311.850019 569.473192,295.779291 562.798453,273.75925 C595.836791,266.086913 621.897483,239.981461 629.556666,206.886381 C651.538952,213.561747 667.582126,234.032149 667.582126,258.20868 C667.582126,287.792691 643.566046,311.850019 614.032758,311.850019 M471.234442,311.850019 C441.701154,311.850019 417.685074,287.792691 417.685074,258.20868 C417.685074,234.032149 433.728248,213.561747 455.710534,206.886381 C463.369717,239.981461 489.430409,266.086913 522.468747,273.75925 C515.794007,295.779291 495.369521,311.850019 471.234442,311.850019 M417.685074,115.165109 C417.685074,85.5810979 441.701154,61.5237701 471.234442,61.5237701 C495.369521,61.5237701 515.794007,77.5944985 522.468747,99.6145391 C489.430409,107.286876 463.369717,133.392328 455.710534,166.487408 C433.728248,159.812042 417.685074,139.34164 417.685074,115.165109 M614.032758,61.5237701 C643.566046,61.5237701 667.582126,85.5810979 667.582126,115.165109 C667.582126,139.34164 651.538952,159.812042 629.556666,166.487408 C621.897483,133.392328 595.836791,107.286876 562.798453,99.6145391 C569.473192,77.5944985 589.897679,61.5237701 614.032758,61.5237701 M558.157508,238.009194 C553.235293,239.504649 548.031809,240.328234 542.6336,240.328234 C537.235391,240.328234 532.031907,239.504649 527.109692,238.009194 C524.437633,237.196446 521.884572,236.145293 519.418056,234.953263 C508.535093,229.675822 499.718379,220.843965 494.449986,209.942311 C493.26,207.471559 492.210649,204.914113 491.399295,202.237465 C489.906404,197.306796 489.084231,192.094375 489.084231,186.686895 C489.084231,181.279414 489.906404,176.056156 491.399295,171.136324 C492.210649,168.459676 493.26,165.90223 494.449986,163.431478 C499.718379,152.529824 508.535093,143.697967 519.418056,138.420526 C521.884572,137.228496 524.437633,136.177343 527.109692,135.364595 C532.031907,133.86914 537.235391,133.045555 542.6336,133.045555 C548.031809,133.045555 553.235293,133.86914 558.157508,135.364595 C560.829567,136.177343 563.382628,137.228496 565.849144,138.420526 C576.732107,143.697967 585.548821,152.529824 590.817213,163.431478 C592.007199,165.90223 593.056551,168.459676 593.867905,171.136324 C595.360796,176.056156 596.182968,181.279414 596.182968,186.686895 C596.182968,192.094375 595.360796,197.306796 593.867905,202.237465 C593.056551,204.914113 592.007199,207.471559 590.817213,209.942311 C585.548821,220.843965 576.732107,229.675822 565.849144,234.953263 C563.382628,236.145293 560.829567,237.196446 558.157508,238.009194 M667.517218,186.686895 C689.218235,170.366923 703.281705,144.380675 703.281705,115.165109 C703.281705,65.8692603 663.244086,25.7628774 614.032758,25.7628774 C584.867284,25.7628774 558.92559,39.8505018 542.6336,61.5887899 C526.34161,39.8505018 500.399916,25.7628774 471.234442,25.7628774 C422.023113,25.7628774 381.985495,65.8692603 381.985495,115.165109 C381.985495,144.380675 396.048965,170.366923 417.749982,186.686895 C396.048965,203.006866 381.985495,228.993114 381.985495,258.20868 C381.985495,307.504529 422.023113,347.610912 471.234442,347.610912 C500.399916,347.610912 526.34161,333.523287 542.6336,311.784999 C558.92559,333.523287 584.867284,347.610912 614.032758,347.610912 C663.244086,347.610912 703.281705,307.504529 703.281705,258.20868 C703.281705,228.993114 689.218235,203.006866 667.517218,186.686895" id="Fill-172" fill="#D7E1E0" mask="url(#mask-2)"></path>
                    <polygon id="Fill-173" fill="#398EB6" mask="url(#mask-2)" points="721.131495 723.100285 1078.12728 723.100285 1078.12728 365.491358 721.131495 365.491358"></polygon>
                    <path d="M971.028547,669.458946 C946.893468,669.458946 926.468982,653.388217 919.794242,631.368177 C952.83258,623.69584 978.893273,597.590388 986.552455,564.495308 C1008.53474,571.170674 1024.57792,591.641076 1024.57792,615.817607 C1024.57792,645.401618 1000.56184,669.458946 971.028547,669.458946 M828.230231,669.458946 C798.696943,669.458946 774.680863,645.401618 774.680863,615.817607 C774.680863,591.641076 790.724037,571.170674 812.706324,564.495308 C820.365506,597.590388 846.426199,623.69584 879.464536,631.368177 C872.789797,653.388217 852.36531,669.458946 828.230231,669.458946 M774.680863,472.774036 C774.680863,443.190025 798.696943,419.132697 828.230231,419.132697 C852.36531,419.132697 872.789797,435.203425 879.464536,457.223466 C846.426199,464.895803 820.365506,491.001255 812.706324,524.096335 C790.724037,517.420969 774.680863,496.950567 774.680863,472.774036 M971.028547,419.132697 C1000.56184,419.132697 1024.57792,443.190025 1024.57792,472.774036 C1024.57792,496.950567 1008.53474,517.420969 986.552455,524.096335 C978.893273,491.001255 952.83258,464.895803 919.794242,457.223466 C926.468982,435.203425 946.893468,419.132697 971.028547,419.132697 M915.153297,595.618121 C910.231082,597.113576 905.027598,597.937161 899.629389,597.937161 C894.23118,597.937161 889.027696,597.113576 884.105481,595.618121 C881.433422,594.805373 878.880361,593.75422 876.413845,592.56219 C865.530882,587.284749 856.714168,578.452892 851.445776,567.551238 C850.25579,565.080486 849.206439,562.52304 848.395084,559.846392 C846.902193,554.915723 846.080021,549.703302 846.080021,544.295821 C846.080021,538.888341 846.902193,533.67592 848.395084,528.745251 C849.206439,526.068603 850.25579,523.511157 851.445776,521.040405 C856.714168,510.138751 865.530882,501.306894 876.413845,496.029453 C878.880361,494.837423 881.433422,493.78627 884.105481,492.973522 C889.027696,491.478067 894.23118,490.654482 899.629389,490.654482 C905.027598,490.654482 910.231082,491.478067 915.153297,492.973522 C917.825356,493.78627 920.378417,494.837423 922.844934,496.029453 C933.727896,501.306894 942.54461,510.138751 947.813003,521.040405 C949.002989,523.511157 950.05234,526.068603 950.863694,528.745251 C952.356586,533.67592 953.178758,538.888341 953.178758,544.295821 C953.178758,549.703302 952.356586,554.915723 950.863694,559.846392 C950.05234,562.52304 949.002989,565.080486 947.813003,567.551238 C942.54461,578.452892 933.727896,587.284749 922.844934,592.56219 C920.378417,593.75422 917.825356,594.805373 915.153297,595.618121 M1024.51301,544.295821 C1046.21402,527.97585 1060.27749,501.989602 1060.27749,472.774036 C1060.27749,423.478187 1020.23988,383.371804 971.028547,383.371804 C941.863073,383.371804 915.921379,397.459429 899.629389,419.197717 C883.3374,397.459429 857.395706,383.371804 828.230231,383.371804 C779.018903,383.371804 738.981284,423.478187 738.981284,472.774036 C738.981284,501.989602 753.044755,527.97585 774.745771,544.295821 C753.044755,560.615793 738.981284,586.602041 738.981284,615.817607 C738.981284,665.113456 779.018903,705.219839 828.230231,705.219839 C857.395706,705.219839 883.3374,691.132214 899.629389,669.393926 C915.921379,691.132214 941.863073,705.219839 971.028547,705.219839 C1020.23988,705.219839 1060.27749,665.113456 1060.27749,615.817607 C1060.27749,586.602041 1046.21402,560.615793 1024.51301,544.295821" id="Fill-174" fill="#D7E1E0" mask="url(#mask-2)"></path>
                    <polygon id="Fill-175" fill="#398EB6" mask="url(#mask-2)" points="364.135705 1080.70921 721.131495 1080.70921 721.131495 723.100285 364.135705 723.100285"></polygon>
                    <path d="M614.032758,1027.06787 C589.897679,1027.06787 569.473192,1010.99714 562.798453,988.977104 C595.836791,981.304767 621.897483,955.199315 629.556666,922.104235 C651.538952,928.779601 667.582126,949.250003 667.582126,973.426534 C667.582126,1003.01055 643.566046,1027.06787 614.032758,1027.06787 M471.234442,1027.06787 C441.701154,1027.06787 417.685074,1003.01055 417.685074,973.426534 C417.685074,949.250003 433.728248,928.779601 455.710534,922.104235 C463.369717,955.199315 489.430409,981.304767 522.468747,988.977104 C515.794007,1010.99714 495.369521,1027.06787 471.234442,1027.06787 M417.685074,830.382963 C417.685074,800.798952 441.701154,776.741624 471.234442,776.741624 C495.369521,776.741624 515.794007,792.812352 522.468747,814.832393 C489.430409,822.50473 463.369717,848.610182 455.710534,881.705262 C433.728248,875.029896 417.685074,854.559494 417.685074,830.382963 M614.032758,776.741624 C643.566046,776.741624 667.582126,800.798952 667.582126,830.382963 C667.582126,854.559494 651.538952,875.029896 629.556666,881.705262 C621.897483,848.610182 595.836791,822.50473 562.798453,814.832393 C569.473192,792.812352 589.897679,776.741624 614.032758,776.741624 M558.157508,953.227048 C553.235293,954.722503 548.031809,955.546088 542.6336,955.546088 C537.235391,955.546088 532.031907,954.722503 527.109692,953.227048 C524.437633,952.4143 521.884572,951.363147 519.418056,950.171117 C508.535093,944.893676 499.718379,936.061819 494.449986,925.160165 C493.26,922.689413 492.210649,920.131967 491.399295,917.455318 C489.906404,912.52465 489.084231,907.312229 489.084231,901.904748 C489.084231,896.497268 489.906404,891.284847 491.399295,886.354178 C492.210649,883.67753 493.26,881.120084 494.449986,878.649332 C499.718379,867.747678 508.535093,858.915821 519.418056,853.63838 C521.884572,852.44635 524.437633,851.395197 527.109692,850.582449 C532.031907,849.086994 537.235391,848.263409 542.6336,848.263409 C548.031809,848.263409 553.235293,849.086994 558.157508,850.582449 C560.829567,851.395197 563.382628,852.44635 565.849144,853.63838 C576.732107,858.915821 585.548821,867.747678 590.817213,878.649332 C592.007199,881.120084 593.056551,883.67753 593.867905,886.354178 C595.360796,891.284847 596.182968,896.497268 596.182968,901.904748 C596.182968,907.312229 595.360796,912.52465 593.867905,917.455318 C593.056551,920.131967 592.007199,922.689413 590.817213,925.160165 C585.548821,936.061819 576.732107,944.893676 565.849144,950.171117 C563.382628,951.363147 560.829567,952.4143 558.157508,953.227048 M667.517218,901.904748 C689.218235,885.584777 703.281705,859.598529 703.281705,830.382963 C703.281705,781.087114 663.244086,740.980731 614.032758,740.980731 C584.867284,740.980731 558.92559,755.068356 542.6336,776.806644 C526.34161,755.068356 500.399916,740.980731 471.234442,740.980731 C422.023113,740.980731 381.985495,781.087114 381.985495,830.382963 C381.985495,859.598529 396.048965,885.584777 417.749982,901.904748 C396.048965,918.22472 381.985495,944.210968 381.985495,973.426534 C381.985495,1022.72238 422.023113,1062.82877 471.234442,1062.82877 C500.399916,1062.82877 526.34161,1048.74114 542.6336,1027.00285 C558.92559,1048.74114 584.867284,1062.82877 614.032758,1062.82877 C663.244086,1062.82877 703.281705,1022.72238 703.281705,973.426534 C703.281705,944.210968 689.218235,918.22472 667.517218,901.904748" id="Fill-176" fill="#D7E1E0" mask="url(#mask-2)"></path>
                    <path d="M14.2798316,1073.55703 L1427.98316,1073.55703 L1427.98316,15.0346095 L14.2798316,15.0346095 L14.2798316,1073.55703 Z M0,1087.86139 L1442.26299,1087.86139 L1442.26299,0.730252464 L0,0.730252464 L0,1087.86139 Z" id="Fill-177" fill="#D7E1E0" mask="url(#mask-2)"></path>
                    <polygon id="Fill-178" fill="#D7E1E0" mask="url(#mask-2)" points="7.13991579 730.252464 1435.12307 730.252464 1435.12307 715.948106 7.13991579 715.948106"></polygon>
                    <polygon id="Fill-179" fill="#D7E1E0" mask="url(#mask-2)" points="7.13991579 372.643537 1435.12307 372.643537 1435.12307 358.339179 7.13991579 358.339179"></polygon>
                    <polygon id="Fill-180" fill="#D7E1E0" mask="url(#mask-2)" points="1070.98737 1080.70921 1085.2672 1080.70921 1085.2672 7.882431 1070.98737 7.882431"></polygon>
                    <polygon id="Fill-181" fill="#D7E1E0" mask="url(#mask-2)" points="713.991579 1080.70921 728.27141 1080.70921 728.27141 7.882431 713.991579 7.882431"></polygon>
                    <polygon id="Fill-182" fill="#D7E1E0" mask="url(#mask-2)" points="356.995789 1080.70921 371.275621 1080.70921 371.275621 7.882431 356.995789 7.882431"></polygon>
                </g>
            </g>
        </g>
    </g>
</svg>