<?xml version="1.0" encoding="UTF-8"?>
<svg width="16px" height="16px" viewBox="0 0 16 16" version="1.1" xmlns="http://www.w3.org/2000/svg" xmlns:xlink="http://www.w3.org/1999/xlink">
    <!-- Generator: Sketch 39.1 (31720) - http://www.bohemiancoding.com/sketch -->
    <title>Page 1</title>
    <desc>Created with Sketch.</desc>
    <defs>
        <polygon id="path-1" points="15.9184176 7.61221065 15.9184176 3.43917929e-05 0 3.43917929e-05 0 7.61221065 0 15.2243869 15.9184176 15.2243869"></polygon>
    </defs>
    <g id="Page-1" stroke="none" stroke-width="1" fill="none" fill-rule="evenodd">
        <g id="PC---Home---Preconference" transform="translate(-1250.000000, -34.000000)">
            <g id="Page-1" transform="translate(1250.000000, 34.000000)">
                <mask id="mask-2" fill="white">
                    <use xlink:href="#path-1"></use>
                </mask>
                <g id="Clip-2"></g>
                <path d="M1.75824176,6.10454323 C1.75824176,3.68662824 3.76949451,1.71958964 6.24175824,1.71958964 C8.71402198,1.71958964 10.7252747,3.68662824 10.7252747,6.10454323 C10.7252747,8.52245823 8.71402198,10.4894968 6.24175824,10.4894968 C3.76949451,10.4894968 1.75824176,8.52245823 1.75824176,6.10454323 L1.75824176,6.10454323 Z M15.9184176,14.008637 L11.3777582,9.56796873 C12.0741978,8.58298779 12.4835165,7.38993649 12.4835165,6.10454323 C12.4835165,2.73844651 9.68351648,0 6.24175824,0 C2.8,0 0,2.73844651 0,6.10454323 C0,9.47063996 2.8,12.2090865 6.24175824,12.2090865 C7.73608791,12.2090865 9.10892308,11.6923498 10.1846154,10.8327269 L14.674989,15.2243869 L15.9184176,14.008637 Z" id="Fill-1" fill="#FEFEFE" mask="url(#mask-2)"></path>
            </g>
        </g>
    </g>
</svg>