<?xml version="1.0" encoding="UTF-8"?>
<svg width="24px" height="27px" viewBox="0 0 24 27" version="1.1" xmlns="http://www.w3.org/2000/svg" xmlns:xlink="http://www.w3.org/1999/xlink">
    <!-- Generator: Sketch 39.1 (31720) - http://www.bohemiancoding.com/sketch -->
    <title>Page 1</title>
    <desc>Created with Sketch.</desc>
    <defs></defs>
    <g id="Page-1" stroke="none" stroke-width="1" fill="none" fill-rule="evenodd">
        <g id="PC---Home---Preconference" transform="translate(-614.000000, -3002.000000)" fill="#FFFFFF">
            <g id="Group-5" transform="translate(614.000000, 3001.695652)">
                <g id="Page-1">
                    <path d="M25.0695273,13.0808727 C24.9953455,12.9019636 24.8891636,12.7419636 24.7553455,12.6081455 L14.5735273,2.42632727 C14.0062545,1.8576 13.0855273,1.8576 12.5168,2.42632727 C11.9495273,2.9936 11.9495273,3.91432727 12.5168,4.48305455 L20.2157091,12.1819636 L0.454254545,12.1819636 C-0.348654545,12.1819636 -1.00029091,12.8336 -1.00029091,13.6365091 C-1.00029091,14.4394182 -0.348654545,15.0910545 0.454254545,15.0910545 L20.2157091,15.0910545 L12.5168,22.7899636 C11.9495273,23.3572364 11.9495273,24.2779636 12.5168,24.8466909 C12.8004364,25.1303273 13.1728,25.2728727 13.5451636,25.2728727 C13.9175273,25.2728727 14.2898909,25.1303273 14.5735273,24.8466909 L24.7553455,14.6648727 C24.8891636,14.5310545 24.9953455,14.3696 25.0695273,14.1921455 C25.2164364,13.8357818 25.2164364,13.4357818 25.0695273,13.0808727 Z" id="Fill-1" transform="translate(12.089709, 13.636327) rotate(90.000000) translate(-12.089709, -13.636327) "></path>
                </g>
            </g>
        </g>
    </g>
</svg>