<?xml version="1.0" encoding="UTF-8"?>
<svg width="29px" height="29px" viewBox="0 0 29 29" version="1.1" xmlns="http://www.w3.org/2000/svg" xmlns:xlink="http://www.w3.org/1999/xlink">
    <!-- Generator: Sketch 39.1 (31720) - http://www.bohemiancoding.com/sketch -->
    <title>Fill 2</title>
    <desc>Created with Sketch.</desc>
    <defs></defs>
    <g id="Page-1" stroke="none" stroke-width="1" fill="none" fill-rule="evenodd">
        <g id="PC---Sponsor" transform="translate(-639.000000, -1887.000000)" fill="#398EB6">
            <path d="M659.944444,1912.77778 C657.766544,1912.77778 655.922144,1911.32939 655.319911,1909.34579 C658.3024,1908.65398 660.653978,1906.3024 661.345789,1903.31991 C663.329389,1903.92214 664.777778,1905.76654 664.777778,1907.94444 C664.777778,1910.60954 662.609544,1912.77778 659.944444,1912.77778 M647.055556,1912.77778 C644.390456,1912.77778 642.222222,1910.60954 642.222222,1907.94444 C642.222222,1905.76654 643.670611,1903.92214 645.654211,1903.31991 C646.346022,1906.3024 648.6976,1908.65398 651.680089,1909.34579 C651.077856,1911.32939 649.233456,1912.77778 647.055556,1912.77778 M642.222222,1895.05556 C642.222222,1892.39046 644.390456,1890.22222 647.055556,1890.22222 C649.233456,1890.22222 651.077856,1891.67061 651.680089,1893.65421 C648.6976,1894.34602 646.346022,1896.6976 645.654211,1899.68009 C643.670611,1899.07786 642.222222,1897.23346 642.222222,1895.05556 M659.944444,1890.22222 C662.609544,1890.22222 664.777778,1892.39046 664.777778,1895.05556 C664.777778,1897.23346 663.329389,1899.07786 661.345789,1899.68009 C660.653978,1896.6976 658.3024,1894.34602 655.319911,1893.65421 C655.922144,1891.67061 657.766544,1890.22222 659.944444,1890.22222 M654.901344,1906.12453 C654.457322,1906.25954 653.9872,1906.33333 653.5,1906.33333 C653.0128,1906.33333 652.542678,1906.25954 652.098656,1906.12453 C651.857956,1906.05139 651.627567,1905.95666 651.404267,1905.84871 C650.422133,1905.37343 649.626567,1904.57787 649.151289,1903.59573 C649.043344,1903.37276 648.948611,1903.14204 648.875467,1902.90134 C648.740778,1902.45732 648.666667,1901.9872 648.666667,1901.5 C648.666667,1901.0128 648.740778,1900.54268 648.875467,1900.09866 C648.948611,1899.85796 649.043344,1899.62724 649.151289,1899.40427 C649.626567,1898.42213 650.422133,1897.62657 651.404267,1897.15129 C651.627567,1897.04334 651.857956,1896.94861 652.098656,1896.87547 C652.542678,1896.74046 653.0128,1896.66667 653.5,1896.66667 C653.9872,1896.66667 654.457322,1896.74046 654.901344,1896.87547 C655.142044,1896.94861 655.372433,1897.04334 655.595733,1897.15129 C656.577867,1897.62657 657.373433,1898.42213 657.848711,1899.40427 C657.956656,1899.62724 658.051389,1899.85796 658.124533,1900.09866 C658.259222,1900.54268 658.333333,1901.0128 658.333333,1901.5 C658.333333,1901.9872 658.259222,1902.45732 658.124533,1902.90134 C658.051389,1903.14204 657.956656,1903.37276 657.848711,1903.59573 C657.373433,1904.57787 656.577867,1905.37343 655.595733,1905.84871 C655.372433,1905.95666 655.142044,1906.05139 654.901344,1906.12453 M664.7723,1901.5 C666.730767,1900.02906 668,1897.68779 668,1895.05556 C668,1890.61372 664.386278,1887 659.944444,1887 C657.312211,1887 654.970944,1888.26923 653.5,1890.2277 C652.029056,1888.26923 649.687789,1887 647.055556,1887 C642.613722,1887 639,1890.61372 639,1895.05556 C639,1897.68779 640.269233,1900.02906 642.2277,1901.5 C640.269233,1902.97094 639,1905.31221 639,1907.94444 C639,1912.38628 642.613722,1916 647.055556,1916 C649.687789,1916 652.029056,1914.73077 653.5,1912.7723 C654.970944,1914.73077 657.312211,1916 659.944444,1916 C664.386278,1916 668,1912.38628 668,1907.94444 C668,1905.31221 666.730767,1902.97094 664.7723,1901.5" id="Fill-2"></path>
        </g>
    </g>
</svg>