<?xml version="1.0" encoding="UTF-8"?>
<svg width="40px" height="33px" viewBox="0 0 40 33" version="1.1" xmlns="http://www.w3.org/2000/svg" xmlns:xlink="http://www.w3.org/1999/xlink">
    <!-- Generator: Sketch 39.1 (31720) - http://www.bohemiancoding.com/sketch -->
    <title>Page 1</title>
    <desc>Created with Sketch.</desc>
    <defs>
        <polygon id="path-1" points="19.9999 32.5084 0 32.5084 0 0.000400000001 19.9999 0.000400000001 39.9998 0.000400000001 39.9998 32.5084"></polygon>
    </defs>
    <g id="Page-1" stroke="none" stroke-width="1" fill="none" fill-rule="evenodd">
        <g id="PC---Home---Preconference" transform="translate(-557.000000, -2726.000000)">
            <g id="Page-1" transform="translate(557.000000, 2726.000000)">
                <mask id="mask-2" fill="white">
                    <use xlink:href="#path-1"></use>
                </mask>
                <g id="Clip-2"></g>
                <path d="M12.5798,32.5084 C27.6758,32.5084 35.9298,20.0024 35.9298,9.1584 C35.9298,8.8024 35.9218,8.4504 35.9058,8.0984 C37.5098,6.9384 38.9018,5.4944 39.9998,3.8484 C38.5298,4.5024 36.9478,4.9424 35.2878,5.1404 C36.9818,4.1244 38.2818,2.5164 38.8958,0.6004 C37.3098,1.5404 35.5538,2.2244 33.6858,2.5924 C32.1878,0.9984 30.0558,0.000400000001 27.6938,0.000400000001 C23.1618,0.000400000001 19.4878,3.6744 19.4878,8.2064 C19.4878,8.8504 19.5598,9.4764 19.6998,10.0764 C12.8798,9.7344 6.8318,6.4684 2.7838,1.5024 C2.0798,2.7144 1.6718,4.1244 1.6718,5.6264 C1.6718,8.4744 3.1218,10.9884 5.3238,12.4584 C3.9778,12.4164 2.7138,12.0484 1.6078,11.4324 C1.6058,11.4664 1.6058,11.5004 1.6058,11.5364 C1.6058,15.5124 4.4358,18.8304 8.1898,19.5824 C7.5018,19.7704 6.7758,19.8704 6.0258,19.8704 C5.4978,19.8704 4.9838,19.8184 4.4838,19.7224 C5.5298,22.9844 8.5578,25.3564 12.1498,25.4224 C9.3418,27.6244 5.8038,28.9364 1.9578,28.9364 C1.2958,28.9364 0.6418,28.8984 -0.000199999995,28.8224 C3.6318,31.1504 7.9458,32.5084 12.5798,32.5084" id="Fill-1" fill="#626262" mask="url(#mask-2)"></path>
            </g>
        </g>
    </g>
</svg>