<?xml version="1.0" encoding="UTF-8"?>
<svg width="76px" height="76px" viewBox="0 0 76 76" version="1.1" xmlns="http://www.w3.org/2000/svg" xmlns:xlink="http://www.w3.org/1999/xlink">
    <!-- Generator: Sketch 39.1 (31720) - http://www.bohemiancoding.com/sketch -->
    <title>Group 10</title>
    <desc>Created with Sketch.</desc>
    <defs></defs>
    <g id="Page-1" stroke="none" stroke-width="1" fill="none" fill-rule="evenodd">
        <g id="PC---Home---Preconference" transform="translate(-684.000000, -666.000000)">
            <g id="Group-10" transform="translate(722.000000, 704.000000) rotate(90.000000) translate(-722.000000, -704.000000) translate(686.000000, 668.000000)">
                <path d="M36,72 C55.882251,72 72,55.882251 72,36 C72,16.117749 55.882251,0 36,0 C16.117749,0 0,16.117749 0,36 C0,55.882251 16.117749,72 36,72 Z" id="Oval-2" stroke="#D6E0DF" stroke-width="4" opacity="0.899999976"></path>
                <g id="Page-1" transform="translate(24.000000, 24.000000)" fill="#D6E0DF">
                    <path d="M26.0695273,12.1921455 C26.2164364,11.8357818 26.2164364,11.4357818 26.0695273,11.0808727 C25.9953455,10.9019636 25.8891636,10.7419636 25.7553455,10.6081455 L15.5735273,0.426327273 C15.0062545,-0.1424 14.0855273,-0.1424 13.5168,0.426327273 C12.9495273,0.9936 12.9495273,1.91432727 13.5168,2.48305455 L21.2157091,10.1819636 L1.45425455,10.1819636 C0.651345455,10.1819636 -0.000290909091,10.8336 -0.000290909091,11.6365091 C-0.000290909091,12.4394182 0.651345455,13.0910545 1.45425455,13.0910545 L21.2157091,13.0910545 L13.5168,20.7899636 C12.9495273,21.3572364 12.9495273,22.2779636 13.5168,22.8466909 C13.8004364,23.1303273 14.1728,23.2728727 14.5451636,23.2728727 C14.9175273,23.2728727 15.2898909,23.1303273 15.5735273,22.8466909 L25.7553455,12.6648727 C25.8891636,12.5310545 25.9953455,12.3696 26.0695273,12.1921455" id="Fill-1"></path>
                </g>
            </g>
        </g>
    </g>
</svg>