<?xml version="1.0" encoding="UTF-8"?>
<svg width="30px" height="34px" viewBox="0 0 30 34" version="1.1" xmlns="http://www.w3.org/2000/svg" xmlns:xlink="http://www.w3.org/1999/xlink">
    <!-- Generator: Sketch 39.1 (31720) - http://www.bohemiancoding.com/sketch -->
    <title>Page 1</title>
    <desc>Created with Sketch.</desc>
    <defs></defs>
    <g id="Page-1" stroke="none" stroke-width="1" fill="none" fill-rule="evenodd">
        <g id="PC---Home---Preconference" transform="translate(-165.000000, -23.000000)" fill="#FEFEFE">
            <g id="Group-4">
                <g id="Page-1" transform="translate(165.000000, 23.000000)">
                    <path d="M18.5294118,24.9864706 C17.3366471,24.9864706 16.3265294,24.1932353 15.9967059,23.1068824 C17.6301176,22.728 18.918,21.4401176 19.2968824,19.8067059 C20.3832353,20.1365294 21.1764706,21.1466471 21.1764706,22.3394118 C21.1764706,23.799 19.989,24.9864706 18.5294118,24.9864706 M11.4705882,24.9864706 C10.011,24.9864706 8.82352941,23.799 8.82352941,22.3394118 C8.82352941,21.1466471 9.61676471,20.1365294 10.7031176,19.8067059 C11.082,21.4401176 12.3698824,22.728 14.0032941,23.1068824 C13.6734706,24.1932353 12.6633529,24.9864706 11.4705882,24.9864706 M8.82352941,15.2805882 C8.82352941,13.821 10.011,12.6335294 11.4705882,12.6335294 C12.6633529,12.6335294 13.6734706,13.4267647 14.0032941,14.5131176 C12.3698824,14.892 11.082,16.1798824 10.7031176,17.8132941 C9.61676471,17.4834706 8.82352941,16.4733529 8.82352941,15.2805882 M18.5294118,12.6335294 C19.989,12.6335294 21.1764706,13.821 21.1764706,15.2805882 C21.1764706,16.4733529 20.3832353,17.4834706 19.2968824,17.8132941 C18.918,16.1798824 17.6301176,14.892 15.9967059,14.5131176 C16.3265294,13.4267647 17.3366471,12.6335294 18.5294118,12.6335294 M15.7674706,21.3427059 C15.5242941,21.4166471 15.2668235,21.4570588 15,21.4570588 C14.7331765,21.4570588 14.4757059,21.4166471 14.2325294,21.3427059 C14.1007059,21.3026471 13.9745294,21.2507647 13.8522353,21.1916471 C13.3143529,20.9313529 12.8786471,20.4956471 12.6183529,19.9577647 C12.5592353,19.8356471 12.5073529,19.7092941 12.4672941,19.5774706 C12.3935294,19.3342941 12.3529412,19.0768235 12.3529412,18.81 C12.3529412,18.5431765 12.3935294,18.2857059 12.4672941,18.0425294 C12.5073529,17.9107059 12.5592353,17.7843529 12.6183529,17.6622353 C12.8786471,17.1243529 13.3143529,16.6886471 13.8522353,16.4283529 C13.9745294,16.3692353 14.1007059,16.3173529 14.2325294,16.2772941 C14.4757059,16.2033529 14.7331765,16.1629412 15,16.1629412 C15.2668235,16.1629412 15.5242941,16.2033529 15.7674706,16.2772941 C15.8992941,16.3173529 16.0254706,16.3692353 16.1477647,16.4283529 C16.6856471,16.6886471 17.1213529,17.1243529 17.3816471,17.6622353 C17.4407647,17.7843529 17.4926471,17.9107059 17.5327059,18.0425294 C17.6064706,18.2857059 17.6470588,18.5431765 17.6470588,18.81 C17.6470588,19.0768235 17.6064706,19.3342941 17.5327059,19.5774706 C17.4926471,19.7092941 17.4407647,19.8356471 17.3816471,19.9577647 C17.1213529,20.4956471 16.6856471,20.9313529 16.1477647,21.1916471 C16.0254706,21.2507647 15.8992941,21.3026471 15.7674706,21.3427059 M21.1734706,18.81 C22.2460588,18.0044118 22.9411765,16.7221765 22.9411765,15.2805882 C22.9411765,12.8479412 20.9620588,10.8688235 18.5294118,10.8688235 C17.0878235,10.8688235 15.8055882,11.5639412 15,12.6365294 C14.1944118,11.5639412 12.9121765,10.8688235 11.4705882,10.8688235 C9.03794118,10.8688235 7.05882353,12.8479412 7.05882353,15.2805882 C7.05882353,16.7221765 7.75394118,18.0044118 8.82652941,18.81 C7.75394118,19.6155882 7.05882353,20.8978235 7.05882353,22.3394118 C7.05882353,24.7720588 9.03794118,26.7511765 11.4705882,26.7511765 C12.9121765,26.7511765 14.1944118,26.0560588 15,24.9834706 C15.8055882,26.0560588 17.0878235,26.7511765 18.5294118,26.7511765 C20.9620588,26.7511765 22.9411765,24.7720588 22.9411765,22.3394118 C22.9411765,20.8978235 22.2460588,19.6155882 21.1734706,18.81" id="Fill-1"></path>
                    <path d="M1.76470588,32.0452941 L28.2352941,32.0452941 L28.2352941,8.59058824 L15,1.97294118 L1.76470588,8.59058824 L1.76470588,32.0452941 Z M30,33.81 L0,33.81 L0,7.5 L15,0 L30,7.5 L30,33.81 Z" id="Fill-3"></path>
                </g>
            </g>
        </g>
    </g>
</svg>