<?xml version="1.0" encoding="utf-8"?>
<!-- Generator: Adobe Illustrator 19.2.1, SVG Export Plug-In . SVG Version: 6.00 Build 0)  -->
<svg version="1.1" id="Capa_1" xmlns="http://www.w3.org/2000/svg" xmlns:xlink="http://www.w3.org/1999/xlink" x="0px" y="0px"
	 viewBox="0 0 2331 622" style="enable-background:new 0 0 2331 622;" xml:space="preserve">
<style type="text/css">
	.st0{fill:#004876;}
</style>
<g>
	<path class="st0" d="M584.2,290.4L459.4,74.7C452.3,62.3,439.1,55,424.8,55H175.1c-14.3,0-27.5,7.3-34.6,19.7L15.7,290.5
		c-7.2,12.4-7.2,27.6,0,39.9l124.8,216.3c7.1,12.4,20.3,20.3,34.6,20.3h249.6c14.3,0,27.5-7.9,34.6-20.3l124.8-216.2
		C591.4,318.1,591.4,302.8,584.2,290.4z M218,183h32v99.2l-32,56.9V183z M181.6,439l144-256h36l-144,256H181.6z M381.6,439l-44-78.4
		l18-31.9l62,110.3H381.6z M273.6,439h-36l144-256h36L273.6,439z"/>
	<g>
		<path class="st0" d="M804.9,438.7l-56.1-86.6l-34.4,38.3v48.3h-30.2V182.4h30.2v167.2l81.3-90.5h36.6l-63.9,71L839,438.7H804.9z"
			/>
		<path class="st0" d="M868.1,217.9v-35.5h35.1v35.5H868.1z M870.2,438.7V259.1h30.9v179.6H870.2z"/>
		<path class="st0" d="M1016.2,441.2c-38.7,0-49.3-24.5-49.3-48.6V285H932v-25.9h34.8v-45.8l30.2-7.1v52.9h53.2V285H997v104
			c0,17.4,7.5,24.5,24.1,24.5c12.8,0,30.9-3.2,30.9-3.2v25.9C1043.9,438.4,1032.9,441.2,1016.2,441.2z"/>
		<path class="st0" d="M1205.2,423.8c-12.8,12.4-29.8,19.5-51.8,19.5c-32.3,0-52.9-14.9-65.7-33.7c-9.6-14.2-14.9-33.7-14.9-60.7
			c0-27,5.3-46.5,14.9-60.7c12.8-18.8,33-33.7,65.3-33.7c21.3,0,38.7,7.1,51.1,19.2c12.1,11.7,19.9,26.6,21.3,46.1h-30.5
			c-1.4-12.4-6-21.3-12.8-28c-7.1-6.7-17.4-11-29.1-11c-13.8,0-23.4,5-31.2,11.7c-14.2,12.1-18.1,34.4-18.1,56.4s3.9,44.4,18.1,56.4
			c7.8,6.7,17.4,11.7,31.2,11.7c12.4,0,23.4-4.6,30.5-12.1c6.4-6.7,10.7-14.9,12.1-26.6h30.5
			C1224.7,397.5,1217.3,412.1,1205.2,423.8z"/>
		<path class="st0" d="M1389.3,422.4c-13.1,12.8-31.6,20.9-54.3,20.9c-22.7,0-41.2-8.2-54.3-20.9c-19.5-19.2-25.6-45.1-25.6-73.5
			c0-28.4,6-54.3,25.6-73.5c13.1-12.8,31.6-20.9,54.3-20.9c22.7,0,41.2,8.2,54.3,20.9c19.5,19.2,25.6,45.1,25.6,73.5
			C1414.9,377.3,1408.8,403.2,1389.3,422.4z M1367.3,293.2c-7.5-7.5-18.1-12.8-32.3-12.8c-14.2,0-24.8,5.3-32.3,12.8
			c-12.8,13.1-16.7,34.8-16.7,55.7c0,20.9,3.9,42.6,16.7,55.7c7.5,7.5,18.1,12.8,32.3,12.8c14.2,0,24.8-5.3,32.3-12.8
			c12.8-13.1,16.7-34.8,16.7-55.7C1384,328,1380.1,306.3,1367.3,293.2z"/>
		<path class="st0" d="M1572,438.7v-114c0-27-11-43-39.4-43c-17.4,0-31.2,11.4-39,27.7c-6,13.1-6.4,32-6.4,45.8v83.4h-30.2V259.1
			h26.3l2.5,27c9.2-20.6,34.1-31.6,54.3-31.6c40.8,0,62.1,24.5,62.1,66v118.2L1572,438.7L1572,438.7z"/>
		<path class="st0" d="M1774.4,423.8c-12.8,12.4-29.8,19.5-51.8,19.5c-32.3,0-52.9-14.9-65.7-33.7c-9.6-14.2-14.9-33.7-14.9-60.7
			c0-27,5.3-46.5,14.9-60.7c12.8-18.8,33-33.7,65.3-33.7c21.3,0,38.7,7.1,51.1,19.2c12.1,11.7,19.9,26.6,21.3,46.1h-30.5
			c-1.4-12.4-6-21.3-12.8-28c-7.1-6.7-17.4-11-29.1-11c-13.8,0-23.4,5-31.2,11.7c-14.2,12.1-18.1,34.4-18.1,56.4s3.9,44.4,18.1,56.4
			c7.8,6.7,17.4,11.7,31.2,11.7c12.4,0,23.4-4.6,30.5-12.1c6.4-6.7,10.7-14.9,12.1-26.6h30.5C1794,397.5,1786.5,412.1,1774.4,423.8z
			"/>
		<path class="st0" d="M1982.7,358.8h-127.1c0,16.3,6.4,34.1,17.4,45.1c8.2,8.2,19.2,12.8,33,12.8c14.2,0,25.9-3.9,33.4-11.7
			c5-5,8.2-9.9,10.6-19.5h29.5c-2.5,17.7-13.1,34.4-27.7,44.4c-12.8,8.5-28.8,13.5-45.8,13.5c-25.2,0-45.8-10.7-59.6-27
			c-14.9-17.4-22.4-41.2-22.4-66.7c0-21.7,3.9-40.8,13.8-57.5c12.8-21.7,36.6-37.6,67.8-37.6c23.1,0,41.5,8.9,54.7,23.1
			c14.6,16,23.1,39,22.7,63.2L1982.7,358.8z M1941.2,296.4c-7.5-9.9-19.5-16.3-35.5-16.3c-32.7,0-48.6,26.6-49.3,52.9h95.8
			C1952.2,319.4,1948.3,305.9,1941.2,296.4z"/>
		<path class="st0" d="M2155.8,425.6c-11.7,11-28.4,18.1-49.3,18.1c-19.5,0-42.6-9.2-52.2-25.6v97.6h-30.2V259.4h26.6l2.1,23.4
			c10.3-18.1,33.4-28,53.6-28c22,0,39,7.5,50.8,19.5c17,17.4,25.9,44.7,25.9,74.6C2183.2,379.8,2173.9,408.2,2155.8,425.6z
			 M2101.5,280.4c-13.1,0-22,5.3-29.1,11.7c-14.9,13.1-19.9,34.8-19.9,57.2c0,22.4,5,44,19.9,57.2c7.1,6.4,16,11.7,29.1,11.7
			c40.1,0,50.8-35.9,50.8-68.9S2141.6,280.4,2101.5,280.4z"/>
		<path class="st0" d="M2284.8,441.2c-38.7,0-49.3-24.5-49.3-48.6V285h-34.8v-25.9h34.8v-45.8l30.2-7.1v52.9h53.2V285h-53.2v104
			c0,17.4,7.5,24.5,24.1,24.5c12.8,0,30.9-3.2,30.9-3.2v25.9C2312.5,438.4,2301.5,441.2,2284.8,441.2z"/>
	</g>
</g>
</svg>
