<?xml version="1.0" encoding="utf-8"?>
<!-- Generator: Adobe Illustrator 21.1.0, SVG Export Plug-In . SVG Version: 6.00 Build 0)  -->
<svg version="1.1" id="Logo" xmlns="http://www.w3.org/2000/svg" xmlns:xlink="http://www.w3.org/1999/xlink" x="0px" y="0px"
	 viewBox="0 0 164.5 52.6" style="enable-background:new 0 0 164.5 52.6;" xml:space="preserve">
<style type="text/css">
	.st0{fill:#164194;}
	.st1{opacity:0.3;fill:#FFFFFF;}
	.st2{fill:#808080;}
</style>
<g>
	<path class="st0" d="M18.4,28.7c0,0.6,0.1,2.3,2.5,2.3c0.3,0,2.2,0,2.2-1.7c0-0.7-0.3-1.1-1.3-1.4l-3.6-0.9c-1-0.3-3.6-0.9-3.6-4
		c0-2.4,1.8-4.6,6.1-4.6c5.7,0,5.9,3.1,5.9,4.6h-4.1c0-0.4,0-2-1.9-2c-1.2,0-1.9,0.7-1.9,1.5c0,1.1,0.9,1.3,1.5,1.5l2.7,0.7
		c1.9,0.5,4.2,1.1,4.2,4.2c0,3.2-2.8,4.7-6.4,4.7c-1.5,0-4-0.2-5.3-1.7c-1.1-1.2-1.1-2.6-1.1-3.2H18.4z"/>
	<path class="st0" d="M31.4,18.7l3.2,6.1l3.3-6.1H42l-5.7,9.4v5.1h-4.1V28l-5.5-9.2H31.4z"/>
	<path class="st0" d="M45.7,28.7c0,0.6,0.1,2.3,2.5,2.3c0.3,0,2.2,0,2.2-1.7c0-0.7-0.3-1.1-1.3-1.4l-3.6-0.9c-1-0.3-3.6-0.9-3.6-4
		c0-2.4,1.8-4.6,6.1-4.6c5.7,0,5.9,3.1,5.9,4.6h-4.1c0-0.4,0-2-1.9-2c-1.2,0-1.9,0.7-1.9,1.5c0,1.1,0.9,1.3,1.5,1.5l2.7,0.7
		c1.9,0.5,4.2,1.1,4.2,4.2c0,3.2-2.8,4.7-6.4,4.7c-1.5,0-4-0.2-5.3-1.7c-1.1-1.2-1.1-2.6-1.1-3.2H45.7z"/>
	<path class="st0" d="M56.3,18.7h4.1v11.7h6.5v2.9H56.3V18.7z"/>
	<path class="st0" d="M72.8,18.7h4.9l5.7,14.6h-4.6l-1-2.9H72l-1,2.9h-4L72.8,18.7z M76.9,27.7l-1.9-6.1H75l-2,6.1H76.9z"/>
	<path class="st0" d="M84.4,18.7h5.8c1.8,0,3.7,0,5,1.2c0.5,0.4,1.1,1.2,1.1,2.5c0,2.6-2.4,3.1-3.1,3.3v0c0.9,0.2,3.5,0.6,3.5,3.6
		c0,1.1-0.4,2.5-2,3.3c-1.1,0.6-2.6,0.6-3.9,0.6h-6.4V18.7z M88.3,24.6h1.9c0.6,0,1.1,0,1.4-0.2c0.5-0.3,0.8-0.8,0.8-1.4
		c0-0.4-0.2-1-0.6-1.3c-0.4-0.3-0.9-0.3-1.3-0.3h-2.2V24.6z M88.4,30.6h2.2c0.5,0,2.1,0,2.1-1.7c0-1.8-1.7-1.8-2.2-1.8h-2.1V30.6z"
		/>
	<path class="st0" d="M97.8,30.3h3.5v3h-3.5V30.3z"/>
	<path class="st0" d="M111.2,23.3c-0.2-1.5-1.2-2-2.4-2c-2.4,0-3.2,2.2-3.2,4.9c0,0.9,0,4.6,3.1,4.6c2.1,0,2.4-1.6,2.4-2.1h4.2
		c0,4.6-4.7,4.9-6.6,4.9c-1.4,0-3.9-0.2-5.5-1.9c-1.6-1.7-1.9-4-1.9-5.5c0-2,0.5-4,1.8-5.5c1.5-1.7,3.4-2.1,5.5-2.1
		c2.4,0,4.2,0.6,5.3,1.8c1.2,1.3,1.2,2.6,1.2,3.1H111.2z"/>
	<path class="st0" d="M118.2,20.4c1.8-1.9,4.6-2,5.7-2c5.8,0,7.4,4.2,7.4,7.7c0,5.8-4.1,7.6-7.6,7.6c-3.9,0-7.5-2.1-7.5-7.6
		C116.2,25.1,116.4,22.2,118.2,20.4z M123.7,30.7c2.9,0,3.4-2.7,3.4-4.7c0-2-0.5-3-0.9-3.7c-0.6-0.8-1.5-1-2.4-1
		c-2.7,0-3.4,2.3-3.4,4.8C120.4,28.4,121.1,30.7,123.7,30.7z"/>
	<path class="st0" d="M133,18.7h6.4l2.4,9.9l2.3-9.9l6.3,0l0,14.6h-3.8l0.2-12.2l-3.4,12.2h-3.6L136.4,21l0.1,12.3H133V18.7z"/>
</g>
<g>
	<path class="st1" d="M22.9,24.7L20.2,24c-0.6-0.2-1.5-0.4-1.5-1.5c0-0.9,0.7-1.5,1.9-1.5c1.9,0,1.9,1.6,1.9,2h4.1
		c0-1.6-0.3-4.6-5.9-4.6c-4.4,0-6.1,2.2-6.1,4.6c0,3,2.6,3.7,3.6,4l0.5,0.1c2.6,0.1,5.4,0.2,8.2,0.2C26.2,25.6,24.5,25.1,22.9,24.7z
		"/>
	<path class="st1" d="M37.9,18.7l-3.3,6.1l-3.2-6.1h-4.7l5.2,8.6c1.6,0,3.2,0,4.9,0l5.2-8.7H37.9z"/>
	<path class="st1" d="M50.3,24.7L47.6,24c-0.6-0.2-1.5-0.4-1.5-1.5c0-0.9,0.7-1.5,1.9-1.5c1.9,0,1.9,1.6,1.9,2H54
		c0-1.6-0.3-4.6-5.9-4.6c-4.4,0-6.1,2.2-6.1,4.6c0,3,2.6,3.7,3.6,4l1.6,0.4c2.3,0,4.6-0.1,7-0.1C53.5,25.6,51.8,25.1,50.3,24.7z"/>
	<path class="st1" d="M56.3,18.7v8.4c1.4,0,2.7-0.1,4.1-0.1v-8.3H56.3z"/>
	<path class="st1" d="M72.8,18.7l-3.2,8c1.2-0.1,2.5-0.1,3.7-0.2l1.6-5h0.1l1.5,4.8c1.4-0.1,2.7-0.1,4.1-0.2l-2.9-7.5H72.8z"/>
	<path class="st1" d="M96.4,22.4c0-1.3-0.6-2.1-1.1-2.5c-1.3-1.2-3.2-1.2-5-1.2h-5.8V26c3.3-0.2,6.6-0.4,10-0.6
		C95.4,25,96.4,24.1,96.4,22.4z M91.7,24.4c-0.3,0.2-0.8,0.2-1.4,0.2h-1.9v-3.2h2.2c0.4,0,0.9,0,1.3,0.3c0.4,0.3,0.6,0.8,0.6,1.3
		C92.4,23.6,92.1,24.2,91.7,24.4z"/>
	<path class="st1" d="M108.8,21.3c1.1,0,2.2,0.5,2.4,2h4.2c0-0.5,0-1.9-1.2-3.1c-1.1-1.2-2.9-1.8-5.3-1.8c-2.1,0-4,0.4-5.5,2.1
		c-1.1,1.2-1.6,2.7-1.8,4.3c1.4-0.1,2.8-0.2,4.2-0.3C106,22.7,106.9,21.3,108.8,21.3z"/>
	<path class="st1" d="M123.9,18.3c-1.1,0-3.9,0.2-5.7,2c-0.9,0.9-1.4,2.2-1.7,3.3c1.5-0.1,2.9-0.3,4.3-0.4c0.5-1.2,1.4-1.9,2.9-1.9
		c0.9,0,1.8,0.2,2.4,1c0.1,0.1,0.1,0.2,0.2,0.3c1.4-0.1,2.8-0.3,4.2-0.4C129.6,20.1,127.6,18.3,123.9,18.3z"/>
	<path class="st1" d="M144.1,18.7l-0.5,2c2.3-0.3,4.6-0.6,6.8-0.9l0-1.1L144.1,18.7z"/>
	<path class="st1" d="M139.4,18.7H133V22c1.1-0.1,2.3-0.3,3.4-0.4l0-0.6l0.2,0.6c1.1-0.1,2.3-0.3,3.4-0.4L139.4,18.7z"/>
</g>
<g>
	<path class="st2" d="M92,41H14.3l-3,5h76.5c6.4,0,9.5-4.5,10.2-5.9c0.7-1.5,1.3-3.5,1.3-3.5h-1.1C97.5,38.8,94.9,41,92,41z"/>
</g>
<g>
	<path class="st2" d="M62,11.6h88.2l3-5h-87c-6.4,0-9.5,4.5-10.2,5.9c-0.7,1.5-1.3,3.5-1.3,3.5h1.1C56.5,13.8,59.2,11.6,62,11.6z"/>
</g>
</svg>
