<?xml version="1.0" encoding="UTF-8"?>
<svg width="320px" height="70px" viewBox="0 0 320 70" version="1.1" xmlns="http://www.w3.org/2000/svg" xmlns:xlink="http://www.w3.org/1999/xlink">
    <!-- Generator: Sketch 39.1 (31720) - http://www.bohemiancoding.com/sketch -->
    <title>Group 20</title>
    <desc>Created with Sketch.</desc>
    <defs></defs>
    <g id="Symbols" stroke="none" stroke-width="1" fill="none" fill-rule="evenodd">
        <g id="Header" transform="translate(-77.000000, -19.000000)" fill="#007BC1">
            <g id="Group-20" transform="translate(77.000000, 19.000000)">
                <g id="Segell_UPC">
                    <g id="Group-2" transform="translate(82.539683, 6.349206)">
                        <path d="M5.77890973,15.4472677 C8.88658986,15.4472677 10.5992443,13.843721 10.5992443,10.9325503 L10.5992443,3.9657216 L8.06393128,3.9657216 L8.06393128,10.9331826 C8.06393128,12.6480164 7.42486214,13.3163717 5.77890973,13.3163717 C3.77975409,13.3163717 3.50913435,12.1118147 3.50913435,10.9331826 L3.50913435,3.9657216 L0.97445657,3.9657216 L0.97445657,10.9331826 C0.97445657,13.886086 2.63692568,15.4472677 5.77890973,15.4472677 L5.77890973,15.4472677 Z" id="Shape"></path>
                        <polygon id="Shape" points="20.8434082 11.4055207 16.204122 3.98216175 16.1945932 3.9657216 13.6916783 3.9657216 13.6916783 15.1816961 16.0681769 15.1816961 16.0681769 7.7596018 20.6896759 15.1646236 20.69984 15.1816961 23.2199069 15.1816961 23.2199069 3.9657216 20.8434082 3.9657216"></polygon>
                        <rect id="Rectangle-path" x="27.1578687" y="3.9657216" width="2.53467779" height="11.2159745"></rect>
                        <polygon id="Shape" points="36.0737089 15.1816961 38.9012405 15.1816961 42.6251205 4.01251279 42.6403667 3.9657216 40.0237406 3.9657216 37.5106616 11.7684685 35.0274397 3.9657216 32.4108137 3.9657216 36.0635448 15.1570359"></polygon>
                        <polygon id="Shape" points="53.7891374 13.0508001 47.7529197 13.0508001 47.7529197 10.3900254 53.1773843 10.3900254 53.1773843 8.41404614 47.7529197 8.41404614 47.7529197 6.09788227 53.6652621 6.09788227 53.6652621 3.9657216 45.2176067 3.9657216 45.2176067 15.1816961 53.7891374 15.1816961"></polygon>
                        <path d="M59.3844862,10.8269539 L61.810535,10.8269539 C62.9679743,10.8269539 63.4641105,11.2758964 63.6394416,12.481718 C63.6813686,12.7700529 63.7061436,13.0843127 63.7290129,13.3884554 C63.781104,14.0239303 63.8331951,14.6809039 64.0358423,15.1601974 L64.0460064,15.1816961 L66.5991067,15.1816961 L66.5590855,15.1254202 C66.1976239,14.6088202 66.1499796,13.6103974 66.1156757,12.8813401 C66.1080526,12.7441281 66.1029705,12.6170331 66.0959827,12.5051136 C65.9943415,11.0198095 65.4689834,10.161128 64.4944983,9.88227777 C65.6519376,9.39476417 66.2370099,8.45072031 66.2370099,7.07607105 C66.2370099,5.27271333 64.8445252,3.96508929 62.9235063,3.96508929 L56.8491732,3.96508929 L56.8491732,15.1810638 L59.383851,15.1810638 L59.383851,10.8269539 L59.3844862,10.8269539 Z M59.3844862,5.94170087 L62.0462155,5.94170087 C63.1610926,5.94170087 63.7036026,6.43553761 63.7036026,7.45166519 C63.7036026,8.51331934 63.1757035,9.00778839 62.0462155,9.00778839 L59.3844862,9.00778839 L59.3844862,5.94170087 L59.3844862,5.94170087 Z" id="Shape"></path>
                        <path d="M73.3811167,15.4472677 C76.2753503,15.4472677 78.0737645,14.0637661 78.0737645,11.8373907 C78.0737645,9.3726332 75.7080653,8.79596341 74.8180694,8.58034455 L74.4610546,8.48929143 C71.8742857,7.82725933 71.4080066,7.70838442 71.4080066,6.90534644 C71.4080066,5.99860908 72.2999083,5.67676157 73.0653937,5.67676157 C74.4826534,5.67676157 75.1744489,6.20158167 75.2417862,7.32836409 L75.2443272,7.36250901 L77.6970568,7.36250901 L77.6970568,7.32646715 C77.6970568,5.05646216 76.0072716,3.70141461 73.177199,3.70141461 C71.0783079,3.70141461 68.9527361,4.87182666 68.9527361,7.10831903 C68.9527361,9.24617053 70.6920713,9.88291009 72.3202365,10.3109862 C72.5603639,10.3754822 72.8036676,10.433655 73.0412539,10.4918279 C74.4242097,10.8294832 75.6191292,11.1203473 75.6191292,12.1181378 C75.6191292,13.3732799 73.9757178,13.4719208 73.4751348,13.4719208 C71.9467051,13.4719208 71.0344752,12.715674 71.0344752,11.4472534 L71.0344752,11.4112115 L68.5785693,11.4112115 L68.5760283,11.446621 C68.5633231,12.5234507 68.9063622,13.4181741 69.5898994,14.1061311 C70.4468619,14.9711357 71.7948785,15.4472677 73.3811167,15.4472677 L73.3811167,15.4472677 Z" id="Shape"></path>
                        <rect id="Rectangle-path" x="81.164928" y="3.9657216" width="2.53467779" height="11.2159745"></rect>
                        <polygon id="Shape" points="89.367374 15.1816961 91.8995107 15.1816961 91.8995107 6.09788227 95.2543061 6.09788227 95.2543061 3.9657216 86.0125786 3.9657216 86.0125786 6.09788227 89.367374 6.09788227"></polygon>
                        <path d="M95.1799809,15.1816961 L97.7534094,15.1816961 L98.6307002,12.6998661 L102.766227,12.6998661 L103.613661,15.1816961 L106.245533,15.1816961 L102.043304,3.98848488 L102.03314,3.9657216 L99.4584408,3.9657216 L95.2003092,15.1336403 L95.1799809,15.1816961 L95.1799809,15.1816961 Z M99.2996264,10.802926 L100.721333,6.81239638 L102.099842,10.802926 L99.2996264,10.802926 L99.2996264,10.802926 Z" id="Shape"></path>
                        <polygon id="Shape" points="109.652419 15.1816961 112.188368 15.1816961 112.188368 6.09788227 115.543163 6.09788227 115.543163 3.9657216 106.296989 3.9657216 106.296989 6.09788227 109.652419 6.09788227"></polygon>
                        <path d="M125.150164,11.1854756 L127.702629,11.1854756 C130.584792,11.1854756 131.610733,9.3207835 131.610733,7.57559861 C131.610733,5.82978141 130.584792,3.96508929 127.702629,3.96508929 L122.618027,3.96508929 L122.618027,15.1810638 L125.150164,15.1810638 L125.150164,11.1854756 L125.150164,11.1854756 Z M125.150164,5.94170087 L127.02862,5.94170087 C128.081877,5.94170087 129.158004,6.13582108 129.158004,7.57623093 C129.158004,9.01600846 128.082513,9.21012867 127.02862,9.21012867 L125.150164,9.21012867 L125.150164,5.94170087 L125.150164,5.94170087 Z" id="Shape"></path>
                        <path d="M138.424506,15.4472677 C141.689095,15.4472677 143.965858,13.0514324 143.965858,9.61986773 C143.965858,6.07891287 141.738645,3.70141461 138.424506,3.70141461 C135.111638,3.70141461 132.886966,6.07954519 132.886966,9.61986773 C132.887601,13.0514324 135.164364,15.4472677 138.424506,15.4472677 L138.424506,15.4472677 Z M135.419738,9.61986773 C135.419738,8.73146745 135.638266,5.83294297 138.424506,5.83294297 C141.215193,5.83294297 141.430545,8.73146745 141.430545,9.61986773 C141.430545,11.406153 140.642826,13.3157394 138.424506,13.3157394 C136.209998,13.3157394 135.419738,11.406153 135.419738,9.61986773 L135.419738,9.61986773 Z" id="Shape"></path>
                        <polygon id="Shape" points="148.729019 3.9657216 146.196883 3.9657216 146.196883 15.1816961 154.188423 15.1816961 154.188423 13.0508001 148.729019 13.0508001"></polygon>
                        <rect id="Rectangle-path" x="156.401661" y="3.9657216" width="2.53467779" height="11.2159745"></rect>
                        <polygon id="Shape" points="161.387162 6.09788227 164.741958 6.09788227 164.741958 15.1816961 167.27473 15.1816961 167.27473 6.09788227 170.633336 6.09788227 170.633336 3.9657216 161.387162 3.9657216"></polygon>
                        <polygon id="Shape" points="175.442236 10.3900254 180.869242 10.3900254 180.869242 8.41404614 175.442236 8.41404614 175.442236 6.09788227 181.357755 6.09788227 181.357755 3.9657216 172.9101 3.9657216 172.9101 15.1816961 181.482266 15.1816961 181.482266 13.0508001 175.442236 13.0508001"></polygon>
                        <polygon id="Shape" points="178.203066 3.03875021 176.651767 0.749775819 174.077703 0.749775819 176.56029 3.02863319"></polygon>
                        <path d="M191.38212,10.8484526 C191.178837,12.4159574 190.266608,13.315107 188.876029,13.315107 C186.65898,13.315107 185.87126,11.4055207 185.87126,9.61923541 C185.87126,8.73083513 186.087248,5.83231066 188.876029,5.83231066 C190.095723,5.83231066 191.131828,6.6574796 191.288102,7.75201404 L191.293184,7.7829974 L193.745913,7.7829974 L193.740831,7.74316165 C193.458142,5.28725654 191.548557,3.7007823 188.876029,3.7007823 C185.56316,3.7007823 183.335947,6.07891287 183.335947,9.61923541 C183.335947,13.0508001 185.61271,15.4466354 188.876029,15.4466354 C191.636858,15.4466354 193.584558,13.64391 193.835485,10.8560404 L193.838026,10.8168369 L191.385296,10.8168369 L191.38212,10.8484526 L191.38212,10.8484526 Z" id="Shape"></path>
                        <polygon id="Shape" points="203.202358 11.4055207 198.563072 3.98216175 198.553543 3.9657216 196.048087 3.9657216 196.048087 15.1816961 198.427127 15.1816961 198.427127 7.76149874 203.048626 15.1646236 203.061331 15.1816961 205.576315 15.1816961 205.576315 3.9657216 203.202358 3.9657216"></polygon>
                        <rect id="Rectangle-path" x="209.201731" y="3.9657216" width="2.53467779" height="11.2159745"></rect>
                        <path d="M222.453839,10.8484526 C222.253098,12.4159574 221.338327,13.315107 219.949018,13.315107 C217.730699,13.315107 216.94298,11.4055207 216.94298,9.61923541 C216.94298,8.73083513 217.158967,5.83231066 219.949018,5.83231066 C221.168713,5.83231066 222.203548,6.6574796 222.359821,7.75201404 L222.364903,7.7829974 L224.818903,7.7829974 L224.813821,7.74316165 C224.531131,5.28725654 222.620277,3.7007823 219.949018,3.7007823 C216.63615,3.7007823 214.407667,6.07891287 214.407667,9.61923541 C214.407667,13.0508001 216.6857,15.4466354 219.949018,15.4466354 C222.709848,15.4466354 224.657548,13.64391 224.907204,10.8560404 L224.912286,10.8168369 L222.457015,10.8168369 L222.453839,10.8484526 L222.453839,10.8484526 Z" id="Shape"></path>
                        <path d="M232.649088,3.98848488 L232.641465,3.9657216 L230.066766,3.9657216 L225.806093,15.1336403 L225.790212,15.1816961 L228.36237,15.1816961 L229.23712,12.6998661 L233.375188,12.6998661 L234.22008,15.1816961 L236.853858,15.1816961 L232.649088,3.98848488 L232.649088,3.98848488 Z M232.706261,10.802926 L229.906046,10.802926 L231.327752,6.81113175 L232.706261,10.802926 L232.706261,10.802926 Z" id="Shape"></path>
                        <path d="M5.88817403,22.9648413 L1.02400666,22.9648413 L1.02400666,34.1820805 L5.88817403,34.1820805 C9.09241332,34.1820805 11.0058092,32.0613014 11.0058092,28.5108619 C11.0058092,25.0381969 9.09241332,22.9648413 5.88817403,22.9648413 L5.88817403,22.9648413 Z M3.55614342,25.0963697 L5.27832674,25.0963697 C7.48648213,25.0963697 8.47240191,26.2212552 8.47240191,28.7448178 C8.47240191,30.8137472 7.4420141,32.0505521 5.71665448,32.0505521 L3.55614342,32.0505521 L3.55614342,25.0963697 L3.55614342,25.0963697 Z" id="Shape"></path>
                        <polygon id="Shape" points="15.7854873 29.3891451 21.2099519 29.3891451 21.2099519 27.4137982 15.7854873 27.4137982 15.7854873 25.0963697 21.6984649 25.0963697 21.6984649 22.9648413 13.2508095 22.9648413 13.2508095 34.1820805 21.8223402 34.1820805 21.8223402 32.0505521 15.7854873 32.0505521"></polygon>
                        <path d="M38.9755656,29.8557924 L38.9781067,29.8172213 L36.5247418,29.8172213 L36.5196598,29.8482046 C36.3189184,31.4157095 35.4066885,32.3142268 34.0148391,32.3142268 C31.7990606,32.3142268 31.0088002,30.4046404 31.0088002,28.6189875 C31.0088002,27.7305872 31.2273288,24.8320627 34.0148391,24.8320627 C35.2142054,24.8320627 36.2750856,25.6755687 36.4256417,26.7511338 L36.4307237,26.7821171 L38.8840885,26.7821171 L38.8815475,26.7422814 C38.5963168,24.2870086 36.6886383,22.699902 34.0148391,22.699902 C30.7013355,22.699902 28.4760282,25.0786649 28.4760282,28.6189875 C28.4760282,32.0499198 30.7534266,34.4470198 34.0148391,34.4470198 C36.7769391,34.4476521 38.7227331,32.645559 38.9755656,29.8557924 L38.9755656,29.8557924 Z" id="Shape"></path>
                        <path d="M50.7634055,34.1820805 L46.5586355,22.9888692 L46.5510124,22.9654736 L43.9756781,22.9654736 L39.716276,34.1333923 L39.699124,34.1820805 L42.268741,34.1820805 L43.1460317,31.6996182 L47.2847349,31.6996182 L48.1296275,34.1820805 L50.7634055,34.1820805 L50.7634055,34.1820805 Z M46.6158087,29.8026781 L43.8155932,29.8026781 L45.240476,25.8102515 L46.6158087,29.8026781 L46.6158087,29.8026781 Z" id="Shape"></path>
                        <polygon id="Shape" points="60.0591298 22.9648413 50.8129556 22.9648413 50.8129556 25.0963697 54.1709272 25.0963697 54.1709272 34.1820805 56.7030639 34.1820805 56.7030639 25.0963697 60.0591298 25.0963697"></polygon>
                        <path d="M59.8774461,34.13276 L59.8602942,34.1814481 L62.4305464,34.1814481 L63.3078371,31.6989859 L67.4465403,31.6989859 L68.2914329,34.1814481 L70.9252109,34.1814481 L66.7198056,22.9882369 L66.7121825,22.9648413 L64.1374835,22.9648413 L59.8774461,34.13276 L59.8774461,34.13276 Z M63.9773986,29.8026781 L65.4016461,25.8102515 L66.7769788,29.8026781 L63.9773986,29.8026781 L63.9773986,29.8026781 Z" id="Shape"></path>
                        <polygon id="Shape" points="72.6994853 22.9648413 72.6994853 34.1820805 80.6910258 34.1820805 80.6910258 32.0505521 75.2347984 32.0505521 75.2347984 22.9648413"></polygon>
                        <path d="M88.8960128,29.9323023 C88.8960128,31.6465039 88.2569437,32.3148591 86.6141676,32.3148591 C84.6118357,32.3148591 84.3437569,31.1103021 84.3437569,29.9323023 L84.3437569,22.9648413 L81.8090792,22.9648413 L81.8090792,29.9323023 C81.8090792,32.8858381 83.4690072,34.4476521 86.6141676,34.4476521 C89.7186714,34.4476521 91.4319611,32.8441054 91.4319611,29.9323023 L91.4319611,22.9648413 L88.8960128,22.9648413 L88.8960128,29.9323023 L88.8960128,29.9323023 Z" id="Shape"></path>
                        <polygon id="Shape" points="101.925781 30.4027435 97.2871304 22.9819138 97.2769662 22.9648413 94.7746866 22.9648413 94.7746866 34.1820805 97.153091 34.1820805 97.153091 26.7606185 101.77459 34.1643757 101.784754 34.1820805 104.30228 34.1820805 104.30228 22.9648413 101.925781 22.9648413"></polygon>
                        <polygon id="Shape" points="116.777468 23.0192203 116.808596 22.9648413 113.982335 22.9648413 111.399378 27.3328621 108.799904 22.9648413 105.941245 22.9648413 110.093923 29.806472 110.093923 34.1820805 112.62606 34.1820805 112.620978 29.8880404"></polygon>
                        <path d="M127.269383,34.1820805 L123.064613,22.9888692 L123.05699,22.9654736 L120.48102,22.9654736 L116.221618,34.1333923 L116.204466,34.1820805 L118.774083,34.1820805 L119.653915,31.6996182 L123.790712,31.6996182 L124.635605,34.1820805 L127.269383,34.1820805 L127.269383,34.1820805 Z M123.120516,29.8026781 L120.321571,29.8026781 L121.745818,25.8115161 L123.120516,29.8026781 L123.120516,29.8026781 Z" id="Shape"></path>
                        <path d="M7.94958491,47.2178528 C8.45779098,47.0079248 8.85673275,46.6892389 9.13942238,46.2681181 C9.42909984,45.8324542 9.57584434,45.3070018 9.57584434,44.7107303 C9.57584434,44.1441775 9.44434602,43.6585609 9.1870667,43.2709528 C8.92915212,42.8846093 8.61215858,42.5754081 8.24307392,42.3559953 C8.0696486,42.2485021 7.86382514,42.1681983 7.62814457,42.1176132 C7.39055823,42.0644989 7.13264365,42.0252955 6.86265917,41.9987383 C6.58695738,41.9728134 6.30998507,41.9582702 6.03745956,41.9532117 C5.75921674,41.9481532 5.50193742,41.9443593 5.26117479,41.9443593 L1.16312807,41.9443593 L1.16312807,53.1578046 L6.6091914,53.1578046 C7.16694756,53.1578046 7.66498951,53.0654868 8.08870632,52.8808513 C8.5175052,52.6968481 8.87896677,52.4521429 9.16673845,52.1549556 C9.45641592,51.8584006 9.67748556,51.509996 9.82550058,51.1211232 C9.97160982,50.7360444 10.0465702,50.3332608 10.0465702,49.9222571 C10.0465702,49.2317709 9.86043974,48.636764 9.49135508,48.152412 C9.13243454,47.6857647 8.61406435,47.3708727 7.94958491,47.2178528 L7.94958491,47.2178528 Z M2.726497,48.0550357 L6.09209172,48.0550357 C6.40146216,48.0550357 6.70384478,48.0834898 6.9941575,48.140398 C7.2787529,48.1960416 7.53666748,48.2934179 7.75964289,48.4318945 C7.97753625,48.5703711 8.15604363,48.7569036 8.28500092,48.9889626 C8.41840501,49.2210216 8.48510706,49.5201058 8.48510706,49.8754659 C8.48510706,50.4869129 8.30215287,50.9706327 7.94005605,51.3165081 C7.57605345,51.6623835 7.06530635,51.8375343 6.42115515,51.8375343 L2.726497,51.8375343 L2.726497,48.0550357 L2.726497,48.0550357 Z M7.4718712,46.2978369 C7.10977438,46.5880687 6.50310338,46.7347654 5.66773965,46.7347654 L2.72586175,46.7347654 L2.72586175,43.2646297 L5.66773965,43.2646297 C5.98727421,43.2646297 6.2915626,43.2829667 6.57933429,43.3190086 C6.86456495,43.3550505 7.11485644,43.4340896 7.32830299,43.5561261 C7.54111428,43.6756333 7.7100928,43.8501518 7.831427,44.0720938 C7.95212594,44.2934035 8.01438119,44.6032371 8.01438119,44.9921098 C8.01438119,45.5700442 7.831427,46.0101343 7.4718712,46.2978369 L7.4718712,46.2978369 Z" id="Shape"></path>
                        <path d="M15.5993568,41.9443593 L11.2109974,53.1578046 L12.8099407,53.1578046 L14.0664802,49.8008529 L18.7495992,49.8008529 L19.9642117,53.1337767 L19.9718348,53.1571723 L21.6965592,53.1571723 L17.2954946,41.943727 L15.5993568,41.943727 L15.5993568,41.9443593 Z M18.2540983,48.4824796 L14.5613459,48.4824796 L16.4226507,43.3835046 L18.2540983,48.4824796 L18.2540983,48.4824796 Z" id="Shape"></path>
                        <path d="M32.520078,52.4628922 C32.4432118,52.2283039 32.3809566,51.9703201 32.3390296,51.6958961 C32.2971026,51.4214721 32.2697865,51.1464158 32.2596224,50.8732564 C32.2494583,50.5906123 32.2354826,50.3161883 32.2157896,50.0430289 C32.1833915,49.7711342 32.1389234,49.5080918 32.0792092,49.2589604 C32.022036,49.0085643 31.9305589,48.775873 31.8085895,48.5697388 C31.6853495,48.36234 31.518912,48.1821307 31.3137238,48.0360663 C31.1225113,47.8988543 30.8773019,47.7989488 30.5869891,47.7344528 C31.2317756,47.5403326 31.7120303,47.1912957 32.0144129,46.695562 C32.3237834,46.1814912 32.4800568,45.5763673 32.4800568,44.8972628 C32.4800568,43.9860992 32.1732273,43.2583065 31.5678269,42.7322218 C30.9605206,42.2074017 30.1105459,41.9430947 29.0426779,41.9430947 L23.7389123,41.9430947 L23.7389123,53.1578046 L25.3003755,53.1578046 L25.3003755,48.3983819 L28.9010155,48.3983819 C29.259936,48.3983819 29.5496135,48.4527608 29.76306,48.5589895 C29.9765066,48.6652181 30.1518377,48.8074886 30.280795,48.9851687 C30.4148343,49.1603195 30.5132993,49.3715122 30.5755545,49.6124235 C30.6378097,49.8609227 30.6899009,50.1201712 30.7292868,50.3819489 C30.781378,50.6513144 30.8137761,50.9276353 30.823305,51.203324 C30.8309281,51.3987088 30.8379159,51.5839766 30.845539,51.7603921 L30.8557031,51.9924511 C30.8658672,52.2453764 30.8906423,52.4628922 30.9243109,52.6595417 C30.9643322,52.8631466 31.0361163,53.0262834 31.1453806,53.1470553 L32.9120319,53.1584369 L32.8624818,53.1002641 C32.7106553,52.9149963 32.5944031,52.7012743 32.520078,52.4628922 L32.520078,52.4628922 Z M25.301646,43.2646297 L28.9645413,43.2646297 C29.6506195,43.2646297 30.1537435,43.4372512 30.4586671,43.781862 C30.7635908,44.1264728 30.9198641,44.5798415 30.9198641,45.1331157 C30.9198641,45.5295761 30.8512563,45.8577468 30.7146759,46.1049813 C30.5755545,46.3547451 30.3900593,46.5545561 30.1620018,46.7012528 C29.9345796,46.8479495 29.6614188,46.9484873 29.3520484,47.000337 C29.0426779,47.0509221 28.709803,47.0768469 28.3705754,47.0768469 L25.3029165,47.0768469 L25.3029165,43.2646297 L25.301646,43.2646297 Z" id="Shape"></path>
                        <path d="M43.7431738,48.9206727 C43.7133167,49.3702475 43.6192986,49.7964267 43.4655663,50.190358 C43.3092929,50.5804953 43.0907643,50.9200476 42.8207798,51.2007947 C42.5482543,51.4821742 42.2210967,51.7047485 41.8443889,51.8640914 C41.4702222,52.0221698 41.0344355,52.1037382 40.5510044,52.1037382 C39.8897013,52.1037382 39.3173342,51.9779079 38.8415263,51.731938 C38.3682594,51.4847034 37.9743997,51.1514743 37.6713818,50.7354121 C37.3670934,50.3206145 37.1390359,49.8255131 36.9954677,49.2671804 C36.8493585,48.7075831 36.7769391,48.1037239 36.7769391,47.4726751 C36.7769391,46.8947407 36.8487232,46.3300849 36.9954677,45.7970447 C37.1396712,45.2633722 37.3670934,44.7821817 37.6713818,44.3654872 C37.9743997,43.9519543 38.3657183,43.6155636 38.8364442,43.3689614 C39.302088,43.1242561 39.8750904,42.9996904 40.5338525,42.9996904 C41.306961,42.9996904 41.9835103,43.1976044 42.5438075,43.5852125 C43.1034694,43.9740853 43.4706483,44.5659306 43.6364506,45.3424114 L43.6415326,45.3708655 L45.2004547,45.3708655 L45.1953727,45.3303974 C45.1108834,44.7328613 44.929835,44.2017181 44.6573095,43.749614 C44.384784,43.2949807 44.0372981,42.9111665 43.6288275,42.6070238 C43.2197216,42.3041457 42.7464547,42.070822 42.2236377,41.9152729 C41.6989149,41.7584592 41.1360767,41.67942 40.5510044,41.67942 C39.6889599,41.67942 38.9183924,41.8362338 38.253913,42.1435381 C37.5875278,42.4508424 37.0246896,42.8770216 36.5812798,43.4081648 C36.1353289,43.9380434 35.7935604,44.5690921 35.5604208,45.2855032 C35.3329986,45.999385 35.2161112,46.7727042 35.2161112,47.5826976 C35.2161112,48.3964849 35.3228345,49.1672749 35.5381868,49.8710397 C35.7516334,50.5773337 36.078791,51.2020593 36.5094957,51.7249825 C36.9382945,52.2472733 37.4858866,52.6620709 38.1351198,52.9598905 C38.7868941,53.2564455 39.5574616,53.4082007 40.4245882,53.4082007 C41.8596351,53.4082007 43.0069103,53.0104756 43.837192,52.2276716 C44.6649326,51.4448677 45.1578925,50.33579 45.304637,48.9276282 L45.3097191,48.8877924 L43.7457149,48.8877924 L43.7431738,48.9206727 L43.7431738,48.9206727 Z" id="Shape"></path>
                        <polygon id="Shape" points="49.5545103 48.0550357 55.3702935 48.0550357 55.3702935 46.7347654 49.5545103 46.7347654 49.5545103 43.2646297 55.7914693 43.2646297 55.7914693 41.9443593 47.9930471 41.9443593 47.9930471 53.1578046 55.8410194 53.1578046 55.8410194 51.8375343 49.5545103 51.8375343"></polygon>
                        <polygon id="Shape" points="60.4332965 41.9443593 58.8711981 41.9443593 58.8711981 53.1578046 66.3583441 53.1578046 66.3583441 51.8375343 60.4332965 51.8375343"></polygon>
                        <path d="M76.3547575,43.4694992 C75.9037246,42.9288713 75.3358043,42.4887812 74.6649723,42.1650367 C73.9928698,41.8425569 73.2026093,41.6781554 72.3132487,41.6781554 C71.4264291,41.6781554 70.6355334,41.8425569 69.9615251,42.1650367 C69.2925989,42.4875165 68.7253138,42.9269743 68.2717399,43.4694992 C67.820707,44.013921 67.4789384,44.6449697 67.2553278,45.3468376 C67.0304466,46.0480731 66.9161002,46.790409 66.9161002,47.551082 C66.9161002,48.3104903 67.0304466,49.0515616 67.2553278,49.7527971 C67.4789384,50.4565619 67.820707,51.0876106 68.2717399,51.6301355 C68.7253138,52.1732927 69.2925989,52.6095889 69.9640661,52.9270102 C70.6336276,53.2456962 71.4238881,53.4075684 72.3132487,53.4075684 C73.2051504,53.4075684 73.9954108,53.2456962 74.6649723,52.9270102 C75.3364396,52.6095889 75.9037246,52.173925 76.3547575,51.6301355 C76.8057904,51.0882429 77.147559,50.4571942 77.3737107,49.7527971 C77.5966861,49.0515616 77.7103972,48.3104903 77.7103972,47.551082 C77.7103972,46.790409 77.5960508,46.0480731 77.3737107,45.3468376 C77.147559,44.6449697 76.8057904,44.013921 76.3547575,43.4694992 L76.3547575,43.4694992 Z M72.3132487,52.1031059 C71.6417814,52.1031059 71.0567092,51.9696878 70.5764545,51.7091747 C70.0904824,51.4473969 69.6896349,51.096463 69.3796292,50.6658576 C69.0721645,50.2358845 68.841566,49.7433124 68.6954567,49.2033168 C68.5512533,48.6645858 68.4775634,48.10815 68.4775634,47.551082 C68.4775634,46.99022 68.5512533,46.4356812 68.6954567,45.8988471 C68.841566,45.3588515 69.0721645,44.8662794 69.3796292,44.4344094 C69.6889996,44.0044363 70.0930234,43.6528701 70.5764545,43.3910923 C71.0598855,43.1318438 71.6449577,42.9996904 72.3132487,42.9996904 C72.9828102,42.9996904 73.5672472,43.1318438 74.052584,43.3910923 C74.536015,43.6541347 74.9394036,44.0050686 75.2475035,44.4344094 C75.556874,44.8656471 75.7874725,45.3569546 75.9310407,45.8988471 C76.0752442,46.4363135 76.1495693,46.9908523 76.1495693,47.551082 C76.1495693,48.10815 76.0752442,48.6652181 75.9310407,49.2033168 C75.7849314,49.7439447 75.556874,50.2371492 75.2475035,50.6658576 C74.9400388,51.0970953 74.538556,51.4461323 74.052584,51.7091747 C73.569153,51.9696878 72.984716,52.1031059 72.3132487,52.1031059 L72.3132487,52.1031059 Z" id="Shape"></path>
                        <polygon id="Shape" points="88.0631901 50.9409139 82.2035741 41.9601672 82.19341 41.9443593 80.5557159 41.9443593 80.5557159 53.1578046 82.0371366 53.1578046 82.0371366 44.2523031 87.8611782 53.1578046 89.5484224 53.1578046 89.5484224 41.9443593 88.0631901 41.9443593"></polygon>
                        <path d="M96.149384,41.9443593 L91.7635656,53.1578046 L93.3631442,53.1578046 L94.6165074,49.8008529 L99.3002617,49.8008529 L100.517415,53.1337767 L100.525038,53.1571723 L102.247222,53.1571723 L97.846157,41.943727 L96.149384,41.943727 L96.149384,41.9443593 Z M98.802855,48.4824796 L95.1113731,48.4824796 L96.9752189,43.3835046 L98.802855,48.4824796 L98.802855,48.4824796 Z" id="Shape"></path>
                        <polygon id="Shape" points="102.791002 44.0796816 106.143256 44.0796816 106.143256 53.1628631 108.679205 53.1628631 108.679205 44.0796816 112.034635 44.0796816 112.034635 41.9481532 102.791002 41.9481532"></polygon>
                        <polygon id="Shape" points="116.626277 48.3711924 122.053283 48.3711924 122.053283 46.3952131 116.626277 46.3952131 116.626277 44.0796816 122.53862 44.0796816 122.53862 41.9481532 114.09414 41.9481532 114.09414 53.1628631 122.665036 53.1628631 122.665036 51.0313347 116.626277 51.0313347"></polygon>
                        <path d="M132.611899,48.8296196 C132.408617,50.3977567 131.496387,51.2969064 130.107078,51.2969064 C127.888759,51.2969064 127.10104,49.38732 127.10104,47.601667 C127.10104,46.7138991 127.317027,43.8128453 130.107078,43.8128453 C131.325503,43.8128453 132.361608,44.6392789 132.517881,45.733181 L132.522963,45.7641644 L134.975693,45.7641644 L134.970611,45.7243287 C134.689191,43.2690559 132.778337,41.6819493 130.107078,41.6819493 C126.79294,41.6819493 124.565727,44.0607122 124.565727,47.6010347 C124.565727,51.0319671 126.84249,53.4265378 130.107078,53.4265378 C132.867908,53.4265378 134.815608,51.6257093 135.065264,48.8372074 L135.067805,48.7973716 L132.615075,48.7973716 L132.611899,48.8296196 L132.611899,48.8296196 Z" id="Shape"></path>
                        <polygon id="Shape" points="143.866758 46.2225916 139.405979 46.2225916 139.405979 41.9481532 136.871301 41.9481532 136.871301 53.1628631 139.405979 53.1628631 139.405979 48.3566492 143.866758 48.3566492 143.866758 53.1628631 146.400165 53.1628631 146.400165 41.9481532 143.866758 41.9481532"></polygon>
                    </g>
                    <path d="M35.7429032,50.5129856 L34.4435866,50.5129856 L34.4435866,53.2148606 L35.7795749,53.2148606 C36.64136,53.2148606 36.9973285,52.5357561 36.975199,51.819345 C36.9555986,51.1206388 36.6792963,50.5129856 35.7429032,50.5129856 L35.7429032,50.5129856 Z M34.9228479,0 C15.6341612,0 0,15.6352126 0,34.9220349 C0,54.2107542 15.6341612,69.8453345 34.9228479,69.8453345 C54.2071086,69.8453345 69.8412698,54.2101219 69.8412698,34.9220349 C69.8412698,15.6352126 54.2071086,0 34.9228479,0 L34.9228479,0 Z M35.0613152,9.85650076 C37.8173838,9.85650076 40.0455063,12.0929931 40.0455063,14.8448209 C40.0455063,17.5966487 37.8180161,19.8306118 35.0613152,19.8306118 C32.3096725,19.8306118 30.0771241,17.5966487 30.0771241,14.8448209 C30.0771241,12.0929931 32.3103047,9.85650076 35.0613152,9.85650076 L35.0613152,9.85650076 Z M35.0613152,21.6763345 C37.8173838,21.6763345 40.0455063,23.9008129 40.0455063,26.6570669 C40.0455063,29.4088947 37.8180161,31.6415932 35.0613152,31.6415932 C32.3096725,31.6415932 30.0771241,29.4088947 30.0771241,26.6570669 C30.0771241,23.9008129 32.3103047,21.6763345 35.0613152,21.6763345 L35.0613152,21.6763345 Z M22.9470058,9.85650076 C25.7005453,9.85650076 27.9337259,12.0929931 27.9337259,14.8448209 C27.9337259,17.5966487 25.7011776,19.8306118 22.9470058,19.8306118 C20.1909372,19.8306118 17.9602856,17.5966487 17.9602856,14.8448209 C17.9602856,12.0929931 20.1909372,9.85650076 22.9470058,9.85650076 L22.9470058,9.85650076 Z M22.9470058,21.6763345 C25.7005453,21.6763345 27.9337259,23.9008129 27.9337259,26.6570669 C27.9337259,29.4088947 25.7011776,31.6415932 22.9470058,31.6415932 C20.1909372,31.6415932 17.9602856,29.4088947 17.9602856,26.6570669 C17.9602856,23.9008129 20.1909372,21.6763345 22.9470058,21.6763345 L22.9470058,21.6763345 Z M22.9470058,33.7990464 C25.7005453,33.7990464 27.9337259,36.0317449 27.9337259,38.7848373 C27.9337259,41.5366651 25.7011776,43.7693636 22.9470058,43.7693636 C20.1909372,43.7693636 17.9602856,41.5366651 17.9602856,38.7848373 C17.9602856,36.0317449 20.1909372,33.7990464 22.9470058,33.7990464 L22.9470058,33.7990464 Z M28.8176406,55.0005136 C28.8176406,56.2278338 28.7828657,57.7396951 27.1724718,58.8759622 C26.1203732,59.6145042 24.8754319,59.767524 23.7569447,59.767524 C22.6333994,59.767524 21.3935163,59.6145042 20.3363595,58.8759622 C18.7284947,57.7396951 18.6842357,56.2278338 18.6842357,55.0005136 L18.6842357,47.9970107 L22.0409617,47.9970107 L22.0409617,54.9884996 C22.0536071,55.653061 22.1149374,56.1766164 22.6315026,56.5990018 C22.9874711,56.8955567 23.2934902,56.9916684 23.7626352,56.9967269 C24.2172379,56.9916684 24.523257,56.8955567 24.8766964,56.5990018 C25.3907326,56.1766164 25.4596501,55.653061 25.4716633,54.9884996 L25.4716633,47.9970107 L28.8182729,47.9970107 L28.8182729,55.0005136 L28.8176406,55.0005136 Z M35.0613152,33.7990464 C37.8173838,33.7990464 40.0455063,36.0317449 40.0455063,38.7848373 C40.0455063,41.5366651 37.8180161,43.7693636 35.0613152,43.7693636 C32.3096725,43.7693636 30.0771241,41.5366651 30.0771241,38.7848373 C30.0771241,36.0317449 32.3103047,33.7990464 35.0613152,33.7990464 L35.0613152,33.7990464 Z M38.6153096,55.1415195 C37.9754515,55.598682 37.2496046,55.7687743 35.3825088,55.7687743 L34.411973,55.7491726 L34.411973,59.5234511 L31.4877204,59.5234511 L31.4877204,47.9970107 L36.3138437,47.9970107 C38.6677881,47.9970107 40.122011,49.4146573 40.122011,51.9622479 C40.122011,53.328677 39.5883744,54.4700027 38.6153096,55.1415195 L38.6153096,55.1415195 Z M50.6632306,51.4810574 C49.5150267,50.5224703 49.0629531,50.5920248 48.166393,50.5920248 C46.4175318,50.5920248 45.2023073,51.9211475 45.2023073,53.8130291 C45.2023073,55.7150277 46.4346031,57.0315041 48.1809352,57.0315041 C49.1293415,57.0315041 49.5984865,56.9031445 50.6632306,56.1203405 L50.6632306,59.1067566 C49.5592857,59.6454876 48.9346021,59.7985074 47.8723871,59.7985074 C44.3898392,59.7985074 41.9372606,57.3236329 41.9372606,53.8136614 C41.9372606,50.3346732 44.4442145,47.7560993 47.8376122,47.7560993 C48.8776977,47.7560993 49.5516984,47.9242947 50.6632306,48.463658 L50.6632306,51.4810574 L50.6632306,51.4810574 Z M46.8967931,43.7693636 C44.1407245,43.7693636 41.910073,41.5366651 41.910073,38.7848373 C41.910073,36.0317449 44.1400923,33.7990464 46.8967931,33.7990464 C49.6459068,33.7990464 51.8835133,36.0317449 51.8835133,38.7848373 C51.8835133,41.5360327 49.6459068,43.7693636 46.8967931,43.7693636 L46.8967931,43.7693636 Z M46.8967931,31.6415932 C44.1407245,31.6415932 41.910073,29.4088947 41.910073,26.6570669 C41.910073,23.9008129 44.1400923,21.6763345 46.8967931,21.6763345 C49.6459068,21.6763345 51.8835133,23.9008129 51.8835133,26.6570669 C51.8835133,29.4088947 49.6459068,31.6415932 46.8967931,31.6415932 L46.8967931,31.6415932 Z M46.8967931,19.8299795 C44.1407245,19.8299795 41.910073,17.5960164 41.910073,14.8441886 C41.910073,12.0923608 44.1400923,9.85586845 46.8967931,9.85586845 C49.6459068,9.85586845 51.8835133,12.0923608 51.8835133,14.8441886 C51.8835133,17.5960164 49.6459068,19.8299795 46.8967931,19.8299795 L46.8967931,19.8299795 Z" id="Shape"></path>
                </g>
            </g>
        </g>
    </g>
</svg>