<?xml version="1.0" encoding="utf-8"?>
<!-- Generator: Adobe Illustrator 16.0.4, SVG Export Plug-In . SVG Version: 6.00 Build 0)  -->
<!DOCTYPE svg PUBLIC "-//W3C//DTD SVG 1.1//EN" "http://www.w3.org/Graphics/SVG/1.1/DTD/svg11.dtd">
<svg version="1.1" id="Layer_1" xmlns="http://www.w3.org/2000/svg" xmlns:xlink="http://www.w3.org/1999/xlink" x="0px" y="0px"
	 width="714px" height="243px" viewBox="0 0 714 243" enable-background="new 0 0 714 243" xml:space="preserve">
<g>
	<path d="M36.334,26.856v189.289h132.311V26.856H36.334z M160.987,34.514v36.615l-23.648-21.316l-19.112,17.02L95.19,42.763
		L69.652,67.812L64.37,62.77L43.992,79.014v-44.5H160.987z"/>
	<g>
		<path fill-rule="evenodd" clip-rule="evenodd" fill="#FFFFFF" d="M127.943,81.347c-0.367,0.655-0.905,1.251-1.439,1.757
			c-1.401,1.315-1.406,1.672-3.003,2.719c-1.536,1.006-3.082,2-4.636,2.992c-1.236,0.789-2.675,1.313-3.686,2.47
			c-1.03,1.179-1.834,2.648-2.049,4.212c-0.059,0.433-0.503,3.662,0.011,3.812c1.796,0.519,3.662-0.362,5.426-0.64
			c2.431-0.382,5.579,0.007,7.203,2.05c0.854,1.067,2.363,1.199,3.435,0.136c0.918-0.909,1.423-3.215,1.419-4.388
			c-0.003-0.934-0.618-2.188-0.162-3.081c0.564-1.104,1.809-0.896,2.863-1.215c2.345-0.724,4.257-1.56,6.342-2.854
			c1.448-0.905,3.815-2.332,4.688-3.825c1.278-2.189-0.257-4.857,0.111-7.162c0.232-1.454,1.643-2.983,2.423-4.212
			c0.594-0.925,3.101-5.712,0.538-5.663c-1.429,0.027-3.091,0.709-4.298-0.482c-1.411-1.395-1.169-3.64-1.745-5.39
			c-0.459-1.383-1.262-3.574-2.812-4.095c-1.458-0.489-3.75,1.549-4.726,2.405c-2.396,2.107-5.083,4.236-7.473,6.355
			c-1.977,1.752-4.432,4.007-6.294,6.168c-1.002,1.172,0.014,2.537,0.896,3.429c0.33,0.336,0.998,1.245,1.416,1.411
			c1.002,0.394,2.158-0.785,3.142-0.91c0.998-0.127,1.973,0.198,2.493,1.083C128.621,79.436,128.445,80.443,127.943,81.347z"/>
	</g>
	<path fill="#FFFFFF" d="M130.862,115.93h20.047v3.885c-7.604,0-10.074,4.14-10.074,12.288v52.716c0,3.386,0,5.267,0.411,7.646
		c0.408,2.26,3.903,2.882,8.538,3.261v3.886h-32.392v-3.886c4.631-0.379,8.125-1.001,8.537-3.261
		c0.413-2.379,0.413-4.26,0.413-7.646v-43.689h-0.312L99.504,199.61h-2.461L71.24,139.125h-0.206v42.051
		c0,3.137,0.1,5.896,0.507,8.278c0.413,4.141,3.194,5.891,8.639,6.27v3.886H56.745v-3.886c5.546-0.379,8.222-2.129,8.734-6.27
		c0.206-2.383,0.517-5.142,0.517-8.278v-50.2c-2.37-6.52-7.101-11.163-12.335-11.163v-3.885h23.123l26.426,62.234L130.862,115.93
		L130.862,115.93z"/>
	<polygon fill="#11ACD4" points="69.652,67.812 95.19,42.763 118.227,66.833 137.339,49.812 160.987,71.129 160.987,34.514 
		43.992,34.514 43.992,79.014 64.37,62.77 	"/>
	<path fill-rule="evenodd" clip-rule="evenodd" fill="#FFFFFF" d="M58.476,96.719c2.604,0.471,4.679,2.344,6.559,3.988
		c1.629,1.427,3.254,3.454,5.687,3.028c2.112-0.371,3.035-1.044,3.662-3.005c0.362-1.133,0.441-2.343,0.905-3.454
		c0.622-1.483,1.486-1.613,2.994-2.043c0.934-0.266,1.843-0.612,2.762-0.919c2.117-0.709,5.083-1.128,6.396-2.987
		c1.55-2.175,1.698-3.981,2.023-6.557c0.25-2.057,0.125-3.265,0.77-5.247c0.934-2.871,9.553-8.914,10.63-11.651
		c0.511-1.308-4.224-0.398-4.558-1.661c-1.086-4.05,1.198-10.134-0.381-14.027c-0.399-0.45-0.951-0.371-1.42,0
		c-1.991,2.084-8.662,9.012-10.671,11.067c-2.251,2.302-4.554,4.56-6.745,6.914c-1.267,1.356-2.646,2.612-3.769,4.08
		c-0.836,1.089-1.801,2.136-2.711,3.167c-0.474,0.53-1.179,1.488-2.033,1.356c-1.412-0.223-2.108-2.913-2.154-4.016
		c-0.046-0.951,0.046-2.055-0.478-2.908c-1.044-1.69-2.316-0.969-3.468-0.086c-1.262,0.969-2.59,1.879-3.867,2.831
		c-4.436,3.295-9.175,6.715-13.398,10.291c-0.143,0.121-0.691,0.496-1.22,0.892v12.19C47.896,98.819,54.859,96.063,58.476,96.719z"
		/>
</g>
<g>
	<path d="M187.534,115.631h26.864v6.74h-9.085v28.037h-8.694v-28.037h-9.085V115.631z"/>
	<path d="M227.15,115.631h8.694v12.504h12.943v-12.504h8.694v34.777h-8.694v-14.653h-12.943v14.653h-8.694V115.631z"/>
	<path d="M271.066,150.408v-34.777h25.594v6.74h-16.899v6.35h15.776v6.74h-15.776v8.206h18.365v6.741H271.066z"/>
	<path d="M190.123,165.092h12.748l6.154,25.838h0.098l6.35-25.838h12.602v34.776h-8.205v-27.011h-0.099l-6.887,27.011h-7.668
		l-7.082-27.011h-0.098v27.011h-7.913V165.092z"/>
	<path d="M258.511,200.845c-11.087,0-17.583-8.597-17.583-18.365s6.496-18.365,17.583-18.365c11.088,0,17.584,8.597,17.584,18.365
		S269.599,200.845,258.511,200.845z M258.511,171.441c-5.079,0-8.89,3.224-8.89,11.038c0,5.08,2.052,11.039,8.89,11.039
		c6.447,0,8.89-5.666,8.89-11.039C267.4,177.009,264.958,171.441,258.511,171.441z"/>
	<path d="M317.616,187.755c0,9.524-8.059,13.09-14.75,13.09c-6.643,0-14.702-3.565-14.702-13.09v-22.663h8.694v21.931
		c0,3.907,1.514,6.789,6.008,6.789c4.542,0,6.057-2.882,6.057-6.789v-21.931h8.693V187.755z"/>
	<path d="M332.178,165.092h8.792l12.65,22.224h0.098v-22.224h7.912v34.776h-8.693l-12.748-21.882h-0.098v21.882h-7.913V165.092z"/>
	<path d="M373.407,165.092h26.864v6.74h-9.085v28.036h-8.694v-28.036h-9.085V165.092z"/>
	<path d="M419.032,165.092h8.987l13.139,34.776h-9.329l-1.758-5.471h-12.846l-1.759,5.471h-9.28L419.032,165.092z M427.971,187.95
		l-4.298-14.36h-0.098l-4.299,14.36H427.971z"/>
	<path d="M453.472,165.092h8.694v34.776h-8.694V165.092z"/>
	<path d="M477.701,165.092h8.792l12.65,22.224h0.098v-22.224h7.912v34.776h-8.693l-12.748-21.882h-0.098v21.882h-7.913V165.092z"/>
	<path d="M522.691,199.868v-34.776h25.594v6.74h-16.899v6.35h15.776v6.74h-15.776v8.206h18.365v6.74H522.691z"/>
	<path d="M562.162,199.868v-34.776h25.594v6.74h-16.899v6.35h15.776v6.74h-15.776v8.206h18.365v6.74H562.162z"/>
	<path d="M602.609,165.092h17.389c7.814,0,12.602,3.614,12.602,11.429c0,4.494-2.833,8.108-7.181,9.378l7.962,13.97h-9.72
		l-6.838-12.504h-5.52v12.504h-8.694V165.092z M611.304,180.917h7.961c2.784-0.049,4.641-1.466,4.641-4.689s-1.856-4.64-4.641-4.688
		h-7.961V180.917z"/>
	<path d="M650.041,189.464c3.028,2.735,5.91,4.348,10.062,4.348c2.296,0,6.496-0.978,6.496-4.005c0-1.759-1.318-2.638-3.907-3.077
		l-7.229-1.173c-6.447-1.025-9.964-4.444-9.964-9.573c0-8.401,6.789-11.869,14.213-11.869c5.764,0,11.43,2.345,15.337,6.691
		l-6.594,4.738c-2.296-2.784-5.666-4.396-9.329-4.396c-2.003,0-4.934,1.27-4.934,3.517c0,1.855,1.515,2.784,4.836,3.321l3.321,0.537
		c6.936,1.123,12.65,3.272,12.65,9.915c0,10.452-9.427,12.406-15.923,12.406c-5.91,0-10.94-1.905-15.679-7.082L650.041,189.464z"/>
</g>
</svg>
