<?xml version="1.0" encoding="utf-8"?>
<!-- Generator: Adobe Illustrator 15.1.0, SVG Export Plug-In . SVG Version: 6.00 Build 0)  -->
<!DOCTYPE svg PUBLIC "-//W3C//DTD SVG 1.1//EN" "http://www.w3.org/Graphics/SVG/1.1/DTD/svg11.dtd">
<svg version="1.1" id="Layer_1" xmlns="http://www.w3.org/2000/svg" xmlns:xlink="http://www.w3.org/1999/xlink" x="0px" y="0px"
	 width="300px" height="98px" viewBox="0 0 300 98" enable-background="new 0 0 300 98" xml:space="preserve">
<path fill="#010101" d="M26.784,51.725l-5.712-0.034c-0.031-0.195-0.058-0.354-0.073-0.453c-0.113-1.174-0.445-1.912-0.997-2.204
	c-0.549-0.293-1.89-0.438-4.014-0.447c-3.042-0.021-4.568,0.959-4.578,2.93c-0.011,1.348,0.257,2.147,0.789,2.403
	c0.534,0.256,2.35,0.47,5.439,0.638c4.169,0.226,6.876,0.792,8.129,1.701c1.254,0.905,1.875,2.757,1.858,5.546
	c-0.016,2.971-0.862,5.027-2.541,6.171c-1.68,1.134-4.69,1.695-9.027,1.674c-4.164-0.022-7.008-0.554-8.532-1.602
	C5.997,67,5.246,65.062,5.258,62.223l0.004-0.614l6.073,0.032c-0.091,0.344-0.142,0.609-0.161,0.815
	c-0.25,2.157,1.407,3.247,4.981,3.267c3.685,0.021,5.536-1.043,5.55-3.19c0.012-2.051-1.142-3.089-3.448-3.103
	c-5.225-0.024-8.662-0.532-10.308-1.531c-1.657-0.988-2.477-3.045-2.458-6.155c0.014-2.789,0.784-4.67,2.3-5.651
	c1.517-0.979,4.427-1.455,8.728-1.436c4.065,0.023,6.792,0.514,8.192,1.466C26.106,47.089,26.8,48.954,26.784,51.725"/>
<path fill="#010101" d="M38.141,45.075l-0.125,24.376l-5.841-0.026l0.128-24.379L38.141,45.075z M38.198,34.644l-0.029,4.872
	l-5.838-0.028l0.025-4.87L38.198,34.644z"/>
<polygon fill="#010101" points="63.823,45.209 56.673,56.648 64.488,69.591 57.501,69.555 52.65,60.675 47.84,69.501 40.666,69.469 
	48.717,56.681 41.74,45.096 48.699,45.131 52.687,52.876 56.86,45.169 "/>
<path fill="#010101" d="M81.446,69.677l0.103-19.943l-3.446-0.016l0.025-4.438l3.439,0.019l0.02-2.599
	c0.013-3.098,0.688-5.229,2.032-6.405c1.336-1.178,3.76-1.754,7.266-1.738c0.594,0.006,1.413,0.036,2.469,0.09l-0.025,4.566
	c-0.793-0.189-1.477-0.291-2.038-0.291c-2.563-0.011-3.854,1.258-3.866,3.808l-0.016,2.599l6.068,0.031l-0.022,4.434l-6.068-0.028
	l-0.1,19.94L81.446,69.677z"/>
<path fill="#010101" d="M112.317,62.036l5.863,0.026l-0.002,0.943c-0.025,4.76-3.604,7.123-10.748,7.085
	c-4.848-0.021-8.011-0.861-9.498-2.521c-1.488-1.662-2.22-5.156-2.191-10.496c0.022-4.739,0.825-7.927,2.398-9.55
	c1.569-1.624,4.628-2.423,9.164-2.401c4.35,0.024,7.262,0.832,8.733,2.429c1.475,1.6,2.194,4.728,2.175,9.384l-0.013,1.789
	L101.7,58.642c-0.039,0.542-0.057,0.897-0.057,1.067c-0.01,2.396,0.348,3.999,1.083,4.801c0.738,0.799,2.209,1.207,4.418,1.221
	c2.144,0.013,3.538-0.216,4.187-0.678C111.979,64.585,112.308,63.582,112.317,62.036 M112.402,55.121l-0.024-0.97
	c0.015-1.937-0.313-3.195-0.98-3.778c-0.671-0.583-2.126-0.875-4.372-0.887c-2.179-0.016-3.594,0.327-4.253,1.026
	c-0.658,0.691-0.992,2.207-1.004,4.556L112.402,55.121z"/>
<path fill="#010101" d="M138.76,62.166l5.866,0.032l-0.006,0.941c-0.022,4.767-3.607,7.121-10.746,7.087
	c-4.847-0.025-8.014-0.869-9.498-2.522c-1.491-1.655-2.221-5.152-2.192-10.487c0.021-4.75,0.822-7.933,2.396-9.552
	c1.57-1.625,4.628-2.428,9.165-2.408c4.354,0.027,7.267,0.834,8.736,2.431c1.473,1.596,2.193,4.726,2.172,9.382l-0.01,1.783
	l-16.502-0.082c-0.035,0.548-0.054,0.904-0.054,1.072c-0.013,2.396,0.347,4,1.081,4.802c0.737,0.802,2.212,1.207,4.418,1.219
	c2.141,0.011,3.539-0.218,4.188-0.682C138.424,64.721,138.755,63.716,138.76,62.166 M138.848,55.257l-0.021-0.971
	c0.008-1.936-0.319-3.193-0.987-3.775c-0.671-0.584-2.126-0.879-4.372-0.893c-2.176-0.01-3.594,0.332-4.252,1.023
	c-0.654,0.693-0.988,2.215-1.002,4.562L138.848,55.257z"/>
<path fill="#010101" d="M165.315,45.729l-0.021,4.435l-9.385-0.045l-0.065,12.241c-0.01,2.259,0.845,3.391,2.558,3.404
	c1.885,0.008,2.837-1.361,2.855-4.094l0.002-0.968l4.974,0.021l-0.007,1.224c0,1.124-0.043,2.087-0.114,2.883
	c-0.342,3.725-3.122,5.567-8.346,5.544c-5.199-0.024-7.784-2.432-7.766-7.209l0.07-13.077l-3.165-0.017l0.024-4.438l3.164,0.016
	l0.028-5.461l5.837,0.035l-0.027,5.456L165.315,45.729z"/>
<path fill="#010101" d="M204.23,45.845l-0.12,24.383l-5.841-0.029l0.352-4.183l-0.102-0.026c-1.159,2.987-3.785,4.475-7.882,4.446
	c-5.521-0.027-8.273-2.803-8.243-8.328l0.086-16.37l5.837,0.026l-0.077,14.972c-0.009,2.068,0.277,3.44,0.847,4.096
	c0.576,0.658,1.772,0.996,3.594,0.998c3.738,0.018,5.619-2.216,5.646-6.701l0.067-13.314L204.23,45.845z"/>
<path fill="#010101" d="M210.147,45.881l5.938,0.026l-0.245,3.622l0.128,0.026c1.423-2.63,4.056-3.933,7.899-3.91
	c3.555,0.016,5.996,0.912,7.318,2.672c1.324,1.769,1.979,4.982,1.953,9.642c-0.026,4.856-0.705,8.185-2.044,9.979
	c-1.335,1.798-3.794,2.689-7.379,2.663c-3.825-0.014-6.32-1.304-7.48-3.856h-0.103l-0.068,13.998l-6.095-0.032L210.147,45.881z
	 M221.628,50.252c-2.23-0.022-3.686,0.478-4.369,1.479c-0.689,0.998-1.038,3.119-1.053,6.367c-0.017,3.163,0.338,5.267,1.061,6.304
	c0.727,1.044,2.21,1.569,4.458,1.579c2.28,0.015,3.764-0.468,4.443-1.455c0.686-0.983,1.034-3.091,1.056-6.346
	c0.017-3.33-0.318-5.479-1.004-6.457C225.537,50.756,224.009,50.26,221.628,50.252"/>
<path fill="#FFFFFF" d="M251.146,70.923c-0.107-2.029-0.057-23.839-9.969-51.747l-0.044-0.148l-0.04-0.207l-0.034-0.31l-0.018-0.213
	l-0.027-0.323l-0.005-0.198l0.008-0.143l0.014-0.162c0,0,1.354-1.284,1.356-1.284c0,0,3.363-0.321,21.265-4.215
	c14.836-3.226,22.425-7.24,29.022-9.912c0.14-0.059,0.237,0,0.237,0s1.897,4.907,2.662,11.113c0.227,1.847,0.458,3.792,0.638,5.993
	c0.498,6.066,0.745,13.507,0.438,21.128c-0.256,6.349,0.178,11.24-2.101,19.835c-0.016,0.057-0.417,0.16-0.417,0.16
	s-4.731,2.067-17.042,5.586c-1.982,0.565-1.775,0.428-4.208,0.991C267.387,68.144,251.15,70.996,251.146,70.923"/>
<path fill="#2F8FA8" d="M264.81,29.552c0.088,0.233,0.173,0.465,0.261,0.696c0.145-0.104,0.287-0.208,0.431-0.312"/>
<path fill="#358EA1" d="M270.758,47.408c2.872-2.87,5.641-5.854,8.291-8.946c-3.835-2.619-7.786-5.075-11.853-7.356
	c-0.403,0.293-0.81,0.586-1.212,0.883C267.827,37.04,269.429,42.188,270.758,47.408"/>
<path fill="#4CAEC4" d="M264.722,27.439c0.855,0.457,1.442,0.685,2.293,1.155c1.885-1.341,3.97-2.758,5.909-4.016
	c-2.643-3.027-5.394-5.967-8.269-8.797c-1.014-0.996-2.337-2.335-3.373-3.303c-1.032,0.232-1.875,0.416-2.884,0.621
	C260.627,17.535,262.903,22.815,264.722,27.439"/>
<path fill="#A4DAE0" d="M282.974,33.584c0.06,0.079,0.115,0.161,0.174,0.238c0.767-0.947,1.521-1.906,2.265-2.87
	c3.566-4.626,7.455-10.131,10.479-15.08c-0.071-0.726-0.109-0.946-0.192-1.666c-6.588,3.046-13.598,6.726-19.725,10.622
	C278.404,27.659,280.743,30.58,282.974,33.584"/>
<path fill="#AFE0E5" d="M292.859,2c-0.031-0.006-0.138,0.039-0.154,0.045c-1.09,0.459-1.75,0.74-2.632,1.117
	c-8.497,3.634-17.232,6.66-26.266,8.781c3.825,3.612,7.473,7.414,10.937,11.387c6.354-4.043,13.862-8.033,20.684-11.156
	c-0.427-3.507-1.367-6.722-2.497-10.064C292.922,2.065,292.899,2.008,292.859,2"/>
<path fill="#124D62" d="M269.18,48.729c-1.079-4.325-2.332-8.612-3.778-12.846c-0.325-0.952-0.665-1.9-1.009-2.844
	c-5.611,4.179-10.87,8.662-15.905,13.552c0.077,0.435,0.184,0.984,0.259,1.419c4.452,2.354,8.689,4.868,12.912,7.64
	C264.232,53.422,266.744,51.118,269.18,48.729"/>
<path fill="#237489" d="M248.122,44.621c1.733-1.667,4.544-4.34,8.652-7.755c2.335-1.942,4.728-3.807,7.158-5.609
	c-0.298-0.798-0.597-1.599-0.909-2.395c-0.672-0.351-1.343-0.713-2.02-1.057c-6.435-3.271-13.081-6.243-19.834-8.608
	C243.072,24.45,245.806,32.979,248.122,44.621"/>
<path fill="#3694AE" d="M262.225,26.572c-1.709-4.227-3.795-8.988-5.846-13.041c-2.006,0.393-11.233,2.295-14.008,2.664
	c-0.219,0.148-0.508,0.353-0.703,0.535c-0.255,0.242-0.414,0.459-0.633,0.737C248.264,19.982,255.404,23.057,262.225,26.572"/>
<path fill="#9BD7DB" d="M291.985,44.563c1.477-1.474,3.127-3.03,4.661-4.45c0.279-7.769,0.144-11.607-0.192-17.492
	c-0.065-1.152-0.167-2.475-0.266-3.619c-3.522,5.623-7.5,11.221-11.693,16.385c1.697,2.333,3.334,4.706,4.9,7.124
	C290.267,43.185,291.128,43.873,291.985,44.563"/>
<path fill="#155567" d="M271.842,63.328c0.209,0.161,0.416,0.329,0.626,0.493c-0.67-4.336-1.511-8.646-2.536-12.922
	c-2.199,2.139-4.458,4.204-6.768,6.207C266.123,59.084,269.017,61.152,271.842,63.328"/>
<path fill="#45A1AE" d="M285.549,41.299c-0.856-1.256-1.728-2.495-2.62-3.728c-0.32,0.389-0.646,0.77-0.97,1.154
	C283.167,39.57,284.365,40.425,285.549,41.299"/>
<path fill="#1A4557" d="M272.941,66.858c-0.041-0.282-0.126-0.828-0.166-1.109c-3.417-2.697-7.147-5.434-10.781-7.853
	c-3.567,3.044-7.26,5.929-11.061,8.644c0.088,1.468,0.145,2.938,0.193,4.404c0.72-0.088,1.44-0.172,2.163-0.271
	C259.748,69.785,272.841,67.002,272.941,66.858"/>
<path fill="#4B9EA6" d="M293.383,45.779c1.003,0.824,2.051,1.736,3.032,2.582c0.148-1.93,0.13-3.949,0.162-5.892
	C295.42,43.556,294.507,44.661,293.383,45.779"/>
<path fill="#48A0B1" d="M280.144,36.961c0.42-0.492,0.829-0.998,1.241-1.494c-2.353-3.195-4.831-6.299-7.418-9.32
	c-1.809,1.171-3.507,2.316-5.266,3.557c2.69,1.527,5.26,3.187,7.867,4.872C277.772,35.354,278.962,36.153,280.144,36.961"/>
<path fill="#01374B" d="M250.798,64.419c3.448-2.492,6.735-5.073,9.976-7.832c-1.567-1.023-3.148-2.027-4.758-2.997
	c-2.3-1.39-4.634-2.698-6.992-3.966C249.817,54.542,250.459,59.441,250.798,64.419"/>
<path fill="#3B8598" d="M287.49,44.705c-2.128-1.642-4.298-3.228-6.509-4.764c-2.857,3.341-5.856,6.566-8.989,9.672
	c0.958,3.91,1.784,7.864,2.448,11.846c0.18,1.093,0.347,2.187,0.508,3.28c0.006,0.004,0.01,0.012,0.017,0.016
	c4.403-6.001,9.217-11.705,14.418-17.059C288.763,46.692,288.133,45.697,287.49,44.705"/>
<path fill="#3D8391" d="M295.242,57.284c-1.338-2.488-3.213-5.915-4.677-8.334c-2.175,2.249-4.253,4.598-6.296,6.975
	c-2.729,3.173-5.861,6.905-8.321,10.262c0.42-0.056,12.704-3.586,18.589-6.031C294.88,58.954,294.989,58.576,295.242,57.284"/>
<path fill="#48949E" d="M292.24,47.044c-0.064,0.07-0.007,0.021-0.069,0.089c1.229,2.026,2.607,4.384,3.751,6.459
	c0.131-1.065,0.267-2.115,0.361-3.196C295.058,49.325,293.501,48.077,292.24,47.044"/>
<path fill="#1385AE" d="M5.534,83.891l1.312,4.784c0.278,0.981,0.507,1.823,0.671,2.629h0.049c0.196-0.771,0.458-1.665,0.786-2.629
	l1.573-4.784h0.737l1.508,4.748c0.311,1.018,0.557,1.876,0.77,2.665h0.033c0.163-0.789,0.409-1.631,0.705-2.646l1.408-4.767h0.803
	l-2.622,8.411h-0.688l-1.475-4.681c-0.344-1.014-0.605-1.927-0.818-2.872h-0.033c-0.229,0.999-0.523,1.927-0.852,2.893l-1.573,4.66
	H7.14l-2.409-8.411H5.534z"/>
<path fill="none" stroke="#1385AE" stroke-width="0.375" d="M5.534,83.891l1.312,4.784c0.278,0.981,0.507,1.823,0.671,2.629h0.049
	c0.196-0.771,0.458-1.665,0.786-2.629l1.573-4.784h0.737l1.508,4.748c0.311,1.018,0.557,1.876,0.77,2.665h0.033
	c0.163-0.789,0.409-1.631,0.705-2.646l1.408-4.767h0.803l-2.622,8.411h-0.688l-1.475-4.681c-0.344-1.014-0.605-1.927-0.818-2.872
	h-0.033c-0.229,0.999-0.523,1.927-0.852,2.893l-1.573,4.66H7.14l-2.409-8.411H5.534z"/>
<path fill="#1385AE" d="M17.817,79.86h0.77v5.538h0.034c0.228-0.474,0.604-0.93,1.081-1.228c0.442-0.298,0.982-0.474,1.59-0.474
	c0.737,0,2.719,0.403,2.719,3.522v5.082H23.24v-4.977c0-1.525-0.557-2.908-2.162-2.908c-1.115,0-2.048,0.857-2.376,1.909
	c-0.081,0.246-0.115,0.489-0.115,0.823v5.152h-0.77V79.86z"/>
<path fill="none" stroke="#1385AE" stroke-width="0.375" d="M17.817,79.86h0.77v5.538h0.034c0.228-0.474,0.604-0.93,1.081-1.228
	c0.442-0.298,0.982-0.474,1.59-0.474c0.737,0,2.719,0.403,2.719,3.522v5.082H23.24v-4.977c0-1.525-0.557-2.908-2.162-2.908
	c-1.115,0-2.048,0.857-2.376,1.909c-0.081,0.246-0.115,0.489-0.115,0.823v5.152h-0.77V79.86z"/>
<path fill="#1385AE" d="M27.021,88.009c0,2.697,1.375,3.749,2.998,3.749c1.146,0,1.737-0.244,2.18-0.472l0.196,0.665
	c-0.295,0.174-1.098,0.544-2.474,0.544c-2.261,0-3.669-1.771-3.669-4.24c0-2.805,1.506-4.558,3.538-4.558
	c2.572,0,3.063,2.595,3.063,3.802c0,0.229,0,0.37-0.033,0.51H27.021z M32.034,87.342c0.017-1.174-0.442-2.961-2.343-2.961
	c-1.737,0-2.491,1.665-2.622,2.961H32.034z"/>
<path fill="none" stroke="#1385AE" stroke-width="0.375" d="M27.021,88.009c0,2.697,1.375,3.749,2.998,3.749
	c1.146,0,1.737-0.244,2.18-0.472l0.196,0.665c-0.295,0.174-1.098,0.544-2.474,0.544c-2.261,0-3.669-1.771-3.669-4.24
	c0-2.805,1.506-4.558,3.538-4.558c2.572,0,3.063,2.595,3.063,3.802c0,0.229,0,0.37-0.033,0.51H27.021z M32.034,87.342
	c0.017-1.174-0.442-2.961-2.343-2.961c-1.737,0-2.491,1.665-2.622,2.961H32.034z"/>
<path fill="#1385AE" d="M35.16,86.414c0-0.842-0.033-1.718-0.066-2.523h0.722l0.032,1.699h0.034
	c0.344-1.051,1.162-1.893,2.243-1.893c0.099,0,0.213,0.018,0.312,0.034v0.808c-0.116-0.034-0.229-0.034-0.378-0.034
	c-1.081,0-1.852,0.997-2.064,2.347c-0.032,0.244-0.065,0.526-0.065,0.806v4.645h-0.77V86.414z"/>
<path fill="none" stroke="#1385AE" stroke-width="0.375" d="M35.16,86.414c0-0.842-0.033-1.718-0.066-2.523h0.722l0.032,1.699h0.034
	c0.344-1.051,1.162-1.893,2.243-1.893c0.099,0,0.213,0.018,0.312,0.034v0.808c-0.116-0.034-0.229-0.034-0.378-0.034
	c-1.081,0-1.852,0.997-2.064,2.347c-0.032,0.244-0.065,0.526-0.065,0.806v4.645h-0.77V86.414z"/>
<path fill="#1385AE" d="M40.237,88.009c0,2.697,1.375,3.749,2.998,3.749c1.146,0,1.736-0.244,2.179-0.472l0.196,0.665
	c-0.295,0.174-1.096,0.544-2.474,0.544c-2.261,0-3.669-1.771-3.669-4.24c0-2.805,1.506-4.558,3.538-4.558
	c2.573,0,3.064,2.595,3.064,3.802c0,0.229,0,0.37-0.033,0.51H40.237z M45.25,87.342c0.016-1.174-0.442-2.961-2.343-2.961
	c-1.737,0-2.491,1.665-2.622,2.961H45.25z"/>
<path fill="none" stroke="#1385AE" stroke-width="0.375" d="M40.237,88.009c0,2.697,1.375,3.749,2.998,3.749
	c1.146,0,1.736-0.244,2.179-0.472l0.196,0.665c-0.295,0.174-1.096,0.544-2.474,0.544c-2.261,0-3.669-1.771-3.669-4.24
	c0-2.805,1.506-4.558,3.538-4.558c2.573,0,3.064,2.595,3.064,3.802c0,0.229,0,0.37-0.033,0.51H40.237z M45.25,87.342
	c0.016-1.174-0.442-2.961-2.343-2.961c-1.737,0-2.491,1.665-2.622,2.961H45.25z"/>
<path fill="#1385AE" d="M51.946,91.198c0.426,0.279,1.064,0.577,1.769,0.577c1.246,0,1.834-0.718,1.834-1.595
	c0-0.928-0.524-1.42-1.653-1.909c-1.295-0.526-1.999-1.28-1.999-2.295c0-1.21,0.884-2.279,2.425-2.279
	c0.721,0,1.326,0.228,1.736,0.525l-0.312,0.684c-0.262-0.21-0.77-0.508-1.555-0.508c-1,0-1.524,0.684-1.524,1.454
	c0,0.877,0.558,1.263,1.622,1.735c1.278,0.525,2.031,1.209,2.031,2.488c0,1.438-1.048,2.419-2.654,2.419
	c-0.771,0-1.474-0.246-1.999-0.596L51.946,91.198z"/>
<path fill="none" stroke="#1385AE" stroke-width="0.375" d="M51.946,91.198c0.426,0.279,1.064,0.577,1.769,0.577
	c1.246,0,1.834-0.718,1.834-1.595c0-0.928-0.524-1.42-1.653-1.909c-1.295-0.526-1.999-1.28-1.999-2.295
	c0-1.21,0.884-2.279,2.425-2.279c0.721,0,1.326,0.228,1.736,0.525l-0.312,0.684c-0.262-0.21-0.77-0.508-1.555-0.508
	c-1,0-1.524,0.684-1.524,1.454c0,0.877,0.558,1.263,1.622,1.735c1.278,0.525,2.031,1.209,2.031,2.488
	c0,1.438-1.048,2.419-2.654,2.419c-0.771,0-1.474-0.246-1.999-0.596L51.946,91.198z"/>
<path fill="#1385AE" d="M65.411,88.007c0,3.155-2.016,4.488-3.769,4.488c-2.031,0-3.604-1.699-3.604-4.33
	c0-2.891,1.77-4.468,3.719-4.468C63.936,83.697,65.411,85.433,65.411,88.007 M58.824,88.113c0,2.103,1.262,3.681,2.867,3.681
	c1.639,0,2.933-1.578,2.933-3.732c0-1.544-0.819-3.681-2.884-3.681C59.742,84.381,58.824,86.31,58.824,88.113"/>
<path fill="none" stroke="#1385AE" stroke-width="0.375" d="M65.411,88.007c0,3.155-2.016,4.488-3.769,4.488
	c-2.031,0-3.604-1.699-3.604-4.33c0-2.891,1.77-4.468,3.719-4.468C63.936,83.697,65.411,85.433,65.411,88.007z M58.824,88.113
	c0,2.103,1.262,3.681,2.867,3.681c1.639,0,2.933-1.578,2.933-3.732c0-1.544-0.819-3.681-2.884-3.681
	C59.742,84.381,58.824,86.31,58.824,88.113z"/>
<path fill="#1385AE" d="M67.716,86.572c0-1.052-0.032-1.894-0.065-2.682h0.737l0.066,1.594h0.033
	c0.557-1.121,1.523-1.787,2.898-1.787c2.016,0,3.376,1.787,3.376,4.258c0,3.015-1.671,4.538-3.572,4.538
	c-1.13,0-2.13-0.542-2.671-1.56h-0.032v4.836h-0.771V86.572z M68.487,88.989c0,0.229,0.032,0.455,0.065,0.667
	c0.328,1.296,1.376,2.138,2.589,2.138c1.802,0,2.833-1.56,2.833-3.803c0-1.894-0.982-3.61-2.769-3.61
	c-1.146,0-2.261,0.857-2.605,2.243c-0.049,0.228-0.114,0.489-0.114,0.72V88.989z"/>
<path fill="none" stroke="#1385AE" stroke-width="0.375" d="M67.716,86.572c0-1.052-0.032-1.894-0.065-2.682h0.737l0.066,1.594
	h0.033c0.557-1.121,1.523-1.787,2.898-1.787c2.016,0,3.376,1.787,3.376,4.258c0,3.015-1.671,4.538-3.572,4.538
	c-1.13,0-2.13-0.542-2.671-1.56h-0.032v4.836h-0.771V86.572z M68.487,88.989c0,0.229,0.032,0.455,0.065,0.667
	c0.328,1.296,1.376,2.138,2.589,2.138c1.802,0,2.833-1.56,2.833-3.803c0-1.894-0.982-3.61-2.769-3.61
	c-1.146,0-2.261,0.857-2.605,2.243c-0.049,0.228-0.114,0.489-0.114,0.72V88.989z"/>
<path fill="#1385AE" d="M77.067,79.86h0.77v5.538h0.034c0.228-0.474,0.605-0.93,1.081-1.228c0.443-0.298,0.982-0.474,1.589-0.474
	c0.738,0,2.72,0.403,2.72,3.522v5.082H82.49v-4.977c0-1.525-0.557-2.908-2.162-2.908c-1.115,0-2.048,0.857-2.376,1.909
	c-0.081,0.246-0.115,0.489-0.115,0.823v5.152h-0.77V79.86z"/>
<path fill="none" stroke="#1385AE" stroke-width="0.375" d="M77.067,79.86h0.77v5.538h0.034c0.228-0.474,0.605-0.93,1.081-1.228
	c0.443-0.298,0.982-0.474,1.589-0.474c0.738,0,2.72,0.403,2.72,3.522v5.082H82.49v-4.977c0-1.525-0.557-2.908-2.162-2.908
	c-1.115,0-2.048,0.857-2.376,1.909c-0.081,0.246-0.115,0.489-0.115,0.823v5.152h-0.77V79.86z"/>
<path fill="#1385AE" d="M87.172,81.49c0,0.386-0.245,0.718-0.655,0.718c-0.361,0-0.606-0.332-0.606-0.718s0.278-0.736,0.639-0.736
	C86.927,80.754,87.172,81.086,87.172,81.49 M86.157,83.889h0.771v8.413h-0.771V83.889z"/>
<path fill="none" stroke="#1385AE" stroke-width="0.375" d="M87.172,81.49c0,0.386-0.245,0.718-0.655,0.718
	c-0.361,0-0.606-0.332-0.606-0.718s0.278-0.736,0.639-0.736C86.927,80.754,87.172,81.086,87.172,81.49z M86.157,83.889h0.771v8.413
	h-0.771V83.889z"/>
<path fill="#1385AE" d="M89.564,91.198c0.426,0.279,1.064,0.577,1.77,0.577c1.245,0,1.834-0.718,1.834-1.595
	c0-0.928-0.523-1.42-1.654-1.909c-1.294-0.526-1.999-1.28-1.999-2.295c0-1.21,0.885-2.279,2.425-2.279
	c0.721,0,1.327,0.228,1.737,0.525l-0.312,0.684c-0.263-0.21-0.77-0.508-1.557-0.508c-1,0-1.524,0.684-1.524,1.454
	c0,0.877,0.558,1.263,1.623,1.735c1.277,0.525,2.031,1.209,2.031,2.488c0,1.438-1.049,2.419-2.653,2.419
	c-0.771,0-1.476-0.246-2-0.596L89.564,91.198z"/>
<path fill="none" stroke="#1385AE" stroke-width="0.375" d="M89.564,91.198c0.426,0.279,1.064,0.577,1.77,0.577
	c1.245,0,1.834-0.718,1.834-1.595c0-0.928-0.523-1.42-1.654-1.909c-1.294-0.526-1.999-1.28-1.999-2.295
	c0-1.21,0.885-2.279,2.425-2.279c0.721,0,1.327,0.228,1.737,0.525l-0.312,0.684c-0.263-0.21-0.77-0.508-1.557-0.508
	c-1,0-1.524,0.684-1.524,1.454c0,0.877,0.558,1.263,1.623,1.735c1.277,0.525,2.031,1.209,2.031,2.488
	c0,1.438-1.049,2.419-2.653,2.419c-0.771,0-1.476-0.246-2-0.596L89.564,91.198z"/>
<path fill="#1385AE" d="M97.392,82.032v1.858h2.245v0.664h-2.245v5.47c0,1.069,0.311,1.751,1.148,1.751
	c0.409,0,0.704-0.069,0.899-0.14l0.099,0.649c-0.262,0.122-0.622,0.21-1.098,0.21c-0.574,0-1.049-0.21-1.343-0.613
	c-0.36-0.438-0.492-1.14-0.492-1.999v-5.328h-1.327v-0.664h1.327V82.35L97.392,82.032z"/>
<path fill="none" stroke="#1385AE" stroke-width="0.375" d="M97.392,82.032v1.858h2.245v0.664h-2.245v5.47
	c0,1.069,0.311,1.751,1.148,1.751c0.409,0,0.704-0.069,0.899-0.14l0.099,0.649c-0.262,0.122-0.622,0.21-1.098,0.21
	c-0.574,0-1.049-0.21-1.343-0.613c-0.36-0.438-0.492-1.14-0.492-1.999v-5.328h-1.327v-0.664h1.327V82.35L97.392,82.032z"/>
<path fill="#1385AE" d="M102.698,81.49c0,0.386-0.245,0.718-0.655,0.718c-0.361,0-0.606-0.332-0.606-0.718s0.278-0.736,0.639-0.736
	C102.453,80.754,102.698,81.086,102.698,81.49 M101.682,83.889h0.771v8.413h-0.771V83.889z"/>
<path fill="none" stroke="#1385AE" stroke-width="0.375" d="M102.698,81.49c0,0.386-0.245,0.718-0.655,0.718
	c-0.361,0-0.606-0.332-0.606-0.718s0.278-0.736,0.639-0.736C102.453,80.754,102.698,81.086,102.698,81.49z M101.682,83.889h0.771
	v8.413h-0.771V83.889z"/>
<path fill="#1385AE" d="M110.839,91.934c-0.344,0.191-1.163,0.562-2.294,0.562c-2.277,0-3.784-1.771-3.784-4.312
	c0-2.663,1.703-4.486,4.063-4.486c0.967,0,1.753,0.298,2.064,0.525l-0.278,0.684c-0.394-0.228-1.001-0.489-1.868-0.489
	c-2.114,0-3.195,1.733-3.195,3.714c0,2.191,1.293,3.629,3.113,3.629c0.935,0,1.539-0.282,1.966-0.474L110.839,91.934z"/>
<path fill="none" stroke="#1385AE" stroke-width="0.375" d="M110.839,91.934c-0.344,0.191-1.163,0.562-2.294,0.562
	c-2.277,0-3.784-1.771-3.784-4.312c0-2.663,1.703-4.486,4.063-4.486c0.967,0,1.753,0.298,2.064,0.525l-0.278,0.684
	c-0.394-0.228-1.001-0.489-1.868-0.489c-2.114,0-3.195,1.733-3.195,3.714c0,2.191,1.293,3.629,3.113,3.629
	c0.935,0,1.539-0.282,1.966-0.474L110.839,91.934z"/>
<path fill="#1385AE" d="M117.913,90.305c0,0.665,0.034,1.349,0.116,1.997h-0.706l-0.114-1.208h-0.05
	c-0.375,0.647-1.244,1.399-2.506,1.399c-1.572,0-2.311-1.191-2.311-2.312c0-1.943,1.606-3.119,4.801-3.083v-0.21
	c0-0.842-0.147-2.507-2.015-2.489c-0.688,0-1.409,0.192-1.965,0.63l-0.246-0.611c0.704-0.51,1.588-0.72,2.293-0.72
	c2.277,0,2.703,1.823,2.703,3.33V90.305z M117.144,87.797c-1.72-0.052-3.98,0.23-3.98,2.243c0,1.21,0.753,1.754,1.572,1.754
	c1.311,0,2.048-0.86,2.326-1.682c0.049-0.176,0.082-0.352,0.082-0.51V87.797z"/>
<path fill="none" stroke="#1385AE" stroke-width="0.375" d="M117.913,90.305c0,0.665,0.034,1.349,0.116,1.997h-0.706l-0.114-1.208
	h-0.05c-0.375,0.647-1.244,1.399-2.506,1.399c-1.572,0-2.311-1.191-2.311-2.312c0-1.943,1.606-3.119,4.801-3.083v-0.21
	c0-0.842-0.147-2.507-2.015-2.489c-0.688,0-1.409,0.192-1.965,0.63l-0.246-0.611c0.704-0.51,1.588-0.72,2.293-0.72
	c2.277,0,2.703,1.823,2.703,3.33V90.305z M117.144,87.797c-1.72-0.052-3.98,0.23-3.98,2.243c0,1.21,0.753,1.754,1.572,1.754
	c1.311,0,2.048-0.86,2.326-1.682c0.049-0.176,0.082-0.352,0.082-0.51V87.797z"/>
<path fill="#1385AE" d="M121.859,82.032v1.858h2.244v0.664h-2.244v5.47c0,1.069,0.311,1.751,1.146,1.751
	c0.41,0,0.705-0.069,0.902-0.14l0.098,0.649c-0.262,0.122-0.624,0.21-1.099,0.21c-0.573,0-1.047-0.21-1.342-0.613
	c-0.361-0.438-0.493-1.14-0.493-1.999v-5.328h-1.327v-0.664h1.327V82.35L121.859,82.032z"/>
<path fill="none" stroke="#1385AE" stroke-width="0.375" d="M121.859,82.032v1.858h2.244v0.664h-2.244v5.47
	c0,1.069,0.311,1.751,1.146,1.751c0.41,0,0.705-0.069,0.902-0.14l0.098,0.649c-0.262,0.122-0.624,0.21-1.099,0.21
	c-0.573,0-1.047-0.21-1.342-0.613c-0.361-0.438-0.493-1.14-0.493-1.999v-5.328h-1.327v-0.664h1.327V82.35L121.859,82.032z"/>
<path fill="#1385AE" d="M126.166,88.009c0,2.697,1.375,3.749,2.998,3.749c1.146,0,1.737-0.244,2.179-0.472l0.197,0.665
	c-0.295,0.174-1.097,0.544-2.474,0.544c-2.261,0-3.669-1.771-3.669-4.24c0-2.805,1.506-4.558,3.539-4.558
	c2.572,0,3.063,2.595,3.063,3.802c0,0.229,0,0.37-0.033,0.51H126.166z M131.178,87.342c0.017-1.174-0.441-2.961-2.342-2.961
	c-1.737,0-2.491,1.665-2.622,2.961H131.178z"/>
<path fill="none" stroke="#1385AE" stroke-width="0.375" d="M126.166,88.009c0,2.697,1.375,3.749,2.998,3.749
	c1.146,0,1.737-0.244,2.179-0.472l0.197,0.665c-0.295,0.174-1.097,0.544-2.474,0.544c-2.261,0-3.669-1.771-3.669-4.24
	c0-2.805,1.506-4.558,3.539-4.558c2.572,0,3.063,2.595,3.063,3.802c0,0.229,0,0.37-0.033,0.51H126.166z M131.178,87.342
	c0.017-1.174-0.441-2.961-2.342-2.961c-1.737,0-2.491,1.665-2.622,2.961H131.178z"/>
<path fill="#1385AE" d="M140.562,79.86v10.478c0,0.632,0.033,1.368,0.066,1.964h-0.704l-0.05-1.594h-0.032
	c-0.41,0.928-1.345,1.785-2.802,1.785c-1.933,0-3.392-1.733-3.392-4.24c-0.017-2.803,1.605-4.556,3.539-4.556
	c1.36,0,2.212,0.754,2.573,1.474h0.032V79.86H140.562z M139.793,87.22c0-0.229-0.032-0.544-0.082-0.77
	c-0.278-1.124-1.197-2.069-2.473-2.069c-1.721,0-2.802,1.596-2.802,3.784c0,1.894,0.885,3.629,2.752,3.629
	c1.131,0,2.179-0.788,2.523-2.191c0.05-0.228,0.082-0.438,0.082-0.699V87.22z"/>
<path fill="none" stroke="#1385AE" stroke-width="0.375" d="M140.562,79.86v10.478c0,0.632,0.033,1.368,0.066,1.964h-0.704
	l-0.05-1.594h-0.032c-0.41,0.928-1.345,1.785-2.802,1.785c-1.933,0-3.392-1.733-3.392-4.24c-0.017-2.803,1.605-4.556,3.539-4.556
	c1.36,0,2.212,0.754,2.573,1.474h0.032V79.86H140.562z M139.793,87.22c0-0.229-0.032-0.544-0.082-0.77
	c-0.278-1.124-1.197-2.069-2.473-2.069c-1.721,0-2.802,1.596-2.802,3.784c0,1.894,0.885,3.629,2.752,3.629
	c1.131,0,2.179-0.788,2.523-2.191c0.05-0.228,0.082-0.438,0.082-0.699V87.22z"/>
<path fill="#1385AE" d="M147.274,83.891l1.312,4.784c0.278,0.981,0.508,1.823,0.671,2.629h0.05c0.196-0.771,0.458-1.665,0.786-2.629
	l1.574-4.784h0.736l1.509,4.748c0.311,1.018,0.557,1.876,0.77,2.665h0.031c0.164-0.789,0.41-1.631,0.706-2.646l1.408-4.767h0.803
	l-2.622,8.411h-0.688l-1.474-4.681c-0.344-1.014-0.607-1.927-0.82-2.872h-0.031c-0.23,0.999-0.525,1.927-0.852,2.893l-1.574,4.66
	h-0.688l-2.409-8.411H147.274z"/>
<path fill="none" stroke="#1385AE" stroke-width="0.375" d="M147.274,83.891l1.312,4.784c0.278,0.981,0.508,1.823,0.671,2.629h0.05
	c0.196-0.771,0.458-1.665,0.786-2.629l1.574-4.784h0.736l1.509,4.748c0.311,1.018,0.557,1.876,0.77,2.665h0.031
	c0.164-0.789,0.41-1.631,0.706-2.646l1.408-4.767h0.803l-2.622,8.411h-0.688l-1.474-4.681c-0.344-1.014-0.607-1.927-0.82-2.872
	h-0.031c-0.23,0.999-0.525,1.927-0.852,2.893l-1.574,4.66h-0.688l-2.409-8.411H147.274z"/>
<path fill="#1385AE" d="M159.559,88.009c0,2.697,1.375,3.749,2.997,3.749c1.146,0,1.737-0.244,2.18-0.472l0.196,0.665
	c-0.295,0.174-1.098,0.544-2.475,0.544c-2.261,0-3.67-1.771-3.67-4.24c0-2.805,1.508-4.558,3.539-4.558
	c2.573,0,3.063,2.595,3.063,3.802c0,0.229,0,0.37-0.032,0.51H159.559z M164.571,87.342c0.016-1.174-0.442-2.961-2.343-2.961
	c-1.737,0-2.49,1.665-2.621,2.961H164.571z"/>
<path fill="none" stroke="#1385AE" stroke-width="0.375" d="M159.559,88.009c0,2.697,1.375,3.749,2.997,3.749
	c1.146,0,1.737-0.244,2.18-0.472l0.196,0.665c-0.295,0.174-1.098,0.544-2.475,0.544c-2.261,0-3.67-1.771-3.67-4.24
	c0-2.805,1.508-4.558,3.539-4.558c2.573,0,3.063,2.595,3.063,3.802c0,0.229,0,0.37-0.032,0.51H159.559z M164.571,87.342
	c0.016-1.174-0.442-2.961-2.343-2.961c-1.737,0-2.49,1.665-2.621,2.961H164.571z"/>
<path fill="#1385AE" d="M167.697,79.86h0.77v5.59h0.032c0.525-1.087,1.492-1.753,2.884-1.753c1.982,0,3.359,1.771,3.359,4.312
	c0,2.995-1.785,4.486-3.507,4.486c-1.261,0-2.195-0.544-2.817-1.717h-0.032l-0.05,1.523h-0.704c0.033-0.596,0.065-1.332,0.065-1.964
	V79.86z M168.467,89.059c0,0.194,0.032,0.404,0.065,0.616c0.344,1.277,1.36,2.119,2.589,2.119c1.803,0,2.834-1.578,2.834-3.769
	c0-1.928-0.982-3.645-2.769-3.645c-1.146,0-2.244,0.859-2.621,2.261c-0.049,0.21-0.099,0.438-0.099,0.736V89.059z"/>
<path fill="none" stroke="#1385AE" stroke-width="0.375" d="M167.697,79.86h0.77v5.59h0.032c0.525-1.087,1.492-1.753,2.884-1.753
	c1.982,0,3.359,1.771,3.359,4.312c0,2.995-1.785,4.486-3.507,4.486c-1.261,0-2.195-0.544-2.817-1.717h-0.032l-0.05,1.523h-0.704
	c0.033-0.596,0.065-1.332,0.065-1.964V79.86z M168.467,89.059c0,0.194,0.032,0.404,0.065,0.616c0.344,1.277,1.36,2.119,2.589,2.119
	c1.803,0,2.834-1.578,2.834-3.769c0-1.928-0.982-3.645-2.769-3.645c-1.146,0-2.244,0.859-2.621,2.261
	c-0.049,0.21-0.099,0.438-0.099,0.736V89.059z"/>
<path fill="#1385AE" d="M180.945,86.572c0-1.052-0.032-1.894-0.065-2.682h0.737l0.065,1.594h0.032
	c0.558-1.121,1.524-1.787,2.9-1.787c2.016,0,3.375,1.787,3.375,4.258c0,3.015-1.672,4.538-3.571,4.538
	c-1.131,0-2.131-0.542-2.671-1.56h-0.033v4.836h-0.77V86.572z M181.715,88.989c0,0.229,0.033,0.455,0.066,0.667
	c0.327,1.296,1.376,2.138,2.589,2.138c1.802,0,2.833-1.56,2.833-3.803c0-1.894-0.982-3.61-2.769-3.61
	c-1.146,0-2.261,0.857-2.604,2.243c-0.049,0.228-0.115,0.489-0.115,0.72V88.989z"/>
<path fill="none" stroke="#1385AE" stroke-width="0.375" d="M180.945,86.572c0-1.052-0.032-1.894-0.065-2.682h0.737l0.065,1.594
	h0.032c0.558-1.121,1.524-1.787,2.9-1.787c2.016,0,3.375,1.787,3.375,4.258c0,3.015-1.672,4.538-3.571,4.538
	c-1.131,0-2.131-0.542-2.671-1.56h-0.033v4.836h-0.77V86.572z M181.715,88.989c0,0.229,0.033,0.455,0.066,0.667
	c0.327,1.296,1.376,2.138,2.589,2.138c1.802,0,2.833-1.56,2.833-3.803c0-1.894-0.982-3.61-2.769-3.61
	c-1.146,0-2.261,0.857-2.604,2.243c-0.049,0.228-0.115,0.489-0.115,0.72V88.989z"/>
<path fill="#1385AE" d="M190.296,86.414c0-0.842-0.033-1.718-0.065-2.523h0.722l0.031,1.699h0.034
	c0.344-1.051,1.163-1.893,2.244-1.893c0.098,0,0.212,0.018,0.312,0.034v0.808c-0.116-0.034-0.23-0.034-0.378-0.034
	c-1.081,0-1.852,0.997-2.064,2.347c-0.032,0.244-0.066,0.526-0.066,0.806v4.645h-0.77V86.414z"/>
<path fill="none" stroke="#1385AE" stroke-width="0.375" d="M190.296,86.414c0-0.842-0.033-1.718-0.065-2.523h0.722l0.031,1.699
	h0.034c0.344-1.051,1.163-1.893,2.244-1.893c0.098,0,0.212,0.018,0.312,0.034v0.808c-0.116-0.034-0.23-0.034-0.378-0.034
	c-1.081,0-1.852,0.997-2.064,2.347c-0.032,0.244-0.066,0.526-0.066,0.806v4.645h-0.77V86.414z"/>
<path fill="#1385AE" d="M201.977,88.007c0,3.155-2.017,4.488-3.769,4.488c-2.032,0-3.604-1.699-3.604-4.33
	c0-2.891,1.769-4.468,3.719-4.468C200.502,83.697,201.977,85.433,201.977,88.007 M195.39,88.113c0,2.103,1.261,3.681,2.867,3.681
	c1.639,0,2.933-1.578,2.933-3.732c0-1.544-0.818-3.681-2.884-3.681C196.307,84.381,195.39,86.31,195.39,88.113"/>
<path fill="none" stroke="#1385AE" stroke-width="0.375" d="M201.977,88.007c0,3.155-2.017,4.488-3.769,4.488
	c-2.032,0-3.604-1.699-3.604-4.33c0-2.891,1.769-4.468,3.719-4.468C200.502,83.697,201.977,85.433,201.977,88.007z M195.39,88.113
	c0,2.103,1.261,3.681,2.867,3.681c1.639,0,2.933-1.578,2.933-3.732c0-1.544-0.818-3.681-2.884-3.681
	C196.307,84.381,195.39,86.31,195.39,88.113z"/>
<path fill="#1385AE" d="M202.152,95.28c0.672-0.034,1.278-0.246,1.639-0.7c0.409-0.527,0.59-1.191,0.59-3.416v-7.273h0.77v7.833
	c0,1.508-0.147,2.541-0.835,3.328c-0.558,0.666-1.557,0.912-2.064,0.912L202.152,95.28z M205.396,81.49
	c0,0.367-0.229,0.718-0.655,0.718c-0.36,0-0.606-0.351-0.606-0.718c0-0.386,0.278-0.736,0.655-0.736
	C205.15,80.754,205.396,81.104,205.396,81.49"/>
<path fill="none" stroke="#1385AE" stroke-width="0.375" d="M202.152,95.28c0.672-0.034,1.278-0.246,1.639-0.7
	c0.409-0.527,0.59-1.191,0.59-3.416v-7.273h0.77v7.833c0,1.508-0.147,2.541-0.835,3.328c-0.558,0.666-1.557,0.912-2.064,0.912
	L202.152,95.28z M205.396,81.49c0,0.367-0.229,0.718-0.655,0.718c-0.36,0-0.606-0.351-0.606-0.718c0-0.386,0.278-0.736,0.655-0.736
	C205.15,80.754,205.396,81.104,205.396,81.49z"/>
<path fill="#1385AE" d="M208.213,88.009c0,2.697,1.376,3.749,2.998,3.749c1.146,0,1.736-0.244,2.18-0.472l0.195,0.665
	c-0.294,0.174-1.097,0.544-2.474,0.544c-2.261,0-3.67-1.771-3.67-4.24c0-2.805,1.508-4.558,3.539-4.558
	c2.573,0,3.063,2.595,3.063,3.802c0,0.229,0,0.37-0.033,0.51H208.213z M213.227,87.342c0.016-1.174-0.442-2.961-2.343-2.961
	c-1.737,0-2.49,1.665-2.621,2.961H213.227z"/>
<path fill="none" stroke="#1385AE" stroke-width="0.375" d="M208.213,88.009c0,2.697,1.376,3.749,2.998,3.749
	c1.146,0,1.736-0.244,2.18-0.472l0.195,0.665c-0.294,0.174-1.097,0.544-2.474,0.544c-2.261,0-3.67-1.771-3.67-4.24
	c0-2.805,1.508-4.558,3.539-4.558c2.573,0,3.063,2.595,3.063,3.802c0,0.229,0,0.37-0.033,0.51H208.213z M213.227,87.342
	c0.016-1.174-0.442-2.961-2.343-2.961c-1.737,0-2.49,1.665-2.621,2.961H213.227z"/>
<path fill="#1385AE" d="M221.775,91.934c-0.344,0.191-1.164,0.562-2.294,0.562c-2.277,0-3.784-1.771-3.784-4.312
	c0-2.663,1.703-4.486,4.062-4.486c0.968,0,1.753,0.298,2.064,0.525l-0.278,0.684c-0.393-0.228-1-0.489-1.868-0.489
	c-2.113,0-3.193,1.733-3.193,3.714c0,2.191,1.293,3.629,3.111,3.629c0.934,0,1.54-0.282,1.967-0.474L221.775,91.934z"/>
<path fill="none" stroke="#1385AE" stroke-width="0.375" d="M221.775,91.934c-0.344,0.191-1.164,0.562-2.294,0.562
	c-2.277,0-3.784-1.771-3.784-4.312c0-2.663,1.703-4.486,4.062-4.486c0.968,0,1.753,0.298,2.064,0.525l-0.278,0.684
	c-0.393-0.228-1-0.489-1.868-0.489c-2.113,0-3.193,1.733-3.193,3.714c0,2.191,1.293,3.629,3.111,3.629
	c0.934,0,1.54-0.282,1.967-0.474L221.775,91.934z"/>
<path fill="#1385AE" d="M225.229,82.032v1.858h2.245v0.664h-2.245v5.47c0,1.069,0.312,1.751,1.147,1.751
	c0.409,0,0.704-0.069,0.901-0.14l0.098,0.649c-0.262,0.122-0.623,0.21-1.099,0.21c-0.572,0-1.048-0.21-1.342-0.613
	c-0.361-0.438-0.493-1.14-0.493-1.999v-5.328h-1.326v-0.664h1.326V82.35L225.229,82.032z"/>
<path fill="none" stroke="#1385AE" stroke-width="0.375" d="M225.229,82.032v1.858h2.245v0.664h-2.245v5.47
	c0,1.069,0.312,1.751,1.147,1.751c0.409,0,0.704-0.069,0.901-0.14l0.098,0.649c-0.262,0.122-0.623,0.21-1.099,0.21
	c-0.572,0-1.048-0.21-1.342-0.613c-0.361-0.438-0.493-1.14-0.493-1.999v-5.328h-1.326v-0.664h1.326V82.35L225.229,82.032z"/>
<path fill="#1385AE" d="M229.19,91.198c0.426,0.279,1.064,0.577,1.771,0.577c1.244,0,1.834-0.718,1.834-1.595
	c0-0.928-0.523-1.42-1.654-1.909c-1.294-0.526-1.999-1.28-1.999-2.295c0-1.21,0.885-2.279,2.425-2.279
	c0.721,0,1.326,0.228,1.737,0.525l-0.312,0.684c-0.264-0.21-0.77-0.508-1.557-0.508c-1,0-1.524,0.684-1.524,1.454
	c0,0.877,0.559,1.263,1.622,1.735c1.277,0.525,2.031,1.209,2.031,2.488c0,1.438-1.047,2.419-2.652,2.419
	c-0.771,0-1.476-0.246-1.999-0.596L229.19,91.198z"/>
<path fill="none" stroke="#1385AE" stroke-width="0.375" d="M229.19,91.198c0.426,0.279,1.064,0.577,1.771,0.577
	c1.244,0,1.834-0.718,1.834-1.595c0-0.928-0.523-1.42-1.654-1.909c-1.294-0.526-1.999-1.28-1.999-2.295
	c0-1.21,0.885-2.279,2.425-2.279c0.721,0,1.326,0.228,1.737,0.525l-0.312,0.684c-0.264-0.21-0.77-0.508-1.557-0.508
	c-1,0-1.524,0.684-1.524,1.454c0,0.877,0.559,1.263,1.622,1.735c1.277,0.525,2.031,1.209,2.031,2.488
	c0,1.438-1.047,2.419-2.652,2.419c-0.771,0-1.476-0.246-1.999-0.596L229.19,91.198z"/>
<path fill="#82B841" d="M241.703,81.77v2.189h1.917v1.613h-1.917v3.767c0,1.052,0.263,1.577,1.032,1.577
	c0.36,0,0.559-0.018,0.786-0.088l0.034,1.629c-0.295,0.124-0.837,0.23-1.459,0.23c-0.753,0-1.359-0.264-1.737-0.702
	c-0.441-0.491-0.639-1.279-0.639-2.4v-4.013h-1.13v-1.613h1.13v-1.594L241.703,81.77z"/>
<path fill="#82B841" d="M245.453,80.053h2.016v5.063h0.032c0.245-0.403,0.59-0.735,0.999-0.963c0.41-0.246,0.885-0.387,1.393-0.387
	c1.36,0,2.786,0.964,2.786,3.699v5.027h-2.016v-4.802c0-1.226-0.426-2.173-1.54-2.173c-0.787,0-1.345,0.562-1.572,1.209
	c-0.067,0.194-0.082,0.422-0.082,0.65v5.115h-2.016V80.053z"/>
<path fill="#82B841" d="M255.132,86.71c0-1.155-0.017-1.997-0.065-2.751h1.736l0.082,1.613h0.05
	c0.393-1.191,1.326-1.806,2.194-1.806c0.197,0,0.311,0.019,0.476,0.053v2.015c-0.181-0.034-0.359-0.052-0.606-0.052
	c-0.95,0-1.621,0.647-1.802,1.629c-0.034,0.194-0.049,0.422-0.049,0.648v4.434h-2.016V86.71z"/>
<path fill="#82B841" d="M263.419,81.576c0,0.63-0.442,1.157-1.146,1.157c-0.673,0-1.114-0.527-1.114-1.157
	c0-0.666,0.458-1.174,1.13-1.174C262.977,80.402,263.402,80.91,263.419,81.576 M261.272,83.959h2.017v8.534h-2.017V83.959z"/>
<path fill="#82B841" d="M267.055,83.959l1.294,4.33c0.229,0.752,0.393,1.436,0.541,2.137h0.049c0.147-0.701,0.327-1.367,0.54-2.137
	l1.278-4.33h2.114l-3.048,8.534h-1.982l-2.966-8.534H267.055z"/>
<path fill="#82B841" d="M275.621,88.831c0.049,1.543,1.162,2.207,2.456,2.207c0.935,0,1.59-0.156,2.212-0.386l0.295,1.473
	c-0.688,0.316-1.638,0.544-2.785,0.544c-2.589,0-4.112-1.699-4.112-4.31c0-2.367,1.344-4.593,3.899-4.593
	c2.589,0,3.44,2.277,3.44,4.152c0,0.404-0.032,0.72-0.066,0.912H275.621z M279.126,87.323c0.017-0.787-0.311-2.085-1.655-2.085
	c-1.244,0-1.77,1.21-1.85,2.085H279.126z"/>
</svg>