<?xml version="1.0" encoding="UTF-8"?>
<svg width="100px" height="100px" viewBox="0 0 100 100" version="1.1" xmlns="http://www.w3.org/2000/svg" xmlns:xlink="http://www.w3.org/1999/xlink">
    <!-- Generator: Sketch 39.1 (31720) - http://www.bohemiancoding.com/sketch -->
    <title>Page 1</title>
    <desc>Created with Sketch.</desc>
    <defs></defs>
    <g id="Page-1" stroke="none" stroke-width="1" fill="none" fill-rule="evenodd">
        <g id="PC---Home---Conference" transform="translate(-450.000000, -3537.000000)">
            <g id="Page-1" transform="translate(450.000000, 3537.000000)">
                <polygon id="Fill-1" fill="#E0DED2" points="0 100 100 100 100 0 0 0"></polygon>
                <polygon id="Fill-2" fill="#66AAB7" points="50 50 35 35 35 15 50 30"></polygon>
                <polygon id="Fill-3" fill="#525353" points="50 50 65 35 65 15 50 30"></polygon>
                <polygon id="Fill-4" fill="#66AAB7" points="50 50 65 65 65 85 50 70"></polygon>
                <polygon id="Fill-5" fill="#525353" points="50 50 35 65 35 85 50 70"></polygon>
                <polygon id="Fill-6" fill="#66AAB7" points="50 50 65 35 85 35 70 50"></polygon>
                <polygon id="Fill-7" fill="#525353" points="50 50 65 65 85 65 70 50"></polygon>
                <polygon id="Fill-8" fill="#66AAB7" points="50 50 35 65 15 65 30 50"></polygon>
                <polygon id="Fill-9" fill="#525353" points="50 50 35 35 15 35 30 50"></polygon>
                <polygon id="Fill-10" fill="#DBBC9A" points="0 15 35 15 35 0 0 0"></polygon>
                <polygon id="Fill-11" fill="#DBBC9A" points="65 15 100 15 100 0 65 0"></polygon>
                <polygon id="Fill-12" fill="#DBBC9A" points="0 100 35 100 35 85 0 85"></polygon>
                <polygon id="Fill-13" fill="#DBBC9A" points="65 100 100 100 100 85 65 85"></polygon>
                <polygon id="Fill-14" fill="#DBBC9A" points="85 35 100 35 100 0 85 0"></polygon>
                <polygon id="Fill-15" fill="#DBBC9A" points="85 100 100 100 100 65 85 65"></polygon>
                <polygon id="Fill-16" fill="#DBBC9A" points="0 35 15 35 15 0 0 0"></polygon>
                <polygon id="Fill-17" fill="#DBBC9A" points="0 100 15 100 15 65 0 65"></polygon>
            </g>
        </g>
    </g>
</svg>