<?xml version="1.0" encoding="UTF-8"?>
<svg width="100px" height="100px" viewBox="0 0 100 100" version="1.1" xmlns="http://www.w3.org/2000/svg" xmlns:xlink="http://www.w3.org/1999/xlink">
    <!-- Generator: Sketch 39.1 (31720) - http://www.bohemiancoding.com/sketch -->
    <title>Page 1</title>
    <desc>Created with Sketch.</desc>
    <defs></defs>
    <g id="Page-1" stroke="none" stroke-width="1" fill="none" fill-rule="evenodd">
        <g id="PC---Home---Conference" transform="translate(-166.000000, -2337.000000)">
            <g id="Page-1" transform="translate(166.000000, 2337.000000)">
                <polygon id="Fill-1" fill="#398EB6" points="0 33.333 33.333 33.333 33.333 0 0 0"></polygon>
                <polygon id="Fill-2" fill="#D9AE2B" points="33.3333 0.0001 0.0003 33.3331 33.3333 33.3331"></polygon>
                <polygon id="Fill-3" fill="#398EB6" points="0 100 33.333 100 33.333 66.667 0 66.667"></polygon>
                <polygon id="Fill-4" fill="#D9AE2B" points="0 66.6667 33.333 99.9997 33.333 66.6667"></polygon>
                <polygon id="Fill-5" fill="#398EB6" points="66.667 100 100 100 100 66.667 66.667 66.667"></polygon>
                <polygon id="Fill-6" fill="#D9AE2B" points="66.6666 66.6667 66.6666 99.9997 99.9996 66.6667"></polygon>
                <polygon id="Fill-7" fill="#398EB6" points="66.667 33.333 100 33.333 100 0 66.667 0"></polygon>
                <polygon id="Fill-8" fill="#D9AE2B" points="66.6666 0.0001 66.6666 33.3331 99.9996 33.3331"></polygon>
                <polygon id="Fill-9" fill="#BC563A" points="33.334 66.667 66.667 66.667 66.667 33.334 33.334 33.334"></polygon>
                <polygon id="Fill-10" fill="#D7E1E0" points="33.3333 33.3333 66.6663 33.3333 50.0003 16.6663"></polygon>
                <polygon id="Fill-11" fill="#D7E1E0" points="33.3333 0.0001 50.0003 16.6661 66.6663 0.0001"></polygon>
                <polygon id="Fill-12" fill="#525353" points="33.3333 0.0001 33.3333 33.3331 50.0003 16.6661"></polygon>
                <polygon id="Fill-13" fill="#525353" points="66.6666 0.0001 50.0006 16.6661 66.6666 33.3331"></polygon>
                <polygon id="Fill-14" fill="#D7E1E0" points="33.3333 100 66.6663 100 50.0003 83.333"></polygon>
                <polygon id="Fill-15" fill="#D7E1E0" points="66.6667 66.6667 33.3337 66.6667 49.9997 83.3337"></polygon>
                <polygon id="Fill-16" fill="#525353" points="33.3333 100 50.0003 83.333 33.3333 66.667"></polygon>
                <polygon id="Fill-17" fill="#525353" points="50.0004 83.3329 66.6664 99.9999 66.6664 66.6669"></polygon>
                <polygon id="Fill-18" fill="#D7E1E0" points="66.6667 33.3333 66.6667 66.6663 83.3337 50.0003"></polygon>
                <polygon id="Fill-19" fill="#D7E1E0" points="83.3337 49.9996 99.9997 66.6666 99.9997 33.3336"></polygon>
                <polygon id="Fill-20" fill="#525353" points="66.6666 33.3334 83.3336 49.9994 99.9996 33.3334"></polygon>
                <polygon id="Fill-21" fill="#525353" points="66.6666 66.6667 99.9996 66.6667 83.3336 49.9997"></polygon>
                <polygon id="Fill-22" fill="#D7E1E0" points="0 66.6667 16.667 49.9997 0 33.3337"></polygon>
                <polygon id="Fill-23" fill="#D7E1E0" points="33.3333 66.6667 33.3333 33.3337 16.6663 49.9997"></polygon>
                <polygon id="Fill-24" fill="#525353" points="0 33.3334 16.667 49.9994 33.333 33.3334"></polygon>
                <polygon id="Fill-25" fill="#525353" points="0 66.6667 33.333 66.6667 16.667 49.9997"></polygon>
            </g>
        </g>
    </g>
</svg>