<?xml version="1.0" encoding="UTF-8"?>
<svg width="100px" height="100px" viewBox="0 0 100 100" version="1.1" xmlns="http://www.w3.org/2000/svg" xmlns:xlink="http://www.w3.org/1999/xlink">
    <!-- Generator: Sketch 39.1 (31720) - http://www.bohemiancoding.com/sketch -->
    <title>Page 1</title>
    <desc>Created with Sketch.</desc>
    <defs></defs>
    <g id="Page-1" stroke="none" stroke-width="1" fill="none" fill-rule="evenodd">
        <g id="PC---Home---Conference" transform="translate(-925.000000, -2147.000000)">
            <g id="Page-1" transform="translate(925.000000, 2147.000000)">
                <polygon id="Fill-1" fill="#E0DED2" points="0 100 100 100 100 0 0 0"></polygon>
                <polygon id="Fill-2" fill="#DBBC9A" points="29.9997 100 99.9997 100 99.9997 30"></polygon>
                <g id="Group-42" transform="translate(4.000000, 3.000000)">
                    <g id="Group-5" transform="translate(21.000000, 57.000000)" fill="#BC563A">
                        <path d="M35.2859,0.2861 C15.4179,2.6201 -0.0001,19.5051 -0.0001,40.0001 L14.9999,40.0001 C14.9999,27.4371 24.2669,17.0421 36.3369,15.2691 C35.4689,11.9921 34.9999,8.5511 34.9999,5.0001 C34.9999,3.4041 35.1039,1.8331 35.2859,0.2861" id="Fill-3"></path>
                    </g>
                    <path d="M71.2698,58.3369 C73.0428,46.2669 83.4378,36.9999 95.9998,36.9999 L95.9998,21.9999 C75.5048,21.9999 58.6198,37.4179 56.2858,57.2859 C57.8328,57.1039 59.4038,56.9999 60.9998,56.9999 C64.5508,56.9999 67.9918,57.4679 71.2698,58.3369" id="Fill-6" fill="#BC563A"></path>
                    <path d="M75.9987,76.9985 C72.8607,72.8205 70.9997,67.6275 70.9997,61.9995 C70.9997,60.7555 71.0937,59.5325 71.2697,58.3365 C67.9917,57.4685 64.5507,56.9995 60.9997,56.9995 C59.4037,56.9995 57.8327,57.1035 56.2857,57.2865 C56.1037,58.8325 55.9997,60.4035 55.9997,61.9995 C55.9997,65.5515 56.4687,68.9915 57.3367,72.2695 C58.5327,72.0945 59.7557,71.9995 60.9997,71.9995 C66.6277,71.9995 71.8207,73.8605 75.9987,76.9985" id="Fill-8" fill="#BC563A"></path>
                    <polygon id="Fill-10" fill="#525353" points="10 97 10 39.667 38.667 11 96 11 96 16.733 40.578 16.733 15.733 41.578 15.733 97"></polygon>
                    <path d="M8.9783,23.9968 C5.6913,24.8728 2.5793,26.5818 0.0003,29.1608 C2.5793,31.7398 5.6903,33.4478 8.9783,34.3238 C8.0773,30.9428 8.0773,27.3788 8.9783,23.9968" id="Fill-12" fill="#525353"></path>
                    <path d="M33.4479,9.8549 C32.5719,6.5669 30.8629,3.4559 28.2839,0.8759 C25.7049,3.4549 23.9969,6.5669 23.1209,9.8549 C26.5019,8.9539 30.0659,8.9539 33.4479,9.8549" id="Fill-14" fill="#525353"></path>
                    <path d="M19.306,34.3245 C22.593,33.4485 25.705,31.7395 28.284,29.1605 C25.705,26.5815 22.594,24.8735 19.306,23.9975 C20.207,27.3785 20.207,30.9425 19.306,34.3245" id="Fill-16" fill="#525353"></path>
                    <path d="M19.306,34.3245 C20.207,30.9425 20.207,27.3785 19.306,23.9975 C15.924,23.0965 12.36,23.0965 8.978,23.9965 C8.078,27.3785 8.078,30.9425 8.979,34.3245 C12.36,35.2255 15.924,35.2255 19.306,34.3245" id="Fill-18" fill="#525353"></path>
                    <path d="M23.1206,20.1822 C23.9966,23.4702 25.7046,26.5812 28.2846,29.1602 C30.8636,26.5822 32.5716,23.4702 33.4476,20.1822 C30.0666,21.0832 26.5026,21.0832 23.1206,20.1822" id="Fill-20" fill="#525353"></path>
                    <path d="M23.1206,20.1822 C26.5026,21.0832 30.0666,21.0832 33.4476,20.1822 C34.3486,16.8002 34.3486,13.2362 33.4476,9.8552 C30.0666,8.9542 26.5026,8.9542 23.1206,9.8552 C22.2196,13.2362 22.2196,16.8002 23.1206,20.1822" id="Fill-22" fill="#525353"></path>
                    <path d="M18.1707,11.9718 C15.2267,10.2668 11.8177,9.2738 8.1707,9.2738 C8.1707,12.9218 9.1627,16.3298 10.8677,19.2738 C12.6227,16.2458 15.1427,13.7258 18.1707,11.9718" id="Fill-24" fill="#525353"></path>
                    <path d="M18.1707,26.5767 C21.1147,28.2817 24.5237,29.2747 28.1707,29.2747 C28.1707,25.6267 27.1787,22.2187 25.4737,19.2747 C23.7187,22.3027 21.1987,24.8227 18.1707,26.5767" id="Fill-26" fill="#525353"></path>
                    <path d="M18.1707,26.5767 C21.1987,24.8227 23.7187,22.3027 25.4737,19.2747 C23.7187,16.2457 21.1987,13.7257 18.1707,11.9717 C15.1427,13.7257 12.6227,16.2457 10.8677,19.2747 C12.6227,22.3027 15.1427,24.8227 18.1707,26.5767" id="Fill-28" fill="#525353"></path>
                    <path d="M81.6184,87 C80.5954,88.766 80.0004,90.812 80.0004,93 C82.1884,93 84.2334,92.405 86.0004,91.382 C84.1834,90.329 82.6714,88.817 81.6184,87" id="Fill-30" fill="#525353"></path>
                    <path d="M90.3817,87 C91.4047,85.234 91.9997,83.188 91.9997,81 C89.8117,81 87.7667,81.595 85.9997,82.618 C87.8167,83.671 89.3287,85.183 90.3817,87" id="Fill-32" fill="#525353"></path>
                    <path d="M81.6184,87 C82.6714,88.817 84.1834,90.329 86.0004,91.382 C87.8174,90.329 89.3294,88.817 90.3814,87 C89.3294,85.183 87.8174,83.671 86.0004,82.618 C84.1834,83.671 82.6714,85.183 81.6184,87" id="Fill-34" fill="#404F62"></path>
                    <path d="M86,82.6184 C84.234,81.5954 82.188,81.0004 80,81.0004 C80,83.1884 80.595,85.2334 81.619,87.0004 C82.671,85.1834 84.183,83.6714 86,82.6184" id="Fill-36" fill="#525353"></path>
                    <path d="M86,91.3816 C87.766,92.4046 89.812,92.9996 92,92.9996 C92,90.8116 91.405,88.7666 90.382,86.9996 C89.329,88.8166 87.817,90.3286 86,91.3816" id="Fill-38" fill="#525353"></path>
                    <path d="M86,82.6184 C84.183,83.6714 82.671,85.1834 81.619,87.0004 C82.671,88.8174 84.183,90.3294 86,91.3814 C87.817,90.3294 89.329,88.8174 90.382,87.0004 C89.329,85.1834 87.817,83.6714 86,82.6184" id="Fill-40" fill="#525353"></path>
                </g>
            </g>
        </g>
    </g>
</svg>