<?xml version="1.0" encoding="UTF-8"?>
<svg width="65px" height="65px" viewBox="0 0 65 65" version="1.1" xmlns="http://www.w3.org/2000/svg" xmlns:xlink="http://www.w3.org/1999/xlink">
    <!-- Generator: Sketch 39.1 (31720) - http://www.bohemiancoding.com/sketch -->
    <title>Page 1</title>
    <desc>Created with Sketch.</desc>
    <defs></defs>
    <g id="Page-1" stroke="none" stroke-width="1" fill="none" fill-rule="evenodd">
        <g id="PC---Home---Preconference" transform="translate(-1266.000000, -1663.000000)">
            <g id="Page-1" transform="translate(1266.000000, 1663.000000)">
                <path d="M32.5,32.5 C50.4491,32.5 65,47.0509 65,65 L65,0 L0,0 C17.9491,0 32.5,14.5509 32.5,32.5" id="Fill-1" fill="#BC563A"></path>
                <path d="M32.5,32.5 C32.5,14.5509 17.9491,0 0,0 L0,6.5 C14.35915,6.5 26,18.14085 26,32.5 C26,32.71905 25.98895,32.93615 25.98375,33.15455 C25.9233,35.581 25.5372,37.9262 24.856,40.144 C27.0738,39.4628 29.419,39.0767 31.84545,39.01625 C32.06385,39.01105 32.2803,39 32.5,39 C46.85915,39 58.5,50.64085 58.5,65 L65,65 C65,47.0509 50.4491,32.5 32.5,32.5" id="Fill-3" fill="#E0DED2"></path>
                <path d="M32.5,39 C32.2803,39 32.06385,39.01105 31.84545,39.01625 C29.419,39.0767 27.0738,39.4628 24.856,40.144 C25.5372,37.9262 25.9233,35.581 25.98375,33.15455 C25.98895,32.93615 26,32.71905 26,32.5 C26,18.14085 14.35915,6.5 0,6.5 L0,58.5 L0,65 L6.5,65 L58.5,65 C58.5,50.64085 46.85915,39 32.5,39" id="Fill-5" fill="#66AAB7"></path>
                <path d="M30.55,46.8 C28.17945,46.8 25.9636,47.4448 24.05,48.55305 C26.0182,49.6938 27.6562,51.3318 28.7963,53.3 C29.9052,55.2136 30.55,57.42945 30.55,59.8 C35.3587,59.8 39.54795,57.1818 41.7963,53.3 C39.54795,49.4182 35.3587,46.8 30.55,46.8" id="Fill-7" fill="#E0DED2"></path>
                <path d="M11.05,22.553245 C7.1682,24.802245 4.55,28.990845 4.55,33.800195 C6.92055,33.800195 9.1364,34.444995 11.05,35.553245 C13.0182,36.693345 14.6562,38.331345 15.7963,40.300195 C16.9052,38.385945 17.55,36.170745 17.55,33.800195 C17.55,28.990845 14.9318,24.802245 11.05,22.553245" id="Fill-9" fill="#E0DED2"></path>
                <path d="M28.796625,53.3 C27.656525,51.3318 26.018525,49.6938 24.050325,48.55305 C22.136075,47.4448 19.920875,46.8 17.550325,46.8 C17.550325,49.17055 18.195125,51.3864 19.303375,53.3 C20.443475,55.2682 22.081475,56.9062 24.050325,58.04695 C25.963925,59.1552 28.179125,59.8 30.550325,59.8 C30.550325,57.42945 29.904875,55.2136 28.796625,53.3" id="Fill-11" fill="#398EB6"></path>
                <path d="M6.303375,53.3 C5.195125,55.2136 4.549675,57.42945 4.549675,59.8 C6.920875,59.8 9.136075,59.1552 11.049675,58.04695 C13.018525,56.9062 14.656525,55.2682 15.796625,53.3 C16.904875,51.3864 17.549675,49.17055 17.549675,46.8 C15.179125,46.8 12.963925,47.4448 11.049675,48.55305 C9.081475,49.6938 7.443475,51.3318 6.303375,53.3" id="Fill-13" fill="#398EB6"></path>
                <path d="M11.05,35.553245 C9.1364,34.444995 6.92055,33.800195 4.55,33.800195 C4.55,36.170745 5.1948,38.385945 6.3037,40.300195 C7.4438,42.268395 9.0818,43.906395 11.05,45.046495 C12.9636,46.155395 15.17945,46.800195 17.55,46.800195 C17.55,44.428995 16.9052,42.213795 15.7963,40.300195 C14.6562,38.331345 13.0182,36.693345 11.05,35.553245" id="Fill-15" fill="#398EB6"></path>
                <path d="M52.647985,14.83131 C53.217385,12.69476 54.328235,10.67196 56.004585,8.99561 C54.328235,10.67196 52.305435,11.78281 50.168235,12.35221 C47.970585,12.93721 45.653985,12.93721 43.455685,12.35221 C44.025085,14.48941 45.135935,16.51156 46.812285,18.18791 C48.488635,19.86426 50.510785,20.97511 52.647985,21.54451 C52.062335,19.34621 52.062335,17.02961 52.647985,14.83131" id="Fill-17" fill="#66AAB7"></path>
                <path d="M59.360795,14.831635 C58.791395,12.694435 57.680545,10.672285 56.004195,8.995285 C54.327845,10.672285 53.217645,12.694435 52.648245,14.831635 C52.062595,17.029285 52.062595,19.345885 52.648245,21.544185 C53.217645,23.681385 54.327845,25.704185 56.004195,27.380535 C57.680545,25.704185 58.791395,23.681385 59.360795,21.544835 C59.946445,19.346535 59.946445,17.029935 59.360795,14.831635" id="Fill-19" fill="#E0DED2"></path>
                <path d="M43.455555,5.63927 C41.319005,6.20867 39.296205,7.31887 37.619855,8.99587 C39.296205,10.67222 41.318355,11.78242 43.455555,12.35182 C45.653855,12.93747 47.970455,12.93747 50.168755,12.35182 C52.305305,11.78242 54.328105,10.67222 56.004455,8.99587 C54.328105,7.31887 52.305305,6.20867 50.168105,5.63927 C47.970455,5.05362 45.653855,5.05362 43.455555,5.63927" id="Fill-21" fill="#E0DED2"></path>
            </g>
        </g>
    </g>
</svg>