<?xml version="1.0" encoding="UTF-8"?>
<svg width="100px" height="100px" viewBox="0 0 100 100" version="1.1" xmlns="http://www.w3.org/2000/svg" xmlns:xlink="http://www.w3.org/1999/xlink">
    <!-- Generator: Sketch 39.1 (31720) - http://www.bohemiancoding.com/sketch -->
    <title>Page 1</title>
    <desc>Created with Sketch.</desc>
    <defs></defs>
    <g id="Page-1" stroke="none" stroke-width="1" fill="none" fill-rule="evenodd">
        <g id="PC---Home---Conference" transform="translate(-1145.000000, -1090.000000)">
            <g id="Page-1" transform="translate(1145.000000, 1090.000000)">
                <polygon id="Fill-1" fill="#D7E1E0" points="0 100 100 100 100 0 0 0"></polygon>
                <g id="Group-34" transform="translate(1.000000, 1.000000)" fill="#D9AE2B">
                    <path d="M25.0215,75.0215 C25.5445,87.4435 35.5565,97.4555 47.9785,97.9785 C47.4555,85.5565 37.4435,75.5445 25.0215,75.0215" id="Fill-2"></path>
                    <path d="M50.0215,97.9785 C62.4435,97.4555 72.4555,87.4435 72.9785,75.0215 C60.5565,75.5445 50.5445,85.5565 50.0215,97.9785" id="Fill-4"></path>
                    <path d="M25.0215,22.9785 C37.4435,22.4555 47.4555,12.4435 47.9785,0.0215 C35.5565,0.5445 25.5445,10.5565 25.0215,22.9785" id="Fill-6"></path>
                    <path d="M50.0215,0.0215 C50.5445,12.4435 60.5565,22.4555 72.9785,22.9785 C72.4555,10.5565 62.4435,0.5445 50.0215,0.0215" id="Fill-8"></path>
                    <path d="M75.0215,75.0215 C75.5445,87.4435 85.5565,97.4555 97.9785,97.9785 C97.4555,85.5565 87.4435,75.5445 75.0215,75.0215" id="Fill-10"></path>
                    <path d="M97.9785,0.0215 C85.5565,0.5445 75.5445,10.5565 75.0215,22.9785 C87.4435,22.4555 97.4555,12.4435 97.9785,0.0215" id="Fill-12"></path>
                    <path d="M0.0215,97.9785 C12.4435,97.4555 22.4555,87.4435 22.9785,75.0215 C10.5565,75.5445 0.5445,85.5565 0.0215,97.9785" id="Fill-14"></path>
                    <path d="M0.0215,0.0215 C0.5445,12.4435 10.5565,22.4555 22.9785,22.9785 C22.4555,10.5565 12.4435,0.5445 0.0215,0.0215" id="Fill-16"></path>
                    <path d="M25.0215,72.9785 C37.4435,72.4555 47.4555,62.4435 47.9785,50.0215 C35.5565,50.5445 25.5445,60.5565 25.0215,72.9785" id="Fill-18"></path>
                    <path d="M25.0215,25.0215 C25.5445,37.4435 35.5565,47.4555 47.9785,47.9785 C47.4555,35.5565 37.4435,25.5445 25.0215,25.0215" id="Fill-20"></path>
                    <path d="M0.0215,50.0215 C0.5445,62.4435 10.5565,72.4555 22.9785,72.9785 C22.4555,60.5565 12.4435,50.5445 0.0215,50.0215" id="Fill-22"></path>
                    <path d="M0.0215,47.9785 C12.4435,47.4555 22.4555,37.4435 22.9785,25.0215 C10.5565,25.5445 0.5445,35.5565 0.0215,47.9785" id="Fill-24"></path>
                    <path d="M50.0215,50.0215 C50.5445,62.4435 60.5565,72.4555 72.9785,72.9785 C72.4555,60.5565 62.4435,50.5445 50.0215,50.0215" id="Fill-26"></path>
                    <path d="M50.0215,47.9785 C62.4435,47.4555 72.4555,37.4435 72.9785,25.0215 C60.5565,25.5445 50.5445,35.5565 50.0215,47.9785" id="Fill-28"></path>
                    <path d="M75.0215,72.9785 C87.4435,72.4555 97.4555,62.4435 97.9785,50.0215 C85.5565,50.5445 75.5445,60.5565 75.0215,72.9785" id="Fill-30"></path>
                    <path d="M75.0215,25.0215 C75.5445,37.4435 85.5565,47.4555 97.9785,47.9785 C97.4555,35.5565 87.4435,25.5445 75.0215,25.0215" id="Fill-32"></path>
                </g>
            </g>
        </g>
    </g>
</svg>