<?xml version="1.0" encoding="UTF-8"?>
<svg width="100px" height="100px" viewBox="0 0 100 100" version="1.1" xmlns="http://www.w3.org/2000/svg" xmlns:xlink="http://www.w3.org/1999/xlink">
    <!-- Generator: Sketch 39.1 (31720) - http://www.bohemiancoding.com/sketch -->
    <title>Page 1</title>
    <desc>Created with Sketch.</desc>
    <defs></defs>
    <g id="Page-1" stroke="none" stroke-width="1" fill="none" fill-rule="evenodd">
        <g id="PC---Mobile" transform="translate(-189.000000, -1562.000000)">
            <g id="Page-1" transform="translate(189.000000, 1562.000000)">
                <polygon id="Fill-1" fill="#398EB6" points="0 100 100 100 100 0 0 0"></polygon>
                <path d="M70,85 C63.241,85 57.517,80.505 55.648,74.349 C64.904,72.202 72.202,64.904 74.349,55.648 C80.505,57.517 85,63.241 85,70 C85,78.271 78.271,85 70,85 M30,85 C21.729,85 15,78.271 15,70 C15,63.241 19.495,57.517 25.651,55.648 C27.798,64.904 35.096,72.202 44.352,74.349 C42.483,80.505 36.759,85 30,85 M15,30 C15,21.729 21.729,15 30,15 C36.759,15 42.483,19.495 44.352,25.651 C35.096,27.798 27.798,35.096 25.651,44.352 C19.495,42.483 15,36.759 15,30 M70,15 C78.271,15 85,21.729 85,30 C85,36.759 80.505,42.483 74.349,44.352 C72.202,35.096 64.904,27.798 55.648,25.651 C57.517,19.495 63.241,15 70,15 M54.349,64.352 C52.971,64.771 51.512,65 50,65 C48.488,65 47.029,64.771 45.651,64.352 C44.904,64.125 44.189,63.831 43.496,63.496 C40.448,62.021 37.979,59.552 36.504,56.504 C36.169,55.812 35.875,55.096 35.648,54.349 C35.23,52.971 35,51.512 35,50 C35,48.488 35.23,47.029 35.648,45.651 C35.875,44.904 36.169,44.188 36.504,43.496 C37.979,40.448 40.448,37.979 43.496,36.504 C44.189,36.169 44.904,35.875 45.651,35.648 C47.029,35.229 48.488,35 50,35 C51.512,35 52.971,35.229 54.349,35.648 C55.096,35.875 55.811,36.169 56.504,36.504 C59.552,37.979 62.021,40.448 63.496,43.496 C63.831,44.188 64.125,44.904 64.352,45.651 C64.77,47.029 65,48.488 65,50 C65,51.512 64.77,52.971 64.352,54.349 C64.125,55.096 63.831,55.812 63.496,56.504 C62.021,59.552 59.552,62.021 56.504,63.496 C55.811,63.831 55.096,64.125 54.349,64.352 M84.983,50 C91.061,45.435 95,38.169 95,30 C95,16.215 83.785,5 70,5 C61.831,5 54.565,8.939 50,15.017 C45.435,8.939 38.169,5 30,5 C16.215,5 5,16.215 5,30 C5,38.169 8.939,45.435 15.017,50 C8.939,54.565 5,61.831 5,70 C5,83.785 16.215,95 30,95 C38.169,95 45.435,91.061 50,84.983 C54.565,91.061 61.831,95 70,95 C83.785,95 95,83.785 95,70 C95,61.831 91.061,54.565 84.983,50" id="Fill-2" fill="#D7E1E0"></path>
            </g>
        </g>
    </g>
</svg>