<?xml version="1.0" encoding="utf-8"?>
<!-- Generator: Adobe Illustrator 19.1.0, SVG Export Plug-In . SVG Version: 6.00 Build 0)  -->
<!DOCTYPE svg PUBLIC "-//W3C//DTD SVG 1.1//EN" "http://www.w3.org/Graphics/SVG/1.1/DTD/svg11.dtd">
<svg version="1.1" id="Layer_1" xmlns="http://www.w3.org/2000/svg" xmlns:xlink="http://www.w3.org/1999/xlink" x="0px" y="0px"
	 viewBox="-269 218.5 61.2 27.2" style="enable-background:new -269 218.5 61.2 27.2;" xml:space="preserve">
<style type="text/css">
	.st0{fill:#000000;}
</style>
<polygon class="st0" points="-251.4,218.5 -269,218.5 -269,223.5 -262.9,223.5 -262.9,245.1 -257.4,245.1 -257.4,223.5
	-251.4,223.5 "/>
<rect x="-248.7" y="218.5" class="st0" width="5" height="4.8"/>
<rect x="-248.7" y="225.9" class="st0" width="5" height="19.3"/>
<path class="st0" d="M-218,225.2c-5.6,0-10.3,4.6-10.3,10.3s4.7,10.2,10.3,10.2c5.6,0,10.3-4.5,10.3-10.2
	C-207.8,229.8-212.3,225.2-218,225.2z M-223.6,235.5c0-3.2,2.6-5.8,5.8-5.8c3.2,0,5.8,2.6,5.8,5.8c0,0.3,0,0.5,0,0.7
	c-0.6-3.7-4-4.2-5-4.2c-1.2,0-1.5,0.1-2.1,0.6v4c0,0,0.6-0.5,1.3-0.5s2.3,0.5,2.3,2.3c0,1.8-1.2,2.6-2.6,2.6
	C-220.9,241.3-223.6,238.5-223.6,235.5z"/>
<path class="st0" d="M-230.3,229.8v-4.3h-3.7v-7h-4.8v7h-2.3v4.3h2.3v9.2c0,0,0,1.7,0,1.8c0,0.1,0,4.4,8.1,4.3v-4.3
	c0,0-3.4,0.3-3.4-1.8v-9.2L-230.3,229.8L-230.3,229.8z"/>
</svg>
