<svg xmlns="http://www.w3.org/2000/svg" width="653" height="142.7" viewBox="0 0 653 142.7"><title>Artboard 1</title><g id="39184883-4845-49f6-b51d-ae4056dedf1e" data-name="Layer 2"><path d="M137.4,43.4,125.2,73.5a10.5,10.5,0,0,0-.9,3.7c0,1.8,1.1,3,3.3,3.4v1.3H107V80.5q3-.7,3-3.4a11.2,11.2,0,0,0-.9-3.7L94.4,35.7a24.7,24.7,0,0,0-2.8-5.8,6.3,6.3,0,0,0-3.5-2.1V26.4h21.1v1.4q-3.1,1-3.1,3.1a11.7,11.7,0,0,0,1,3.6l10.4,26.2,10.4-26a10.4,10.4,0,0,0,.9-3.6q0-2.5-3.3-3.3V26.4h24.7v1.4q-3.2,1-3.2,3.5a9.7,9.7,0,0,0,.8,3.2l10.1,26.2L168,34.3a9,9,0,0,0,.7-3,3,3,0,0,0-.7-2.1,5.7,5.7,0,0,0-2.5-1.3V26.4H187v1.4a7.9,7.9,0,0,0-3.5,2.2,24.2,24.2,0,0,0-2.8,5.6L165.8,73.5a10,10,0,0,0-.8,3.6c0,1.9,1.1,3.1,3.4,3.5v1.3H146.9V80.5q3.2-.9,3.2-3.6a13.4,13.4,0,0,0-1.1-3.4Zm0,0" fill="#be1e2d"/><path d="M207.4,31.5V76.8a3.5,3.5,0,0,0,.7,2.3,5.2,5.2,0,0,0,2.5,1.4v1.4H190.9V80.5a4.7,4.7,0,0,0,2.5-1.3,3.5,3.5,0,0,0,.7-2.4V31.5a3.4,3.4,0,0,0-.7-2.3,5.4,5.4,0,0,0-2.5-1.3V26.4h19.6v1.4a4.9,4.9,0,0,0-2.5,1.3,3.6,3.6,0,0,0-.7,2.4Zm0,0" fill="#be1e2d"/><path d="M236.7,71.8h31a3.5,3.5,0,0,0,2.4-.7,5.3,5.3,0,0,0,1.3-2.5h1.3V85h-1.3a4.9,4.9,0,0,0-1.3-2.5,3.6,3.6,0,0,0-2.4-.7H220.3V80.5a4.7,4.7,0,0,0,2.5-1.3,3.6,3.6,0,0,0,.7-2.4V31.5a3.4,3.4,0,0,0-.7-2.3,5.3,5.3,0,0,0-2.5-1.3V26.4h19.6v1.4a4.9,4.9,0,0,0-2.5,1.3,3.5,3.5,0,0,0-.7,2.3Zm0,0" fill="#be1e2d"/><path d="M281.6,76.8V31.5a3.4,3.4,0,0,0-.7-2.3,5.3,5.3,0,0,0-2.5-1.3V26.4H311q10.1,0,16,2.5a22.1,22.1,0,0,1,11.8,11.8,33,33,0,0,1,2.5,13.4q0,14.2-8.5,21.5a23.2,23.2,0,0,1-9,4.7A48.2,48.2,0,0,1,311,81.9H278.5V80.5a4.6,4.6,0,0,0,2.4-1.3,3.5,3.5,0,0,0,.7-2.4Zm13.3-5h14.1q9.8,0,14.2-4.5t4.6-13.2q0-8.6-4.6-13.2a13.4,13.4,0,0,0-5.6-3.4,28.6,28.6,0,0,0-8.5-1.1H294.9Zm0,0" fill="#be1e2d"/><path d="M407.1,62l8.4,12.2-1.1.8a3.7,3.7,0,0,0-1.9-.8c-.6,0-1.9.6-3.9,1.8a55.5,55.5,0,0,1-12,5.5,42.3,42.3,0,0,1-12,1.5q-13.6,0-22.1-6.5a27.1,27.1,0,0,1-7.7-9.3,28.5,28.5,0,0,1-3.1-13.1,27.8,27.8,0,0,1,5.6-17.2q8.9-11.7,27.2-11.7a43.1,43.1,0,0,1,12,1.5,54,54,0,0,1,12,5.5q3.1,1.8,3.9,1.8a3.6,3.6,0,0,0,1.9-.8l1.1.9-8.4,12.1-1.1-.8a3.8,3.8,0,0,1,.1-.7c0-.3,0-.5,0-.6s-2.2-3.4-6.7-5.5a30.3,30.3,0,0,0-12.8-2.9q-9,0-14.8,4.7a16.7,16.7,0,0,0-6.7,13.7,16.8,16.8,0,0,0,6.7,13.7q5.9,4.7,14.8,4.7a30.9,30.9,0,0,0,14-3.5q5.4-2.8,5.4-4.9c0-.1,0-.5-.2-1.4Zm0,0" fill="#040707"/><path d="M465.5,68H440l-2.9,6a8.7,8.7,0,0,0-1,3.4c0,1.6,1.1,2.6,3.2,3v1.4H418.9V80.5a5.3,5.3,0,0,0,2.8-1.1,12.2,12.2,0,0,0,2.1-3.3l20.2-41a9.5,9.5,0,0,0,1.1-4.1c0-1.3-.9-2.4-2.8-3.2V26.4H464v1.4c-1.8.7-2.7,1.9-2.7,3.4a9,9,0,0,0,1.2,4l21,39.7a19.2,19.2,0,0,0,2.7,4.2,5.8,5.8,0,0,0,3,1.3v1.4H466.6V80.5q3.2-.5,3.2-3a8.3,8.3,0,0,0-1.2-3.8Zm-4-7.8-9.1-17.8-8.6,17.8Zm0,0" fill="#040707"/><path d="M510.3,59.1V76.8a3.5,3.5,0,0,0,.7,2.3,5.2,5.2,0,0,0,2.5,1.4v1.4H493.9V80.5a4.6,4.6,0,0,0,2.4-1.3,3.5,3.5,0,0,0,.7-2.4V31.5a3.4,3.4,0,0,0-.7-2.3,5.4,5.4,0,0,0-2.5-1.3V26.4h36.3a61.5,61.5,0,0,1,10.8.7,18.6,18.6,0,0,1,6.6,2.6q6,3.9,6,12.8,0,6.7-3.7,10.5T538,58.5l10.5,14.6a32.4,32.4,0,0,0,4.6,5.5,8.2,8.2,0,0,0,3.9,1.9v1.4H533.6V80.5c1.7-.5,2.6-1.2,2.6-2.2a7,7,0,0,0-1.6-3.3L523.6,59.1Zm0-10h20a17.2,17.2,0,0,0,6.7-1c2.1-.9,3.1-2.6,3.1-5.3s-.7-4-2.2-4.9-4-1.4-7.6-1.4h-20Zm0,0" fill="#040707"/><path d="M566.8,76.8V31.5a3.4,3.4,0,0,0-.7-2.3,5.3,5.3,0,0,0-2.5-1.3V26.4h32.5q10.1,0,16,2.5A22.1,22.1,0,0,1,624,40.7a33,33,0,0,1,2.5,13.4q0,14.2-8.5,21.5a23.2,23.2,0,0,1-9,4.7,48.2,48.2,0,0,1-12.9,1.5H563.6V80.5a4.6,4.6,0,0,0,2.4-1.3,3.5,3.5,0,0,0,.7-2.4Zm13.3-5h14.1q9.8,0,14.2-4.5T613,54.2q0-8.6-4.6-13.2a13.4,13.4,0,0,0-5.6-3.4,28.6,28.6,0,0,0-8.5-1.1H580.1Zm0,0" fill="#040707"/><path d="M63.4,53.8a9,9,0,1,1-9-9,9,9,0,0,1,9,9Zm0,0" fill="#be1e2d"/><path d="M44.6,25.7A29.8,29.8,0,0,0,26.5,43.8a10.4,10.4,0,0,1,7.1,8.1h5a16,16,0,0,1,13.8-14V32.8a10.4,10.4,0,0,1-7.9-7.1Zm0,0" fill="#040707"/><path d="M70.4,51.9h5a10.4,10.4,0,0,1,7.1-8.1A29.8,29.8,0,0,0,64.4,25.7a10.4,10.4,0,0,1-8.2,7.2v5A16,16,0,0,1,70.4,51.9Zm0,0" fill="#040707"/><path d="M38.6,55.5h-5a10.4,10.4,0,0,1-7.1,8.1A29.8,29.8,0,0,0,44.6,81.8a10.4,10.4,0,0,1,7.9-7.1V69.6A16,16,0,0,1,38.6,55.5Zm0,0" fill="#040707"/><path d="M75.4,55.5h-5A16,16,0,0,1,56.3,69.6v5a10.4,10.4,0,0,1,8.2,7.2A29.8,29.8,0,0,0,82.5,63.7a10.4,10.4,0,0,1-7.1-8.1Zm0,0" fill="#040707"/><path d="M39.8,103.1a6.2,6.2,0,0,0-2-1.2,6.6,6.6,0,0,0-2.3-.4,6.1,6.1,0,0,0-2.5.5,6.4,6.4,0,0,0-2,1.4,6.7,6.7,0,0,0-1.3,2.1,6.7,6.7,0,0,0,1.3,7.1,6.4,6.4,0,0,0,2,1.4,6,6,0,0,0,2.5.5,6.3,6.3,0,0,0,2.3-.4,6.4,6.4,0,0,0,2-1.2v2.4a7.9,7.9,0,0,1-2.1.8l-2.2.3a8.4,8.4,0,0,1-7.7-5.1,8.1,8.1,0,0,1-.7-3.3,8.3,8.3,0,0,1,.7-3.3,8.5,8.5,0,0,1,1.8-2.7,8.6,8.6,0,0,1,6.1-2.5l2.1.3a7.3,7.3,0,0,1,2,.8Z" fill="#040707"/><path d="M42.1,100h2.3l4,6.9,4-6.9h2.3l-5.3,9.1v7h-2v-7Z" fill="#040707"/><path d="M57.4,100h2l2.2.2a5.4,5.4,0,0,1,1.9.7,3.7,3.7,0,0,1,1.3,1.3,4.4,4.4,0,0,1,.5,2.2,3.7,3.7,0,0,1-.1.9,3.9,3.9,0,0,1-.3.9l-.5.7-.7.5h0a3.6,3.6,0,0,1,1.3.5,4,4,0,0,1,1,1,4.5,4.5,0,0,1,.7,1.2,4.2,4.2,0,0,1,.2,1.4,4.3,4.3,0,0,1-.5,2.1,4,4,0,0,1-1.3,1.4,5.4,5.4,0,0,1-1.8.8l-2.1.2H57.4Zm2,7.1h1.9l1.1-.4a2.1,2.1,0,0,0,.7-.8,3,3,0,0,0,.3-1.4,3,3,0,0,0-.3-1.4,2,2,0,0,0-.7-.8l-1.1-.4H59.4Zm0,7.2h2.9l1.2-.4a2.5,2.5,0,0,0,.9-.9,2.7,2.7,0,0,0,.3-1.4,2.3,2.3,0,0,0-.4-1.4,2.6,2.6,0,0,0-1-.8l-1.3-.4H59.4Z" fill="#040707"/><path d="M70.7,100h8.7v1.8H72.7v4.5h6.5v1.8H72.7v6.1h6.7v1.8H70.7Z" fill="#040707"/><path d="M93.4,116.1H91l-4.8-6.8h-.8v6.8h-2V100H88a4.9,4.9,0,0,1,2.1.7,4,4,0,0,1,1.6,1.6,4.7,4.7,0,0,1,.5,2.2,4.9,4.9,0,0,1-.3,1.6,4.4,4.4,0,0,1-.8,1.4,4.3,4.3,0,0,1-1.2,1,4.3,4.3,0,0,1-1.6.5Zm-8-8.5h2.2l1.4-.4a2.6,2.6,0,0,0,1-.9,2.8,2.8,0,0,0,.4-1.5,2.6,2.6,0,0,0-.4-1.5,2.6,2.6,0,0,0-1-.9l-1.4-.4H85.4Z" fill="#040707"/><path d="M103.8,103.1a3.3,3.3,0,0,0-1.1-1.1,2.8,2.8,0,0,0-1.5-.4l-1,.2-.9.5-.6.7a1.8,1.8,0,0,0-.2,1,1.6,1.6,0,0,0,.2.8l.5.6.7.5.8.4,1.2.5,1.6.8a5.2,5.2,0,0,1,1.3,1,4.3,4.3,0,0,1,.8,1.3,4.8,4.8,0,0,1,.3,1.8,5.1,5.1,0,0,1-.4,2,4.7,4.7,0,0,1-1.1,1.6,5,5,0,0,1-1.6,1,5.4,5.4,0,0,1-2,.4,4.8,4.8,0,0,1-1.8-.3,5.1,5.1,0,0,1-1.5-.9,5,5,0,0,1-1.1-1.4,5.5,5.5,0,0,1-.6-1.8l2-.4a3.2,3.2,0,0,0,.2,1.2,2.8,2.8,0,0,0,.7,1l1,.6,1.2.2,1.2-.3.9-.7a3.2,3.2,0,0,0,.6-1,3.3,3.3,0,0,0,.2-1.2,2.5,2.5,0,0,0-.2-1.1,2.7,2.7,0,0,0-.6-.8l-.9-.6-1-.5-1.1-.5-1.3-.7-1.1-.8a3.8,3.8,0,0,1-.8-1.1,3.5,3.5,0,0,1-.3-1.5,3.8,3.8,0,0,1,.4-1.8,4,4,0,0,1,1.1-1.3,4.9,4.9,0,0,1,1.5-.8l1.8-.3a4.7,4.7,0,0,1,2.4.6,4.8,4.8,0,0,1,1.7,1.8Z" fill="#040707"/><path d="M109.7,100h8.7v1.8h-6.7v4.5h6.5v1.8h-6.5v6.1h6.7v1.8h-8.7Z" fill="#040707"/><path d="M134.2,103.1a6.2,6.2,0,0,0-2-1.2,6.6,6.6,0,0,0-2.3-.4,6.1,6.1,0,0,0-2.5.5,6.4,6.4,0,0,0-2,1.4,6.7,6.7,0,0,0-1.3,2.1,6.7,6.7,0,0,0,1.3,7.1,6.4,6.4,0,0,0,2,1.4,6,6,0,0,0,2.5.5,6.3,6.3,0,0,0,2.3-.4,6.4,6.4,0,0,0,2-1.2v2.4a7.9,7.9,0,0,1-2.1.8l-2.2.3a8.4,8.4,0,0,1-7.7-5.1,8.1,8.1,0,0,1-.7-3.3,8.3,8.3,0,0,1,.7-3.3,8.5,8.5,0,0,1,1.8-2.7,8.6,8.6,0,0,1,6.1-2.5l2.1.3a7.3,7.3,0,0,1,2,.8Z" fill="#040707"/><path d="M139.9,100v9.5a10.4,10.4,0,0,0,.2,1.9,4.7,4.7,0,0,0,.6,1.6,3.2,3.2,0,0,0,1.2,1.1,4.6,4.6,0,0,0,3.8,0,3.2,3.2,0,0,0,1.2-1.1,4.7,4.7,0,0,0,.6-1.6,10.4,10.4,0,0,0,.2-1.9V100h2v10.2a7.3,7.3,0,0,1-.4,2.5,5.9,5.9,0,0,1-1.2,2,5.4,5.4,0,0,1-1.9,1.3,6.6,6.6,0,0,1-5,0,5.4,5.4,0,0,1-1.9-1.3,5.9,5.9,0,0,1-1.2-2,7.3,7.3,0,0,1-.4-2.5V100Z" fill="#040707"/><path d="M164.2,116.1h-2.4l-4.8-6.8h-.8v6.8h-2V100h4.6a4.9,4.9,0,0,1,2.1.7,4,4,0,0,1,1.6,1.6,4.7,4.7,0,0,1,.5,2.2,4.9,4.9,0,0,1-.3,1.6,4.4,4.4,0,0,1-.8,1.4,4.3,4.3,0,0,1-1.2,1,4.3,4.3,0,0,1-1.6.5Zm-8-8.5h2.2l1.4-.4a2.6,2.6,0,0,0,1-.9,2.8,2.8,0,0,0,.4-1.5,2.6,2.6,0,0,0-.4-1.5,2.6,2.6,0,0,0-1-.9l-1.4-.4h-2.1Z" fill="#040707"/><path d="M169.3,116.1h-2V100h2Z" fill="#040707"/><path d="M178.2,116.1h-2V101.8h-3.8V100H182v1.8h-3.8Z" fill="#040707"/><path d="M183.5,100h2.3l4,6.9,4-6.9h2.3l-5.3,9.1v7h-2v-7Z" fill="#040707"/><path d="M211.5,112.1a3.9,3.9,0,0,1-1.6-.3,4,4,0,0,1-1.3-.9,4.1,4.1,0,0,1-.9-1.3,3.9,3.9,0,0,1-.3-1.6,4,4,0,0,1,.3-1.6,4,4,0,0,1,.9-1.3,4.1,4.1,0,0,1,1.3-.9,4,4,0,0,1,3.1,0,4.1,4.1,0,0,1,2.2,2.2,4,4,0,0,1,0,3.1,4,4,0,0,1-.9,1.3,4.1,4.1,0,0,1-1.3.9A3.9,3.9,0,0,1,211.5,112.1Z" fill="#040707"/><path d="M233.5,111.6l4.6-11.9,4.6,11.9,4.5-11.6h2.2l-6.7,16.8-4.6-11.8-4.6,11.8L226.8,100H229Z" fill="#040707"/><path d="M252.2,100h8.7v1.8h-6.7v4.5h6.5v1.8h-6.5v6.1h6.7v1.8h-8.7Z" fill="#040707"/><path d="M264.7,100h2l2.2.2a5.4,5.4,0,0,1,1.9.7,3.7,3.7,0,0,1,1.3,1.3,4.4,4.4,0,0,1,.5,2.2,3.7,3.7,0,0,1-.1.9,3.9,3.9,0,0,1-.3.9l-.5.7-.7.5h0a3.6,3.6,0,0,1,1.3.5,4,4,0,0,1,1,1,4.5,4.5,0,0,1,.7,1.2,4.2,4.2,0,0,1,.2,1.4,4.3,4.3,0,0,1-.5,2.1,4,4,0,0,1-1.3,1.4,5.4,5.4,0,0,1-1.8.8l-2.1.2h-3.8Zm2,7.1h1.9l1.1-.4a2.1,2.1,0,0,0,.7-.8,3,3,0,0,0,.3-1.4,3,3,0,0,0-.3-1.4,2,2,0,0,0-.7-.8l-1.1-.4h-1.9Zm0,7.2h2.9l1.2-.4a2.5,2.5,0,0,0,.9-.9,2.7,2.7,0,0,0,.3-1.4,2.3,2.3,0,0,0-.4-1.4,2.6,2.6,0,0,0-1-.8l-1.3-.4h-2.6Z" fill="#040707"/><path d="M285.6,100h3.3a12.1,12.1,0,0,1,3.5.5,8.4,8.4,0,0,1,2.9,1.5,7,7,0,0,1,2,2.5,8.1,8.1,0,0,1,.7,3.5,8.6,8.6,0,0,1-.7,3.6,7,7,0,0,1-1.9,2.5,8.3,8.3,0,0,1-2.9,1.5,12.3,12.3,0,0,1-3.6.5h-3.3Zm2,14.3h.7a13.4,13.4,0,0,0,2.9-.3,6.8,6.8,0,0,0,2.4-1,5.2,5.2,0,0,0,1.7-1.9,7.4,7.4,0,0,0,0-5.9,5.2,5.2,0,0,0-1.7-1.9,6.9,6.9,0,0,0-2.4-1,13.5,13.5,0,0,0-2.9-.3h-.7Z" fill="#040707"/><path d="M301.6,100h8.7v1.8h-6.7v4.5H310v1.8h-6.5v6.1h6.7v1.8h-8.7Z" fill="#040707"/><path d="M319.6,111.9l4.8-11.9h2.2l-7,17-7-17h2.2Z" fill="#040707"/><path d="M329.6,100h8.7v1.8h-6.7v4.5H338v1.8h-6.5v6.1h6.7v1.8h-8.7Z" fill="#040707"/><path d="M344.3,114.3h4.9v1.8h-6.9V100h2Z" fill="#040707"/><path d="M359.4,99.7a8.2,8.2,0,0,1,3.3.7,8.5,8.5,0,0,1,2.7,1.8,8.7,8.7,0,0,1,1.8,2.7,8,8,0,0,1,.7,3.3,8.4,8.4,0,0,1-.7,3.3,8.3,8.3,0,0,1-1.8,2.7,8.6,8.6,0,0,1-12,0,8.3,8.3,0,0,1-1.8-2.7,8.3,8.3,0,0,1-.7-3.3,8,8,0,0,1,.7-3.3,8.7,8.7,0,0,1,1.8-2.7,8.5,8.5,0,0,1,2.7-1.8A8.2,8.2,0,0,1,359.4,99.7Zm0,14.9a6.2,6.2,0,0,0,2.5-.5,6.6,6.6,0,0,0,2.1-1.4,6.5,6.5,0,0,0,1.9-4.6,6.8,6.8,0,0,0-.5-2.5,6.3,6.3,0,0,0-1.3-2.1,6.4,6.4,0,0,0-10.6,2.1,6.8,6.8,0,0,0-.5,2.5,6.5,6.5,0,0,0,1.9,4.6,6.6,6.6,0,0,0,2.1,1.4A6.2,6.2,0,0,0,359.4,114.6Z" fill="#040707"/><path d="M373.5,116.1h-2V100h2.3a13.2,13.2,0,0,1,3.1.3,5.2,5.2,0,0,1,2,.9,3.3,3.3,0,0,1,1.1,1.5,5.7,5.7,0,0,1,.3,2,4.8,4.8,0,0,1-.4,2.2,4,4,0,0,1-1.2,1.5,5.1,5.1,0,0,1-1.8.8l-2.2.3h-1.2Zm0-8.6h2.2l1.4-.4a2.6,2.6,0,0,0,1-.9,2.8,2.8,0,0,0,.4-1.5,2.5,2.5,0,0,0-.4-1.5,2.6,2.6,0,0,0-1-.9l-1.4-.4h-2.1Z" fill="#040707"/><path d="M386.4,105.5h0l-1.9,10.7h-2.1l3.3-16.8,5.5,12.7,5.5-12.7,3.3,16.8H398l-1.9-10.7h0l-4.8,11Z" fill="#040707"/><path d="M403.5,100h8.7v1.8h-6.7v4.5h6.5v1.8h-6.5v6.1h6.7v1.8h-8.7Z" fill="#040707"/><path d="M416,99.2l12.1,12.7V100h2v16.8L418,104.1v12h-2Z" fill="#040707"/><path d="M439,116.1h-2V101.8h-3.8V100h9.7v1.8H439Z" fill="#040707"/><path d="M458.4,112.1a3.9,3.9,0,0,1-1.6-.3,4,4,0,0,1-1.3-.9,4.1,4.1,0,0,1-.9-1.3,3.9,3.9,0,0,1-.3-1.6,4,4,0,0,1,.3-1.6,4,4,0,0,1,.9-1.3,4.1,4.1,0,0,1,1.3-.9,4,4,0,0,1,3.1,0,4.1,4.1,0,0,1,2.2,2.2,4,4,0,0,1,0,3.1,4,4,0,0,1-.9,1.3,4.1,4.1,0,0,1-1.3.9A3.9,3.9,0,0,1,458.4,112.1Z" fill="#040707"/><path d="M477.5,116.1h-2V100h2Z" fill="#040707"/><path d="M486.5,116.1h-2V101.8h-3.8V100h9.7v1.8h-3.8Z" fill="#040707"/><path d="M508.4,103.1a3.3,3.3,0,0,0-1.1-1.1,2.8,2.8,0,0,0-1.5-.4l-1,.2-.9.5-.6.7a1.8,1.8,0,0,0-.2,1,1.6,1.6,0,0,0,.2.8l.5.6.7.5.8.4,1.2.5,1.6.8a5.2,5.2,0,0,1,1.3,1,4.2,4.2,0,0,1,.8,1.3,4.8,4.8,0,0,1,.3,1.8,5.1,5.1,0,0,1-.4,2,4.7,4.7,0,0,1-1.1,1.6,5,5,0,0,1-1.6,1,5.4,5.4,0,0,1-2,.4,4.8,4.8,0,0,1-1.8-.3,5.1,5.1,0,0,1-1.5-.9,5,5,0,0,1-1.1-1.4,5.5,5.5,0,0,1-.6-1.8l2-.4a3.2,3.2,0,0,0,.2,1.2,2.8,2.8,0,0,0,.7,1l1,.6,1.2.2,1.2-.3.9-.7a3.2,3.2,0,0,0,.6-1,3.2,3.2,0,0,0,.2-1.2,2.5,2.5,0,0,0-.2-1.1,2.7,2.7,0,0,0-.6-.8l-.9-.6-1-.5-1.1-.5-1.3-.7-1.1-.8a3.8,3.8,0,0,1-.8-1.1,3.5,3.5,0,0,1-.3-1.5,3.8,3.8,0,0,1,.4-1.8,4,4,0,0,1,1.1-1.3,4.9,4.9,0,0,1,1.5-.8l1.8-.3a4.7,4.7,0,0,1,2.4.6,4.8,4.8,0,0,1,1.7,1.8Z" fill="#040707"/><path d="M521.7,99.7a8.2,8.2,0,0,1,3.3.7,8.5,8.5,0,0,1,2.7,1.8,8.7,8.7,0,0,1,1.8,2.7,8,8,0,0,1,.7,3.3,8.4,8.4,0,0,1-.7,3.3,8.3,8.3,0,0,1-1.8,2.7,8.6,8.6,0,0,1-12,0,8.3,8.3,0,0,1-1.8-2.7,8.3,8.3,0,0,1-.7-3.3,8,8,0,0,1,.7-3.3,8.7,8.7,0,0,1,1.8-2.7,8.5,8.5,0,0,1,2.7-1.8A8.2,8.2,0,0,1,521.7,99.7Zm0,14.9a6.2,6.2,0,0,0,2.5-.5,6.6,6.6,0,0,0,2.1-1.4,6.5,6.5,0,0,0,1.9-4.6,6.8,6.8,0,0,0-.5-2.5,6.3,6.3,0,0,0-1.3-2.1,6.4,6.4,0,0,0-10.6,2.1,6.8,6.8,0,0,0-.5,2.5,6.5,6.5,0,0,0,1.9,4.6,6.6,6.6,0,0,0,2.1,1.4A6.2,6.2,0,0,0,521.7,114.6Z" fill="#040707"/><path d="M535.7,114.3h4.9v1.8h-6.9V100h2Z" fill="#040707"/><path d="M545.3,100v9.5a10.4,10.4,0,0,0,.2,1.9,4.7,4.7,0,0,0,.6,1.6,3.2,3.2,0,0,0,1.2,1.1,4.6,4.6,0,0,0,3.8,0,3.2,3.2,0,0,0,1.2-1.1,4.7,4.7,0,0,0,.6-1.6,10.4,10.4,0,0,0,.2-1.9V100h2v10.2a7.3,7.3,0,0,1-.4,2.5,5.9,5.9,0,0,1-1.2,2,5.4,5.4,0,0,1-1.9,1.3,6.6,6.6,0,0,1-5,0,5.4,5.4,0,0,1-1.9-1.3,5.9,5.9,0,0,1-1.2-2,7.3,7.3,0,0,1-.4-2.5V100Z" fill="#040707"/><path d="M563.8,116.1h-2V101.8h-3.8V100h9.7v1.8h-3.8Z" fill="#040707"/><path d="M572.8,116.1h-2V100h2Z" fill="#040707"/><path d="M584.7,99.7a8.2,8.2,0,0,1,3.3.7,8.5,8.5,0,0,1,2.7,1.8,8.7,8.7,0,0,1,1.8,2.7,8,8,0,0,1,.7,3.3,8.4,8.4,0,0,1-.7,3.3,8.3,8.3,0,0,1-1.8,2.7,8.6,8.6,0,0,1-12,0,8.3,8.3,0,0,1-1.8-2.7,8.3,8.3,0,0,1-.7-3.3,8,8,0,0,1,.7-3.3,8.7,8.7,0,0,1,1.8-2.7,8.5,8.5,0,0,1,2.7-1.8A8.2,8.2,0,0,1,584.7,99.7Zm0,14.9a6.2,6.2,0,0,0,2.5-.5,6.6,6.6,0,0,0,2.1-1.4,6.5,6.5,0,0,0,1.9-4.6,6.8,6.8,0,0,0-.5-2.5,6.3,6.3,0,0,0-1.3-2.1,6.4,6.4,0,0,0-10.6,2.1,6.8,6.8,0,0,0-.5,2.5,6.5,6.5,0,0,0,1.9,4.6,6.6,6.6,0,0,0,2.1,1.4A6.2,6.2,0,0,0,584.7,114.6Z" fill="#040707"/><path d="M596.5,99.2l12.1,12.7V100h2v16.8l-12.1-12.7v12h-2Z" fill="#040707"/><path d="M622.3,103.1a3.3,3.3,0,0,0-1.1-1.1,2.8,2.8,0,0,0-1.5-.4l-1,.2-.9.5-.6.7a1.8,1.8,0,0,0-.2,1,1.6,1.6,0,0,0,.2.8l.5.6.7.5.8.4,1.2.5,1.6.8a5.2,5.2,0,0,1,1.3,1,4.2,4.2,0,0,1,.8,1.3,4.8,4.8,0,0,1,.3,1.8,5.1,5.1,0,0,1-.4,2,4.7,4.7,0,0,1-1.1,1.6,5,5,0,0,1-1.6,1,5.4,5.4,0,0,1-2,.4,4.8,4.8,0,0,1-1.8-.3,5.1,5.1,0,0,1-1.5-.9,5,5,0,0,1-1.1-1.4,5.5,5.5,0,0,1-.6-1.8l2-.4a3.2,3.2,0,0,0,.2,1.2,2.8,2.8,0,0,0,.7,1l1,.6,1.2.2,1.2-.3.9-.7a3.2,3.2,0,0,0,.6-1,3.2,3.2,0,0,0,.2-1.2,2.5,2.5,0,0,0-.2-1.1,2.7,2.7,0,0,0-.6-.8l-.9-.6-1-.5-1.1-.5-1.3-.7-1.1-.8a3.8,3.8,0,0,1-.8-1.1,3.5,3.5,0,0,1-.3-1.5,3.8,3.8,0,0,1,.4-1.8,4,4,0,0,1,1.1-1.3,4.9,4.9,0,0,1,1.5-.8l1.8-.3a4.7,4.7,0,0,1,2.4.6,4.8,4.8,0,0,1,1.7,1.8Z" fill="#040707"/></g></svg>